M48
;GenerationSoftware,Autodesk,EAGLE,9.4.2*%
;CreationDate,2019-06-27T19:02:16Z*%
FMAT,2
ICI,OFF
METRIC,TZ,000.000
T9C0.400
T8C1.000
T7C1.100
T6C1.118
T5C1.854
T4C2.766
T3C3.200
T2C3.302
%
G90
M71
T2
X68826Y13000
T3
X83000Y44000
X44000Y5000
X5000Y44000
X5000Y5000
X83000Y5000
X44000Y83000
T4
X19850Y82637
X8150Y82637
T5
X15000Y17500
X15000Y21310
X15000Y25120
X17540Y4800
X12460Y4800
T6
X53840Y10460
X53840Y13000
X53840Y15540
T7
X64810Y70000
X57190Y70000
X59730Y70000
X62270Y70000
T8
X74000Y82500
X76500Y82500
X71500Y82500
X11500Y81537
X16500Y81537
X16500Y83637
X11500Y83637
X14000Y83637
T9
X74000Y69000
X80000Y21000
X72000Y69000
X69568Y51371
X51000Y77000
X79000Y77000
X71472Y51371
X71000Y41750
X82000Y21000
X23000Y79000
X70000Y79000
X51000Y79000
X35500Y73000
X71000Y39750
X37500Y73000
M30