G04 EAGLE Gerber RS-274X export*
G75*
%MOMM*%
%FSLAX34Y34*%
%LPD*%
%INTop Copper*%
%IPPOS*%
%AMOC8*
5,1,8,0,0,1.08239X$1,22.5*%
G01*
%ADD10C,1.676400*%
%ADD11C,2.000000*%
%ADD12C,2.781300*%
%ADD13C,1.500000*%
%ADD14C,4.149000*%
%ADD15R,1.650000X1.650000*%
%ADD16C,1.650000*%
%ADD17R,0.400000X1.700000*%
%ADD18R,1.800000X3.900000*%
%ADD19P,0.649434X8X22.500000*%
%ADD20C,0.700000*%
%ADD21C,0.400000*%
%ADD22C,0.406400*%

G36*
X106648Y10017D02*
X106648Y10017D01*
X106861Y10027D01*
X106911Y10037D01*
X106962Y10041D01*
X107170Y10089D01*
X107379Y10131D01*
X107427Y10148D01*
X107477Y10160D01*
X107676Y10238D01*
X107876Y10311D01*
X107921Y10336D01*
X107969Y10355D01*
X108153Y10463D01*
X108340Y10565D01*
X108381Y10596D01*
X108425Y10622D01*
X108591Y10756D01*
X108761Y10885D01*
X108796Y10922D01*
X108836Y10954D01*
X108980Y11112D01*
X109128Y11266D01*
X109158Y11307D01*
X109192Y11345D01*
X109310Y11523D01*
X109434Y11697D01*
X109457Y11743D01*
X109485Y11785D01*
X109575Y11979D01*
X109671Y12169D01*
X109687Y12218D01*
X109709Y12264D01*
X109769Y12469D01*
X109835Y12672D01*
X109843Y12723D01*
X109858Y12772D01*
X109886Y12983D01*
X109921Y13194D01*
X109921Y13245D01*
X109928Y13296D01*
X109925Y13510D01*
X109927Y13722D01*
X109920Y13773D01*
X109919Y13824D01*
X109883Y14035D01*
X109854Y14246D01*
X109839Y14295D01*
X109830Y14346D01*
X109763Y14548D01*
X109702Y14753D01*
X109680Y14799D01*
X109664Y14847D01*
X109568Y15038D01*
X109476Y15231D01*
X109448Y15273D01*
X109424Y15319D01*
X109300Y15491D01*
X109181Y15669D01*
X109141Y15714D01*
X109116Y15748D01*
X109049Y15817D01*
X108909Y15974D01*
X105469Y19414D01*
X102322Y24866D01*
X100693Y30946D01*
X100693Y65054D01*
X102322Y71134D01*
X105469Y76586D01*
X109921Y81037D01*
X115372Y84185D01*
X121453Y85814D01*
X127747Y85814D01*
X133828Y84185D01*
X139279Y81037D01*
X143731Y76586D01*
X146970Y70976D01*
X146981Y70959D01*
X146990Y70941D01*
X147130Y70740D01*
X147268Y70539D01*
X147281Y70525D01*
X147293Y70508D01*
X147462Y70330D01*
X147628Y70152D01*
X147644Y70140D01*
X147658Y70125D01*
X147851Y69976D01*
X148043Y69824D01*
X148061Y69815D01*
X148076Y69802D01*
X148290Y69684D01*
X148502Y69563D01*
X148521Y69556D01*
X148539Y69546D01*
X148768Y69461D01*
X148996Y69373D01*
X149016Y69369D01*
X149035Y69362D01*
X149275Y69312D01*
X149513Y69260D01*
X149533Y69259D01*
X149552Y69255D01*
X149797Y69242D01*
X150040Y69226D01*
X150060Y69228D01*
X150080Y69227D01*
X150324Y69251D01*
X150567Y69272D01*
X150586Y69277D01*
X150606Y69279D01*
X150843Y69339D01*
X151081Y69397D01*
X151099Y69405D01*
X151119Y69410D01*
X151344Y69505D01*
X151570Y69598D01*
X151587Y69608D01*
X151606Y69616D01*
X151815Y69745D01*
X152023Y69870D01*
X152038Y69883D01*
X152056Y69894D01*
X152243Y70052D01*
X152430Y70208D01*
X152443Y70223D01*
X152459Y70236D01*
X152619Y70420D01*
X152782Y70602D01*
X152793Y70619D01*
X152806Y70634D01*
X153030Y70976D01*
X156269Y76586D01*
X160721Y81037D01*
X166172Y84185D01*
X172253Y85814D01*
X178547Y85814D01*
X184628Y84185D01*
X190079Y81037D01*
X194531Y76586D01*
X197678Y71134D01*
X199307Y65054D01*
X199307Y30946D01*
X197678Y24866D01*
X194531Y19414D01*
X191091Y15974D01*
X190952Y15812D01*
X190808Y15655D01*
X190780Y15612D01*
X190746Y15573D01*
X190633Y15392D01*
X190515Y15215D01*
X190493Y15168D01*
X190466Y15125D01*
X190382Y14929D01*
X190291Y14736D01*
X190277Y14686D01*
X190257Y14639D01*
X190202Y14432D01*
X190142Y14228D01*
X190136Y14178D01*
X190123Y14128D01*
X190100Y13916D01*
X190072Y13704D01*
X190073Y13653D01*
X190067Y13602D01*
X190077Y13389D01*
X190081Y13176D01*
X190089Y13125D01*
X190092Y13074D01*
X190134Y12865D01*
X190170Y12654D01*
X190186Y12606D01*
X190196Y12556D01*
X190269Y12355D01*
X190336Y12152D01*
X190359Y12107D01*
X190376Y12059D01*
X190479Y11872D01*
X190576Y11681D01*
X190605Y11640D01*
X190630Y11595D01*
X190760Y11425D01*
X190884Y11252D01*
X190919Y11215D01*
X190950Y11174D01*
X191104Y11026D01*
X191253Y10873D01*
X191294Y10843D01*
X191331Y10807D01*
X191505Y10684D01*
X191675Y10555D01*
X191720Y10531D01*
X191762Y10501D01*
X191952Y10405D01*
X192140Y10304D01*
X192189Y10287D01*
X192234Y10264D01*
X192437Y10198D01*
X192638Y10126D01*
X192688Y10116D01*
X192737Y10100D01*
X192947Y10065D01*
X193157Y10025D01*
X193217Y10021D01*
X193259Y10014D01*
X193355Y10013D01*
X193565Y10001D01*
X260222Y10001D01*
X260435Y10017D01*
X260648Y10027D01*
X260698Y10037D01*
X260749Y10041D01*
X260957Y10089D01*
X261167Y10131D01*
X261215Y10148D01*
X261264Y10160D01*
X261463Y10238D01*
X261664Y10312D01*
X261708Y10336D01*
X261756Y10355D01*
X261941Y10463D01*
X262127Y10565D01*
X262168Y10596D01*
X262212Y10622D01*
X262378Y10756D01*
X262548Y10886D01*
X262583Y10922D01*
X262623Y10954D01*
X262767Y11113D01*
X262915Y11266D01*
X262945Y11308D01*
X262979Y11345D01*
X263097Y11523D01*
X263221Y11697D01*
X263244Y11743D01*
X263272Y11785D01*
X263363Y11979D01*
X263458Y12170D01*
X263474Y12218D01*
X263496Y12264D01*
X263556Y12470D01*
X263622Y12673D01*
X263630Y12723D01*
X263645Y12772D01*
X263673Y12983D01*
X263708Y13194D01*
X263708Y13245D01*
X263715Y13296D01*
X263712Y13509D01*
X263714Y13723D01*
X263707Y13773D01*
X263706Y13824D01*
X263670Y14035D01*
X263641Y14246D01*
X263626Y14295D01*
X263617Y14346D01*
X263550Y14549D01*
X263489Y14753D01*
X263467Y14799D01*
X263451Y14847D01*
X263354Y15038D01*
X263263Y15231D01*
X263234Y15273D01*
X263211Y15319D01*
X263087Y15492D01*
X262968Y15669D01*
X262940Y15700D01*
X262636Y16228D01*
X262499Y16737D01*
X262499Y19339D01*
X262496Y19381D01*
X262498Y19423D01*
X262476Y19644D01*
X262459Y19866D01*
X262450Y19907D01*
X262446Y19949D01*
X262390Y20165D01*
X262340Y20382D01*
X262325Y20420D01*
X262315Y20461D01*
X262227Y20667D01*
X262145Y20873D01*
X262124Y20909D01*
X262108Y20948D01*
X261991Y21137D01*
X261878Y21329D01*
X261852Y21362D01*
X261830Y21397D01*
X261686Y21567D01*
X261546Y21740D01*
X261515Y21768D01*
X261487Y21800D01*
X261319Y21946D01*
X261155Y22096D01*
X261120Y22120D01*
X261088Y22147D01*
X260900Y22266D01*
X260715Y22389D01*
X260677Y22407D01*
X260641Y22430D01*
X260438Y22519D01*
X260236Y22613D01*
X260195Y22625D01*
X260157Y22642D01*
X259942Y22699D01*
X259728Y22762D01*
X259687Y22767D01*
X259646Y22778D01*
X259425Y22803D01*
X259204Y22832D01*
X259162Y22832D01*
X259121Y22836D01*
X258899Y22827D01*
X258676Y22823D01*
X258634Y22816D01*
X258592Y22815D01*
X258374Y22772D01*
X258154Y22735D01*
X258115Y22722D01*
X258074Y22714D01*
X257864Y22639D01*
X257653Y22569D01*
X257615Y22549D01*
X257576Y22535D01*
X257380Y22430D01*
X257181Y22329D01*
X257147Y22304D01*
X257110Y22284D01*
X256887Y22122D01*
X256237Y21925D01*
X256107Y21875D01*
X255974Y21834D01*
X255829Y21766D01*
X255744Y21734D01*
X255689Y21702D01*
X255603Y21662D01*
X255021Y21351D01*
X254919Y21341D01*
X254703Y21304D01*
X254488Y21272D01*
X254444Y21258D01*
X254398Y21250D01*
X254191Y21180D01*
X253983Y21116D01*
X253934Y21093D01*
X253897Y21081D01*
X253812Y21037D01*
X253612Y20945D01*
X253521Y20896D01*
X252864Y20831D01*
X252727Y20807D01*
X252589Y20793D01*
X252433Y20756D01*
X252343Y20740D01*
X252283Y20720D01*
X252191Y20698D01*
X251560Y20506D01*
X251457Y20516D01*
X251239Y20521D01*
X251022Y20532D01*
X250975Y20527D01*
X250929Y20528D01*
X250713Y20500D01*
X250496Y20478D01*
X250443Y20465D01*
X250404Y20460D01*
X250312Y20434D01*
X250098Y20382D01*
X249999Y20352D01*
X249343Y20417D01*
X249204Y20420D01*
X249065Y20433D01*
X248905Y20427D01*
X248814Y20429D01*
X248751Y20421D01*
X248657Y20417D01*
X248001Y20352D01*
X247902Y20382D01*
X247689Y20430D01*
X247477Y20483D01*
X247431Y20487D01*
X247386Y20497D01*
X247169Y20512D01*
X246951Y20533D01*
X246897Y20530D01*
X246858Y20533D01*
X246763Y20525D01*
X246543Y20516D01*
X246440Y20506D01*
X245809Y20698D01*
X245673Y20728D01*
X245539Y20768D01*
X245381Y20793D01*
X245292Y20812D01*
X245229Y20817D01*
X245136Y20831D01*
X244479Y20896D01*
X244388Y20945D01*
X244189Y21033D01*
X243992Y21126D01*
X243947Y21139D01*
X243904Y21158D01*
X243694Y21215D01*
X243485Y21278D01*
X243432Y21286D01*
X243394Y21296D01*
X243299Y21307D01*
X243081Y21341D01*
X242979Y21351D01*
X242397Y21662D01*
X242270Y21718D01*
X242146Y21784D01*
X241996Y21839D01*
X241913Y21876D01*
X241852Y21892D01*
X241763Y21925D01*
X241132Y22116D01*
X241052Y22182D01*
X240873Y22307D01*
X240698Y22437D01*
X240657Y22459D01*
X240619Y22486D01*
X240424Y22582D01*
X240231Y22684D01*
X240180Y22703D01*
X240145Y22720D01*
X240054Y22750D01*
X239848Y22826D01*
X239749Y22856D01*
X239239Y23274D01*
X239125Y23354D01*
X239017Y23442D01*
X238880Y23526D01*
X238806Y23578D01*
X238749Y23606D01*
X238668Y23655D01*
X238087Y23966D01*
X238021Y24046D01*
X237870Y24204D01*
X237724Y24365D01*
X237688Y24395D01*
X237656Y24428D01*
X237483Y24561D01*
X237314Y24699D01*
X237268Y24727D01*
X237237Y24751D01*
X237153Y24797D01*
X236966Y24912D01*
X236875Y24961D01*
X236456Y25471D01*
X236360Y25572D01*
X236271Y25679D01*
X236153Y25787D01*
X236091Y25853D01*
X236040Y25892D01*
X235971Y25956D01*
X235461Y26375D01*
X235412Y26466D01*
X235295Y26649D01*
X235183Y26837D01*
X235154Y26872D01*
X235129Y26912D01*
X234985Y27076D01*
X234846Y27244D01*
X234807Y27281D01*
X234781Y27310D01*
X234708Y27372D01*
X234546Y27521D01*
X234466Y27587D01*
X234155Y28168D01*
X234081Y28286D01*
X234014Y28408D01*
X233920Y28538D01*
X233871Y28615D01*
X233829Y28663D01*
X233774Y28739D01*
X233356Y29249D01*
X233326Y29348D01*
X233247Y29551D01*
X233173Y29756D01*
X233151Y29797D01*
X233134Y29841D01*
X233026Y30029D01*
X232922Y30221D01*
X232890Y30265D01*
X232871Y30299D01*
X232811Y30374D01*
X232682Y30552D01*
X232616Y30632D01*
X232425Y31263D01*
X232375Y31393D01*
X232334Y31526D01*
X232266Y31671D01*
X232234Y31756D01*
X232202Y31811D01*
X232162Y31897D01*
X231851Y32479D01*
X231841Y32581D01*
X231804Y32797D01*
X231772Y33012D01*
X231758Y33056D01*
X231750Y33102D01*
X231680Y33309D01*
X231616Y33517D01*
X231593Y33566D01*
X231581Y33603D01*
X231537Y33688D01*
X231445Y33888D01*
X231396Y33979D01*
X231331Y34636D01*
X231307Y34773D01*
X231293Y34911D01*
X231256Y35067D01*
X231240Y35157D01*
X231220Y35217D01*
X231198Y35309D01*
X230995Y35975D01*
X230999Y36042D01*
X230999Y37837D01*
X230993Y37926D01*
X230982Y38180D01*
X230852Y39503D01*
X230859Y39532D01*
X230874Y39576D01*
X230916Y39790D01*
X230963Y40003D01*
X230967Y40049D01*
X230975Y40095D01*
X230999Y40502D01*
X230999Y52498D01*
X230996Y52544D01*
X230998Y52590D01*
X230976Y52807D01*
X230959Y53025D01*
X230949Y53070D01*
X230944Y53116D01*
X230852Y53498D01*
X230982Y54820D01*
X230984Y54909D01*
X230999Y55163D01*
X230999Y56959D01*
X230994Y57022D01*
X231198Y57691D01*
X231228Y57827D01*
X231268Y57961D01*
X231293Y58119D01*
X231312Y58207D01*
X231317Y58271D01*
X231331Y58364D01*
X231396Y59021D01*
X231445Y59112D01*
X231532Y59311D01*
X231626Y59508D01*
X231639Y59553D01*
X231658Y59596D01*
X231715Y59806D01*
X231778Y60015D01*
X231786Y60068D01*
X231796Y60106D01*
X231807Y60201D01*
X231841Y60419D01*
X231851Y60521D01*
X232162Y61103D01*
X232218Y61230D01*
X232284Y61354D01*
X232339Y61504D01*
X232376Y61587D01*
X232392Y61648D01*
X232425Y61737D01*
X232649Y62477D01*
X232680Y62538D01*
X232724Y62609D01*
X232797Y62774D01*
X232877Y62936D01*
X232903Y63016D01*
X232936Y63093D01*
X232983Y63268D01*
X233038Y63440D01*
X233051Y63523D01*
X233073Y63604D01*
X233093Y63783D01*
X233121Y63962D01*
X233122Y64046D01*
X233131Y64129D01*
X233124Y64310D01*
X233125Y64491D01*
X233113Y64574D01*
X233109Y64658D01*
X233075Y64835D01*
X233049Y65014D01*
X233024Y65094D01*
X233008Y65177D01*
X232947Y65347D01*
X232895Y65520D01*
X232859Y65595D01*
X232830Y65674D01*
X232744Y65833D01*
X232666Y65996D01*
X232650Y66020D01*
X232425Y66763D01*
X232375Y66893D01*
X232334Y67026D01*
X232266Y67171D01*
X232234Y67256D01*
X232202Y67311D01*
X232162Y67397D01*
X231851Y67979D01*
X231841Y68081D01*
X231804Y68297D01*
X231772Y68512D01*
X231758Y68556D01*
X231750Y68602D01*
X231680Y68809D01*
X231616Y69017D01*
X231593Y69066D01*
X231581Y69103D01*
X231537Y69188D01*
X231445Y69388D01*
X231396Y69479D01*
X231331Y70136D01*
X231307Y70273D01*
X231293Y70411D01*
X231256Y70567D01*
X231240Y70657D01*
X231220Y70717D01*
X231198Y70809D01*
X230995Y71475D01*
X230999Y71542D01*
X230999Y73337D01*
X230993Y73426D01*
X230982Y73680D01*
X230852Y75003D01*
X230859Y75032D01*
X230874Y75076D01*
X230916Y75290D01*
X230963Y75503D01*
X230967Y75549D01*
X230975Y75595D01*
X230999Y76002D01*
X230999Y87998D01*
X230996Y88044D01*
X230998Y88090D01*
X230976Y88307D01*
X230959Y88525D01*
X230949Y88570D01*
X230944Y88616D01*
X230852Y88998D01*
X230982Y90320D01*
X230984Y90409D01*
X230999Y90663D01*
X230999Y92458D01*
X230994Y92522D01*
X231198Y93191D01*
X231228Y93327D01*
X231268Y93461D01*
X231293Y93619D01*
X231312Y93708D01*
X231317Y93771D01*
X231331Y93864D01*
X231396Y94521D01*
X231445Y94612D01*
X231533Y94811D01*
X231626Y95008D01*
X231639Y95053D01*
X231658Y95096D01*
X231715Y95306D01*
X231778Y95515D01*
X231786Y95568D01*
X231796Y95606D01*
X231807Y95701D01*
X231841Y95919D01*
X231851Y96021D01*
X232162Y96603D01*
X232218Y96730D01*
X232284Y96854D01*
X232339Y97004D01*
X232376Y97087D01*
X232392Y97148D01*
X232425Y97237D01*
X232616Y97868D01*
X232682Y97948D01*
X232807Y98127D01*
X232937Y98302D01*
X232959Y98343D01*
X232986Y98381D01*
X233082Y98576D01*
X233184Y98769D01*
X233203Y98820D01*
X233220Y98855D01*
X233250Y98946D01*
X233326Y99152D01*
X233356Y99251D01*
X233774Y99761D01*
X233854Y99875D01*
X233942Y99983D01*
X234026Y100120D01*
X234078Y100194D01*
X234106Y100251D01*
X234155Y100332D01*
X234466Y100913D01*
X234546Y100979D01*
X234704Y101130D01*
X234865Y101276D01*
X234895Y101312D01*
X234928Y101344D01*
X235061Y101517D01*
X235199Y101686D01*
X235227Y101732D01*
X235251Y101763D01*
X235297Y101847D01*
X235412Y102034D01*
X235461Y102125D01*
X235971Y102544D01*
X236072Y102640D01*
X236179Y102729D01*
X236287Y102846D01*
X236353Y102909D01*
X236392Y102960D01*
X236456Y103029D01*
X236875Y103539D01*
X236966Y103588D01*
X237150Y103705D01*
X237337Y103817D01*
X237373Y103847D01*
X237412Y103872D01*
X237576Y104015D01*
X237744Y104154D01*
X237781Y104194D01*
X237810Y104219D01*
X237872Y104292D01*
X238021Y104454D01*
X238087Y104534D01*
X238668Y104845D01*
X238786Y104919D01*
X238908Y104986D01*
X239038Y105080D01*
X239115Y105129D01*
X239162Y105170D01*
X239239Y105226D01*
X239749Y105644D01*
X239848Y105674D01*
X240051Y105753D01*
X240256Y105827D01*
X240297Y105849D01*
X240341Y105866D01*
X240529Y105974D01*
X240722Y106078D01*
X240765Y106110D01*
X240799Y106129D01*
X240874Y106189D01*
X241052Y106318D01*
X241132Y106384D01*
X241763Y106575D01*
X241893Y106625D01*
X242026Y106666D01*
X242171Y106734D01*
X242256Y106766D01*
X242311Y106798D01*
X242397Y106838D01*
X242979Y107149D01*
X243081Y107159D01*
X243297Y107196D01*
X243512Y107228D01*
X243556Y107242D01*
X243602Y107250D01*
X243809Y107320D01*
X244017Y107384D01*
X244066Y107407D01*
X244103Y107419D01*
X244188Y107463D01*
X244388Y107555D01*
X244479Y107604D01*
X245136Y107669D01*
X245273Y107693D01*
X245411Y107707D01*
X245567Y107744D01*
X245657Y107760D01*
X245717Y107780D01*
X245809Y107802D01*
X246440Y107994D01*
X246543Y107984D01*
X246761Y107979D01*
X246978Y107968D01*
X247025Y107973D01*
X247071Y107972D01*
X247287Y108000D01*
X247504Y108022D01*
X247557Y108035D01*
X247596Y108040D01*
X247688Y108066D01*
X247902Y108118D01*
X248001Y108148D01*
X248657Y108083D01*
X248796Y108080D01*
X248935Y108067D01*
X249095Y108073D01*
X249186Y108071D01*
X249249Y108079D01*
X249343Y108083D01*
X249999Y108148D01*
X250098Y108118D01*
X250127Y108111D01*
X250145Y108105D01*
X250235Y108087D01*
X250311Y108070D01*
X250523Y108017D01*
X250569Y108013D01*
X250614Y108003D01*
X250831Y107988D01*
X251049Y107967D01*
X251103Y107970D01*
X251142Y107967D01*
X251237Y107975D01*
X251457Y107984D01*
X251560Y107994D01*
X252191Y107802D01*
X252327Y107772D01*
X252461Y107732D01*
X252619Y107707D01*
X252708Y107688D01*
X252771Y107683D01*
X252864Y107669D01*
X253567Y107599D01*
X253764Y107507D01*
X253800Y107497D01*
X253834Y107482D01*
X254053Y107422D01*
X254272Y107358D01*
X254309Y107353D01*
X254345Y107344D01*
X254571Y107318D01*
X254796Y107288D01*
X254833Y107288D01*
X254870Y107284D01*
X255098Y107293D01*
X255324Y107297D01*
X255361Y107303D01*
X255398Y107304D01*
X255622Y107347D01*
X255846Y107385D01*
X255881Y107397D01*
X255917Y107404D01*
X256131Y107480D01*
X256348Y107551D01*
X256381Y107568D01*
X256416Y107581D01*
X256617Y107689D01*
X256819Y107791D01*
X256849Y107813D01*
X256882Y107831D01*
X257064Y107967D01*
X257248Y108100D01*
X257275Y108125D01*
X257305Y108148D01*
X257465Y108311D01*
X257627Y108469D01*
X257649Y108498D01*
X257675Y108525D01*
X257808Y108710D01*
X257945Y108891D01*
X257963Y108924D01*
X257984Y108954D01*
X258088Y109156D01*
X258196Y109356D01*
X258209Y109391D01*
X258226Y109424D01*
X258298Y109640D01*
X258374Y109854D01*
X258381Y109891D01*
X258393Y109926D01*
X258432Y110150D01*
X258475Y110373D01*
X258478Y110416D01*
X258483Y110447D01*
X258485Y110539D01*
X258499Y110781D01*
X258499Y120958D01*
X258491Y121069D01*
X258492Y121181D01*
X258471Y121333D01*
X258459Y121486D01*
X258434Y121594D01*
X258419Y121704D01*
X258375Y121851D01*
X258340Y122001D01*
X258299Y122104D01*
X258267Y122211D01*
X258202Y122350D01*
X258145Y122492D01*
X258089Y122588D01*
X258041Y122689D01*
X257956Y122816D01*
X257878Y122948D01*
X257808Y123035D01*
X257746Y123127D01*
X257606Y123284D01*
X257546Y123359D01*
X257514Y123388D01*
X257474Y123433D01*
X190643Y190264D01*
X190589Y190311D01*
X190540Y190363D01*
X190388Y190483D01*
X190242Y190609D01*
X190182Y190646D01*
X190126Y190691D01*
X189957Y190786D01*
X189793Y190889D01*
X189728Y190917D01*
X189666Y190952D01*
X189486Y191022D01*
X189308Y191098D01*
X189239Y191116D01*
X189173Y191142D01*
X188984Y191183D01*
X188797Y191232D01*
X188726Y191240D01*
X188656Y191255D01*
X188463Y191267D01*
X188271Y191288D01*
X188200Y191284D01*
X188128Y191289D01*
X187935Y191272D01*
X187743Y191263D01*
X187673Y191249D01*
X187602Y191243D01*
X187414Y191197D01*
X187224Y191159D01*
X187157Y191135D01*
X187088Y191118D01*
X186909Y191045D01*
X186727Y190979D01*
X186665Y190944D01*
X186599Y190917D01*
X186433Y190818D01*
X186263Y190725D01*
X186207Y190682D01*
X186146Y190645D01*
X185997Y190522D01*
X185843Y190404D01*
X185793Y190353D01*
X185738Y190308D01*
X185610Y190163D01*
X185476Y190024D01*
X185434Y189966D01*
X185387Y189913D01*
X185281Y189751D01*
X185170Y189593D01*
X185138Y189529D01*
X185099Y189470D01*
X185019Y189293D01*
X184932Y189121D01*
X184910Y189053D01*
X184881Y188988D01*
X184828Y188802D01*
X184769Y188618D01*
X184757Y188547D01*
X184738Y188479D01*
X184714Y188287D01*
X184683Y188096D01*
X184682Y188025D01*
X184673Y187954D01*
X184679Y187761D01*
X184676Y187567D01*
X184686Y187497D01*
X184688Y187426D01*
X184723Y187235D01*
X184750Y187044D01*
X184770Y186976D01*
X184783Y186905D01*
X184846Y186723D01*
X184901Y186537D01*
X184932Y186473D01*
X184955Y186405D01*
X185105Y186106D01*
X185127Y186059D01*
X185133Y186051D01*
X185138Y186040D01*
X186185Y184228D01*
X187814Y178147D01*
X187814Y171853D01*
X186185Y165772D01*
X183037Y160321D01*
X178586Y155869D01*
X173134Y152722D01*
X167054Y151093D01*
X132946Y151093D01*
X126866Y152722D01*
X121414Y155869D01*
X116963Y160321D01*
X113815Y165772D01*
X112186Y171853D01*
X112186Y178147D01*
X113815Y184228D01*
X116963Y189679D01*
X118859Y191576D01*
X118965Y191699D01*
X119078Y191816D01*
X119137Y191899D01*
X119204Y191977D01*
X119290Y192114D01*
X119384Y192247D01*
X119430Y192338D01*
X119484Y192425D01*
X119548Y192574D01*
X119621Y192719D01*
X119653Y192816D01*
X119693Y192910D01*
X119735Y193068D01*
X119785Y193222D01*
X119801Y193323D01*
X119827Y193422D01*
X119844Y193584D01*
X119871Y193744D01*
X119872Y193846D01*
X119883Y193948D01*
X119875Y194110D01*
X119877Y194272D01*
X119863Y194374D01*
X119858Y194476D01*
X119826Y194635D01*
X119804Y194796D01*
X119774Y194894D01*
X119754Y194994D01*
X119699Y195147D01*
X119652Y195303D01*
X119609Y195395D01*
X119574Y195491D01*
X119496Y195634D01*
X119426Y195781D01*
X119369Y195865D01*
X119320Y195955D01*
X119222Y196084D01*
X119131Y196219D01*
X119047Y196313D01*
X118999Y196376D01*
X118943Y196431D01*
X118859Y196524D01*
X116963Y198421D01*
X113815Y203872D01*
X112186Y209953D01*
X112186Y216247D01*
X113815Y222328D01*
X116963Y227779D01*
X118859Y229676D01*
X118965Y229799D01*
X119078Y229916D01*
X119137Y229999D01*
X119204Y230077D01*
X119290Y230214D01*
X119384Y230347D01*
X119430Y230438D01*
X119484Y230525D01*
X119548Y230674D01*
X119621Y230819D01*
X119653Y230916D01*
X119693Y231010D01*
X119735Y231168D01*
X119785Y231322D01*
X119801Y231423D01*
X119827Y231522D01*
X119844Y231684D01*
X119871Y231844D01*
X119872Y231946D01*
X119883Y232048D01*
X119875Y232210D01*
X119877Y232372D01*
X119863Y232474D01*
X119858Y232576D01*
X119826Y232735D01*
X119804Y232896D01*
X119774Y232994D01*
X119754Y233094D01*
X119699Y233247D01*
X119652Y233403D01*
X119609Y233495D01*
X119574Y233591D01*
X119496Y233734D01*
X119426Y233881D01*
X119369Y233965D01*
X119320Y234055D01*
X119222Y234184D01*
X119131Y234319D01*
X119047Y234413D01*
X118999Y234476D01*
X118943Y234531D01*
X118859Y234624D01*
X116963Y236521D01*
X113815Y241972D01*
X112186Y248053D01*
X112186Y254347D01*
X113815Y260428D01*
X116963Y265879D01*
X121414Y270331D01*
X126866Y273478D01*
X132946Y275107D01*
X167054Y275107D01*
X173134Y273478D01*
X178586Y270331D01*
X183037Y265879D01*
X186185Y260428D01*
X187814Y254347D01*
X187814Y248053D01*
X186185Y241972D01*
X183037Y236521D01*
X181141Y234624D01*
X181035Y234501D01*
X180922Y234384D01*
X180863Y234301D01*
X180796Y234223D01*
X180710Y234086D01*
X180616Y233953D01*
X180570Y233862D01*
X180516Y233775D01*
X180452Y233626D01*
X180379Y233481D01*
X180347Y233383D01*
X180307Y233289D01*
X180265Y233132D01*
X180215Y232978D01*
X180199Y232877D01*
X180173Y232778D01*
X180156Y232616D01*
X180129Y232456D01*
X180128Y232354D01*
X180117Y232252D01*
X180125Y232090D01*
X180123Y231928D01*
X180137Y231826D01*
X180142Y231724D01*
X180174Y231565D01*
X180196Y231404D01*
X180226Y231306D01*
X180246Y231206D01*
X180301Y231053D01*
X180348Y230897D01*
X180392Y230805D01*
X180426Y230709D01*
X180504Y230566D01*
X180574Y230419D01*
X180631Y230334D01*
X180680Y230245D01*
X180778Y230116D01*
X180869Y229981D01*
X180953Y229887D01*
X181001Y229824D01*
X181057Y229769D01*
X181141Y229676D01*
X183191Y227626D01*
X183275Y227553D01*
X183353Y227473D01*
X183475Y227381D01*
X183592Y227281D01*
X183686Y227222D01*
X183775Y227155D01*
X183910Y227082D01*
X184040Y227001D01*
X184142Y226957D01*
X184240Y226904D01*
X184385Y226852D01*
X184526Y226791D01*
X184633Y226763D01*
X184738Y226726D01*
X184889Y226696D01*
X185037Y226658D01*
X185148Y226646D01*
X185257Y226625D01*
X185467Y226612D01*
X185563Y226602D01*
X185606Y226604D01*
X185665Y226601D01*
X189586Y226601D01*
X194548Y224545D01*
X283445Y135648D01*
X285501Y130686D01*
X285501Y100500D01*
X285513Y100338D01*
X285516Y100176D01*
X285533Y100075D01*
X285541Y99973D01*
X285577Y99815D01*
X285604Y99654D01*
X285637Y99557D01*
X285660Y99458D01*
X285719Y99307D01*
X285771Y99152D01*
X285817Y99061D01*
X285855Y98966D01*
X285937Y98826D01*
X286010Y98681D01*
X286070Y98598D01*
X286122Y98510D01*
X286224Y98383D01*
X286319Y98252D01*
X286390Y98179D01*
X286454Y98099D01*
X286575Y97989D01*
X286688Y97873D01*
X286770Y97812D01*
X286845Y97743D01*
X286980Y97653D01*
X287110Y97555D01*
X287200Y97506D01*
X287285Y97450D01*
X287432Y97381D01*
X287575Y97304D01*
X287672Y97269D01*
X287764Y97226D01*
X287920Y97180D01*
X288073Y97126D01*
X288174Y97106D01*
X288272Y97077D01*
X288432Y97056D01*
X288592Y97025D01*
X288718Y97017D01*
X288796Y97007D01*
X288875Y97008D01*
X289000Y97001D01*
X295489Y97001D01*
X299797Y95216D01*
X299863Y95195D01*
X299926Y95166D01*
X300114Y95112D01*
X300299Y95052D01*
X300368Y95040D01*
X300435Y95021D01*
X300628Y94997D01*
X300821Y94964D01*
X300891Y94963D01*
X300959Y94955D01*
X301154Y94959D01*
X301349Y94957D01*
X301418Y94966D01*
X301488Y94968D01*
X301680Y95002D01*
X301873Y95029D01*
X301940Y95048D01*
X302008Y95061D01*
X302193Y95123D01*
X302380Y95179D01*
X302443Y95208D01*
X302509Y95231D01*
X302682Y95321D01*
X302859Y95404D01*
X302916Y95442D01*
X302978Y95474D01*
X303136Y95589D01*
X303298Y95698D01*
X303349Y95745D01*
X303405Y95786D01*
X303544Y95923D01*
X303688Y96055D01*
X303731Y96109D01*
X303781Y96158D01*
X303897Y96315D01*
X304019Y96467D01*
X304054Y96527D01*
X304096Y96583D01*
X304187Y96755D01*
X304285Y96924D01*
X304311Y96989D01*
X304343Y97050D01*
X304462Y97372D01*
X304479Y97416D01*
X304481Y97424D01*
X304484Y97434D01*
X304616Y97868D01*
X304682Y97948D01*
X304807Y98127D01*
X304937Y98302D01*
X304959Y98343D01*
X304986Y98381D01*
X305082Y98576D01*
X305184Y98769D01*
X305203Y98820D01*
X305220Y98855D01*
X305250Y98946D01*
X305326Y99152D01*
X305356Y99251D01*
X305774Y99761D01*
X305854Y99875D01*
X305942Y99983D01*
X306026Y100120D01*
X306078Y100194D01*
X306106Y100251D01*
X306155Y100332D01*
X306466Y100913D01*
X306546Y100979D01*
X306704Y101130D01*
X306865Y101276D01*
X306895Y101312D01*
X306928Y101344D01*
X307061Y101517D01*
X307199Y101686D01*
X307227Y101732D01*
X307251Y101763D01*
X307297Y101847D01*
X307412Y102034D01*
X307461Y102125D01*
X307971Y102544D01*
X308072Y102640D01*
X308179Y102729D01*
X308287Y102846D01*
X308353Y102909D01*
X308392Y102960D01*
X308456Y103029D01*
X308875Y103539D01*
X308966Y103588D01*
X309149Y103705D01*
X309337Y103817D01*
X309372Y103846D01*
X309412Y103871D01*
X309576Y104015D01*
X309744Y104154D01*
X309781Y104193D01*
X309810Y104219D01*
X309872Y104292D01*
X310021Y104454D01*
X310087Y104534D01*
X310668Y104845D01*
X310786Y104919D01*
X310908Y104986D01*
X311038Y105080D01*
X311115Y105129D01*
X311163Y105171D01*
X311239Y105226D01*
X311749Y105644D01*
X311848Y105674D01*
X312051Y105753D01*
X312256Y105827D01*
X312297Y105849D01*
X312341Y105866D01*
X312529Y105974D01*
X312721Y106078D01*
X312765Y106110D01*
X312799Y106129D01*
X312874Y106189D01*
X313052Y106318D01*
X313132Y106384D01*
X313763Y106575D01*
X313893Y106625D01*
X314026Y106666D01*
X314171Y106734D01*
X314256Y106766D01*
X314311Y106798D01*
X314397Y106838D01*
X314979Y107149D01*
X315081Y107159D01*
X315297Y107196D01*
X315512Y107228D01*
X315556Y107242D01*
X315602Y107250D01*
X315809Y107320D01*
X316017Y107384D01*
X316066Y107407D01*
X316103Y107419D01*
X316188Y107463D01*
X316388Y107555D01*
X316479Y107604D01*
X317136Y107669D01*
X317273Y107693D01*
X317411Y107707D01*
X317567Y107744D01*
X317657Y107760D01*
X317717Y107780D01*
X317809Y107802D01*
X318440Y107994D01*
X318543Y107984D01*
X318761Y107979D01*
X318978Y107968D01*
X319025Y107973D01*
X319071Y107972D01*
X319287Y108000D01*
X319504Y108022D01*
X319557Y108035D01*
X319596Y108040D01*
X319688Y108066D01*
X319902Y108118D01*
X320001Y108148D01*
X320657Y108083D01*
X320796Y108080D01*
X320935Y108067D01*
X321095Y108073D01*
X321186Y108071D01*
X321249Y108079D01*
X321343Y108083D01*
X321999Y108148D01*
X322098Y108118D01*
X322127Y108111D01*
X322145Y108105D01*
X322235Y108087D01*
X322311Y108070D01*
X322523Y108017D01*
X322569Y108013D01*
X322614Y108003D01*
X322831Y107988D01*
X323049Y107967D01*
X323103Y107970D01*
X323142Y107967D01*
X323237Y107975D01*
X323457Y107984D01*
X323560Y107994D01*
X324191Y107802D01*
X324327Y107772D01*
X324461Y107732D01*
X324619Y107707D01*
X324708Y107688D01*
X324771Y107683D01*
X324864Y107669D01*
X325521Y107604D01*
X325612Y107555D01*
X325811Y107467D01*
X326008Y107374D01*
X326053Y107361D01*
X326096Y107342D01*
X326306Y107285D01*
X326515Y107222D01*
X326568Y107214D01*
X326606Y107204D01*
X326701Y107193D01*
X326919Y107159D01*
X327021Y107149D01*
X327603Y106838D01*
X327730Y106782D01*
X327854Y106716D01*
X328004Y106661D01*
X328087Y106624D01*
X328148Y106608D01*
X328237Y106575D01*
X328868Y106384D01*
X328948Y106318D01*
X329127Y106193D01*
X329302Y106063D01*
X329343Y106041D01*
X329381Y106014D01*
X329576Y105918D01*
X329769Y105816D01*
X329820Y105797D01*
X329855Y105780D01*
X329946Y105750D01*
X330152Y105674D01*
X330251Y105644D01*
X330761Y105226D01*
X330875Y105146D01*
X330983Y105058D01*
X331120Y104974D01*
X331194Y104922D01*
X331251Y104894D01*
X331332Y104845D01*
X331913Y104534D01*
X331979Y104454D01*
X332130Y104296D01*
X332276Y104135D01*
X332312Y104105D01*
X332344Y104072D01*
X332517Y103939D01*
X332686Y103801D01*
X332732Y103773D01*
X332763Y103749D01*
X332847Y103703D01*
X333034Y103588D01*
X333125Y103539D01*
X333544Y103029D01*
X333640Y102928D01*
X333729Y102821D01*
X333847Y102713D01*
X333909Y102647D01*
X333960Y102608D01*
X334029Y102544D01*
X334539Y102125D01*
X334588Y102034D01*
X334705Y101851D01*
X334817Y101663D01*
X334846Y101628D01*
X334871Y101588D01*
X335015Y101424D01*
X335154Y101256D01*
X335193Y101219D01*
X335219Y101190D01*
X335292Y101128D01*
X335454Y100979D01*
X335534Y100913D01*
X335845Y100332D01*
X335920Y100214D01*
X335986Y100092D01*
X336080Y99962D01*
X336129Y99885D01*
X336171Y99837D01*
X336226Y99761D01*
X336644Y99251D01*
X336674Y99152D01*
X336753Y98949D01*
X336827Y98744D01*
X336849Y98703D01*
X336866Y98659D01*
X336974Y98471D01*
X337078Y98278D01*
X337110Y98235D01*
X337129Y98201D01*
X337189Y98126D01*
X337318Y97948D01*
X337384Y97868D01*
X337575Y97237D01*
X337625Y97107D01*
X337666Y96974D01*
X337733Y96829D01*
X337766Y96744D01*
X337798Y96689D01*
X337838Y96603D01*
X338149Y96021D01*
X338159Y95918D01*
X338196Y95704D01*
X338228Y95488D01*
X338242Y95444D01*
X338250Y95398D01*
X338320Y95191D01*
X338384Y94983D01*
X338407Y94934D01*
X338419Y94897D01*
X338463Y94811D01*
X338555Y94612D01*
X338604Y94521D01*
X338669Y93864D01*
X338693Y93727D01*
X338707Y93589D01*
X338744Y93433D01*
X338760Y93343D01*
X338780Y93283D01*
X338802Y93191D01*
X339005Y92525D01*
X339001Y92458D01*
X339001Y90663D01*
X339007Y90574D01*
X339018Y90320D01*
X339148Y88997D01*
X339141Y88968D01*
X339126Y88924D01*
X339084Y88710D01*
X339037Y88497D01*
X339033Y88451D01*
X339025Y88405D01*
X339001Y87998D01*
X339001Y76002D01*
X339004Y75956D01*
X339002Y75910D01*
X339024Y75693D01*
X339041Y75475D01*
X339051Y75430D01*
X339056Y75384D01*
X339148Y75002D01*
X339018Y73680D01*
X339016Y73591D01*
X339001Y73337D01*
X339001Y71542D01*
X339006Y71478D01*
X338802Y70809D01*
X338772Y70673D01*
X338732Y70539D01*
X338707Y70381D01*
X338688Y70292D01*
X338683Y70229D01*
X338669Y70136D01*
X338604Y69479D01*
X338555Y69388D01*
X338467Y69189D01*
X338374Y68992D01*
X338361Y68947D01*
X338342Y68904D01*
X338285Y68694D01*
X338222Y68485D01*
X338214Y68432D01*
X338204Y68394D01*
X338193Y68299D01*
X338159Y68081D01*
X338149Y67979D01*
X337838Y67397D01*
X337782Y67270D01*
X337716Y67146D01*
X337661Y66996D01*
X337624Y66913D01*
X337608Y66851D01*
X337575Y66763D01*
X337351Y66023D01*
X337320Y65962D01*
X337276Y65891D01*
X337203Y65726D01*
X337123Y65564D01*
X337097Y65484D01*
X337064Y65407D01*
X337017Y65232D01*
X336962Y65060D01*
X336949Y64977D01*
X336927Y64896D01*
X336907Y64717D01*
X336879Y64538D01*
X336878Y64454D01*
X336869Y64371D01*
X336876Y64190D01*
X336875Y64009D01*
X336887Y63926D01*
X336891Y63842D01*
X336925Y63665D01*
X336951Y63486D01*
X336976Y63406D01*
X336992Y63323D01*
X337053Y63153D01*
X337105Y62980D01*
X337141Y62905D01*
X337170Y62826D01*
X337256Y62667D01*
X337334Y62504D01*
X337350Y62480D01*
X337575Y61737D01*
X337625Y61607D01*
X337666Y61474D01*
X337734Y61329D01*
X337766Y61244D01*
X337798Y61189D01*
X337838Y61103D01*
X338149Y60521D01*
X338159Y60419D01*
X338196Y60203D01*
X338228Y59988D01*
X338242Y59944D01*
X338250Y59898D01*
X338320Y59691D01*
X338384Y59483D01*
X338407Y59434D01*
X338419Y59397D01*
X338463Y59312D01*
X338555Y59112D01*
X338604Y59021D01*
X338669Y58364D01*
X338693Y58227D01*
X338707Y58089D01*
X338744Y57933D01*
X338760Y57843D01*
X338780Y57783D01*
X338802Y57691D01*
X339005Y57025D01*
X339001Y56958D01*
X339001Y55163D01*
X339007Y55074D01*
X339018Y54820D01*
X339148Y53497D01*
X339141Y53468D01*
X339126Y53424D01*
X339084Y53210D01*
X339037Y52997D01*
X339033Y52951D01*
X339025Y52905D01*
X339001Y52498D01*
X339001Y40502D01*
X339004Y40456D01*
X339002Y40410D01*
X339024Y40193D01*
X339041Y39975D01*
X339051Y39930D01*
X339056Y39884D01*
X339148Y39502D01*
X339018Y38180D01*
X339016Y38091D01*
X339001Y37837D01*
X339001Y36042D01*
X339006Y35978D01*
X338802Y35309D01*
X338772Y35173D01*
X338732Y35039D01*
X338707Y34881D01*
X338688Y34792D01*
X338683Y34729D01*
X338669Y34636D01*
X338604Y33979D01*
X338555Y33888D01*
X338467Y33689D01*
X338374Y33492D01*
X338361Y33447D01*
X338342Y33404D01*
X338285Y33194D01*
X338222Y32985D01*
X338214Y32932D01*
X338204Y32894D01*
X338193Y32799D01*
X338159Y32581D01*
X338149Y32479D01*
X337838Y31897D01*
X337782Y31770D01*
X337716Y31646D01*
X337661Y31496D01*
X337624Y31413D01*
X337608Y31351D01*
X337575Y31263D01*
X337384Y30632D01*
X337318Y30552D01*
X337193Y30373D01*
X337063Y30198D01*
X337041Y30157D01*
X337014Y30119D01*
X336918Y29924D01*
X336816Y29731D01*
X336797Y29680D01*
X336780Y29645D01*
X336750Y29554D01*
X336674Y29348D01*
X336644Y29249D01*
X336226Y28739D01*
X336146Y28625D01*
X336058Y28517D01*
X335974Y28380D01*
X335922Y28306D01*
X335894Y28249D01*
X335845Y28168D01*
X335534Y27587D01*
X335454Y27521D01*
X335296Y27370D01*
X335135Y27224D01*
X335105Y27188D01*
X335072Y27156D01*
X334938Y26983D01*
X334801Y26814D01*
X334773Y26768D01*
X334749Y26737D01*
X334703Y26653D01*
X334588Y26466D01*
X334539Y26375D01*
X334029Y25956D01*
X333928Y25860D01*
X333821Y25771D01*
X333713Y25653D01*
X333647Y25591D01*
X333608Y25540D01*
X333544Y25471D01*
X333125Y24961D01*
X333034Y24912D01*
X332851Y24795D01*
X332663Y24683D01*
X332628Y24654D01*
X332588Y24629D01*
X332424Y24485D01*
X332256Y24346D01*
X332219Y24307D01*
X332190Y24281D01*
X332128Y24208D01*
X331979Y24046D01*
X331913Y23966D01*
X331332Y23655D01*
X331214Y23581D01*
X331092Y23514D01*
X330962Y23420D01*
X330885Y23371D01*
X330837Y23329D01*
X330761Y23274D01*
X330251Y22856D01*
X330152Y22826D01*
X329949Y22747D01*
X329744Y22673D01*
X329703Y22651D01*
X329659Y22634D01*
X329471Y22526D01*
X329279Y22422D01*
X329235Y22390D01*
X329201Y22371D01*
X329126Y22311D01*
X328948Y22182D01*
X328868Y22116D01*
X328237Y21925D01*
X328107Y21875D01*
X327974Y21834D01*
X327829Y21766D01*
X327744Y21734D01*
X327689Y21702D01*
X327603Y21662D01*
X327021Y21351D01*
X326919Y21341D01*
X326703Y21304D01*
X326488Y21272D01*
X326444Y21258D01*
X326398Y21250D01*
X326191Y21180D01*
X325983Y21116D01*
X325934Y21093D01*
X325897Y21081D01*
X325812Y21037D01*
X325612Y20945D01*
X325521Y20896D01*
X324864Y20831D01*
X324727Y20807D01*
X324589Y20793D01*
X324433Y20756D01*
X324343Y20740D01*
X324283Y20720D01*
X324191Y20698D01*
X323560Y20506D01*
X323457Y20516D01*
X323239Y20521D01*
X323022Y20532D01*
X322975Y20527D01*
X322929Y20528D01*
X322713Y20500D01*
X322496Y20478D01*
X322443Y20465D01*
X322404Y20460D01*
X322312Y20434D01*
X322098Y20382D01*
X321999Y20352D01*
X321343Y20417D01*
X321204Y20420D01*
X321065Y20433D01*
X320905Y20427D01*
X320814Y20429D01*
X320751Y20421D01*
X320657Y20417D01*
X320001Y20352D01*
X319902Y20382D01*
X319689Y20430D01*
X319477Y20483D01*
X319431Y20487D01*
X319386Y20497D01*
X319169Y20512D01*
X318951Y20533D01*
X318897Y20530D01*
X318858Y20533D01*
X318763Y20525D01*
X318543Y20516D01*
X318440Y20506D01*
X317809Y20698D01*
X317673Y20728D01*
X317539Y20768D01*
X317381Y20793D01*
X317292Y20812D01*
X317229Y20817D01*
X317136Y20831D01*
X316479Y20896D01*
X316388Y20945D01*
X316189Y21033D01*
X315992Y21126D01*
X315947Y21139D01*
X315904Y21158D01*
X315694Y21215D01*
X315485Y21278D01*
X315432Y21286D01*
X315394Y21296D01*
X315299Y21307D01*
X315081Y21341D01*
X314979Y21351D01*
X314397Y21662D01*
X314270Y21718D01*
X314146Y21784D01*
X313996Y21839D01*
X313913Y21876D01*
X313852Y21892D01*
X313763Y21925D01*
X313119Y22120D01*
X312969Y22220D01*
X312787Y22348D01*
X312750Y22366D01*
X312715Y22389D01*
X312513Y22484D01*
X312313Y22583D01*
X312273Y22595D01*
X312236Y22613D01*
X312022Y22676D01*
X311810Y22743D01*
X311768Y22750D01*
X311728Y22762D01*
X311508Y22791D01*
X311288Y22827D01*
X311246Y22827D01*
X311204Y22832D01*
X310982Y22829D01*
X310759Y22830D01*
X310717Y22824D01*
X310676Y22823D01*
X310456Y22786D01*
X310236Y22754D01*
X310196Y22742D01*
X310154Y22735D01*
X309943Y22665D01*
X309730Y22600D01*
X309692Y22582D01*
X309652Y22569D01*
X309454Y22467D01*
X309253Y22371D01*
X309219Y22348D01*
X309181Y22329D01*
X309000Y22198D01*
X308816Y22073D01*
X308786Y22045D01*
X308752Y22021D01*
X308592Y21865D01*
X308429Y21713D01*
X308403Y21680D01*
X308373Y21651D01*
X308240Y21474D01*
X308101Y21299D01*
X308080Y21262D01*
X308055Y21229D01*
X307949Y21033D01*
X307839Y20840D01*
X307824Y20801D01*
X307804Y20764D01*
X307729Y20554D01*
X307649Y20346D01*
X307640Y20305D01*
X307626Y20266D01*
X307583Y20047D01*
X307535Y19830D01*
X307533Y19788D01*
X307525Y19747D01*
X307501Y19339D01*
X307501Y16737D01*
X307364Y16228D01*
X307055Y15692D01*
X307021Y15655D01*
X306993Y15612D01*
X306959Y15574D01*
X306846Y15393D01*
X306728Y15215D01*
X306706Y15169D01*
X306679Y15125D01*
X306595Y14929D01*
X306504Y14736D01*
X306490Y14687D01*
X306470Y14640D01*
X306416Y14434D01*
X306355Y14228D01*
X306349Y14178D01*
X306336Y14128D01*
X306313Y13916D01*
X306285Y13704D01*
X306286Y13653D01*
X306280Y13603D01*
X306290Y13389D01*
X306294Y13176D01*
X306302Y13125D01*
X306305Y13074D01*
X306347Y12865D01*
X306383Y12654D01*
X306399Y12606D01*
X306409Y12556D01*
X306482Y12355D01*
X306549Y12152D01*
X306572Y12107D01*
X306589Y12059D01*
X306692Y11871D01*
X306789Y11681D01*
X306818Y11640D01*
X306843Y11595D01*
X306973Y11425D01*
X307097Y11252D01*
X307132Y11215D01*
X307163Y11175D01*
X307317Y11026D01*
X307466Y10873D01*
X307507Y10843D01*
X307543Y10807D01*
X307718Y10684D01*
X307888Y10555D01*
X307933Y10531D01*
X307975Y10501D01*
X308165Y10405D01*
X308353Y10304D01*
X308402Y10287D01*
X308447Y10264D01*
X308650Y10198D01*
X308851Y10126D01*
X308901Y10116D01*
X308950Y10100D01*
X309160Y10066D01*
X309370Y10025D01*
X309430Y10021D01*
X309471Y10014D01*
X309568Y10013D01*
X309778Y10001D01*
X565412Y10001D01*
X565518Y10009D01*
X565625Y10007D01*
X565781Y10029D01*
X565939Y10041D01*
X566043Y10065D01*
X566149Y10079D01*
X566300Y10124D01*
X566454Y10160D01*
X566553Y10199D01*
X566656Y10229D01*
X566798Y10296D01*
X566945Y10355D01*
X567038Y10409D01*
X567134Y10454D01*
X567265Y10542D01*
X567402Y10622D01*
X567485Y10689D01*
X567573Y10748D01*
X567690Y10855D01*
X567813Y10954D01*
X567885Y11033D01*
X567963Y11106D01*
X568062Y11229D01*
X568169Y11345D01*
X568228Y11434D01*
X568295Y11517D01*
X568374Y11654D01*
X568462Y11785D01*
X568507Y11882D01*
X568561Y11974D01*
X568618Y12121D01*
X568685Y12264D01*
X568716Y12367D01*
X568755Y12466D01*
X568790Y12620D01*
X568834Y12772D01*
X568848Y12878D01*
X568872Y12982D01*
X568884Y13139D01*
X568905Y13296D01*
X568903Y13402D01*
X568911Y13509D01*
X568898Y13667D01*
X568896Y13824D01*
X568878Y13930D01*
X568869Y14036D01*
X568834Y14190D01*
X568807Y14346D01*
X568773Y14447D01*
X568749Y14551D01*
X568691Y14697D01*
X568641Y14847D01*
X568592Y14943D01*
X568553Y15042D01*
X568473Y15178D01*
X568401Y15319D01*
X568339Y15405D01*
X568285Y15498D01*
X568185Y15620D01*
X568093Y15748D01*
X568018Y15825D01*
X567951Y15908D01*
X567834Y16014D01*
X567724Y16127D01*
X567638Y16191D01*
X567559Y16263D01*
X567427Y16350D01*
X567301Y16445D01*
X567207Y16496D01*
X567118Y16555D01*
X566921Y16650D01*
X566836Y16696D01*
X566799Y16709D01*
X566751Y16733D01*
X562352Y18555D01*
X558063Y22844D01*
X558062Y22845D01*
X528555Y52352D01*
X526499Y57314D01*
X526499Y83822D01*
X526499Y83827D01*
X526499Y83831D01*
X526479Y84093D01*
X526459Y84349D01*
X526458Y84354D01*
X526458Y84358D01*
X526399Y84609D01*
X526340Y84864D01*
X526339Y84869D01*
X526338Y84873D01*
X526241Y85114D01*
X526145Y85356D01*
X526143Y85360D01*
X526141Y85364D01*
X526010Y85588D01*
X525878Y85812D01*
X525875Y85816D01*
X525873Y85820D01*
X525712Y86018D01*
X525546Y86223D01*
X525542Y86226D01*
X525539Y86230D01*
X525353Y86399D01*
X525155Y86579D01*
X525151Y86582D01*
X525148Y86585D01*
X524933Y86727D01*
X524715Y86872D01*
X524711Y86874D01*
X524707Y86877D01*
X524339Y87055D01*
X519605Y89016D01*
X514434Y94187D01*
X511635Y100943D01*
X511635Y108257D01*
X514434Y115013D01*
X519677Y120257D01*
X519685Y120261D01*
X519714Y120281D01*
X519745Y120298D01*
X519929Y120434D01*
X520116Y120568D01*
X520141Y120592D01*
X520170Y120613D01*
X520331Y120776D01*
X520495Y120936D01*
X520517Y120964D01*
X520541Y120989D01*
X520676Y121175D01*
X520815Y121357D01*
X520831Y121388D01*
X520852Y121417D01*
X520958Y121621D01*
X521067Y121822D01*
X521079Y121855D01*
X521095Y121887D01*
X521169Y122104D01*
X521246Y122319D01*
X521253Y122354D01*
X521265Y122387D01*
X521305Y122613D01*
X521349Y122838D01*
X521351Y122873D01*
X521357Y122908D01*
X521362Y123137D01*
X521372Y123366D01*
X521368Y123401D01*
X521369Y123437D01*
X521340Y123664D01*
X521316Y123892D01*
X521306Y123926D01*
X521302Y123961D01*
X521239Y124181D01*
X521180Y124403D01*
X521166Y124435D01*
X521156Y124469D01*
X520993Y124844D01*
X520396Y126014D01*
X520238Y126501D01*
X538400Y126501D01*
X538562Y126513D01*
X538724Y126516D01*
X538825Y126533D01*
X538927Y126541D01*
X539085Y126577D01*
X539245Y126604D01*
X539343Y126636D01*
X539442Y126659D01*
X539593Y126719D01*
X539747Y126770D01*
X539838Y126817D01*
X539933Y126855D01*
X540074Y126937D01*
X540218Y127010D01*
X540301Y127070D01*
X540390Y127122D01*
X540516Y127224D01*
X540648Y127318D01*
X540721Y127390D01*
X540801Y127454D01*
X540910Y127575D01*
X541026Y127688D01*
X541088Y127769D01*
X541157Y127845D01*
X541247Y127980D01*
X541345Y128110D01*
X541393Y128200D01*
X541450Y128285D01*
X541519Y128432D01*
X541596Y128575D01*
X541630Y128672D01*
X541674Y128764D01*
X541719Y128920D01*
X541774Y129073D01*
X541794Y129173D01*
X541822Y129272D01*
X541844Y129432D01*
X541875Y129592D01*
X541882Y129717D01*
X541893Y129796D01*
X541892Y129875D01*
X541899Y130000D01*
X541887Y130162D01*
X541884Y130324D01*
X541867Y130425D01*
X541859Y130527D01*
X541822Y130685D01*
X541795Y130846D01*
X541763Y130943D01*
X541740Y131043D01*
X541680Y131193D01*
X541629Y131348D01*
X541583Y131439D01*
X541545Y131534D01*
X541463Y131674D01*
X541389Y131819D01*
X541330Y131902D01*
X541278Y131990D01*
X541175Y132117D01*
X541081Y132248D01*
X541010Y132321D01*
X540945Y132401D01*
X540825Y132511D01*
X540712Y132627D01*
X540630Y132688D01*
X540554Y132757D01*
X540419Y132847D01*
X540290Y132945D01*
X540200Y132994D01*
X540114Y133050D01*
X539967Y133119D01*
X539824Y133196D01*
X539728Y133231D01*
X539635Y133274D01*
X539479Y133320D01*
X539327Y133374D01*
X539226Y133394D01*
X539128Y133423D01*
X538967Y133444D01*
X538808Y133476D01*
X538682Y133483D01*
X538604Y133493D01*
X538525Y133492D01*
X538400Y133499D01*
X520238Y133499D01*
X520396Y133986D01*
X520993Y135156D01*
X521006Y135189D01*
X521024Y135220D01*
X521108Y135433D01*
X521196Y135644D01*
X521205Y135679D01*
X521218Y135712D01*
X521269Y135935D01*
X521324Y136157D01*
X521327Y136192D01*
X521335Y136227D01*
X521352Y136456D01*
X521373Y136684D01*
X521371Y136719D01*
X521374Y136754D01*
X521356Y136983D01*
X521343Y137212D01*
X521335Y137246D01*
X521333Y137282D01*
X521281Y137504D01*
X521233Y137729D01*
X521220Y137762D01*
X521212Y137796D01*
X521127Y138009D01*
X521046Y138223D01*
X521029Y138254D01*
X521016Y138287D01*
X520900Y138484D01*
X520787Y138684D01*
X520766Y138712D01*
X520748Y138743D01*
X520603Y138921D01*
X520462Y139101D01*
X520436Y139125D01*
X520414Y139153D01*
X520243Y139307D01*
X520077Y139464D01*
X520048Y139484D01*
X520022Y139508D01*
X519831Y139635D01*
X519686Y139735D01*
X514434Y144987D01*
X511635Y151743D01*
X511635Y159057D01*
X514434Y165813D01*
X519605Y170984D01*
X526361Y173783D01*
X543000Y173783D01*
X543162Y173795D01*
X543324Y173798D01*
X543425Y173815D01*
X543527Y173823D01*
X543685Y173859D01*
X543846Y173886D01*
X543943Y173919D01*
X544042Y173942D01*
X544193Y174001D01*
X544348Y174053D01*
X544439Y174099D01*
X544534Y174137D01*
X544674Y174219D01*
X544819Y174292D01*
X544902Y174352D01*
X544990Y174404D01*
X545117Y174506D01*
X545248Y174601D01*
X545321Y174672D01*
X545401Y174736D01*
X545511Y174857D01*
X545627Y174970D01*
X545688Y175052D01*
X545757Y175127D01*
X545847Y175262D01*
X545945Y175392D01*
X545994Y175482D01*
X546050Y175567D01*
X546119Y175714D01*
X546196Y175857D01*
X546231Y175954D01*
X546274Y176046D01*
X546320Y176202D01*
X546374Y176355D01*
X546394Y176456D01*
X546423Y176554D01*
X546444Y176714D01*
X546475Y176874D01*
X546483Y177000D01*
X546493Y177078D01*
X546492Y177157D01*
X546499Y177282D01*
X546499Y192686D01*
X548555Y197648D01*
X552352Y201445D01*
X557314Y203501D01*
X732686Y203501D01*
X737648Y201445D01*
X741445Y197648D01*
X743501Y192686D01*
X743501Y71042D01*
X743517Y70828D01*
X743527Y70616D01*
X743537Y70566D01*
X743541Y70514D01*
X743589Y70306D01*
X743631Y70097D01*
X743648Y70049D01*
X743660Y69999D01*
X743738Y69801D01*
X743811Y69600D01*
X743836Y69555D01*
X743855Y69508D01*
X743963Y69323D01*
X744065Y69136D01*
X744096Y69096D01*
X744122Y69051D01*
X744256Y68885D01*
X744385Y68716D01*
X744422Y68680D01*
X744454Y68641D01*
X744612Y68497D01*
X744766Y68349D01*
X744807Y68319D01*
X744845Y68284D01*
X745023Y68166D01*
X745197Y68043D01*
X745243Y68020D01*
X745285Y67991D01*
X745479Y67901D01*
X745669Y67805D01*
X745718Y67789D01*
X745764Y67768D01*
X745969Y67708D01*
X746172Y67642D01*
X746223Y67633D01*
X746272Y67619D01*
X746483Y67590D01*
X746694Y67556D01*
X746745Y67555D01*
X746796Y67548D01*
X747009Y67552D01*
X747222Y67549D01*
X747273Y67557D01*
X747324Y67557D01*
X747535Y67593D01*
X747746Y67623D01*
X747795Y67637D01*
X747846Y67646D01*
X748048Y67713D01*
X748253Y67774D01*
X748299Y67796D01*
X748347Y67812D01*
X748538Y67909D01*
X748731Y68000D01*
X748773Y68029D01*
X748819Y68052D01*
X748991Y68176D01*
X749169Y68296D01*
X749214Y68335D01*
X749248Y68360D01*
X749317Y68427D01*
X749474Y68567D01*
X805474Y124567D01*
X805547Y124652D01*
X805627Y124730D01*
X805719Y124852D01*
X805819Y124968D01*
X805878Y125063D01*
X805945Y125152D01*
X806018Y125287D01*
X806099Y125417D01*
X806143Y125519D01*
X806196Y125617D01*
X806248Y125762D01*
X806309Y125902D01*
X806337Y126010D01*
X806374Y126115D01*
X806404Y126265D01*
X806442Y126414D01*
X806454Y126524D01*
X806475Y126634D01*
X806488Y126844D01*
X806498Y126939D01*
X806496Y126982D01*
X806499Y127042D01*
X806499Y201500D01*
X806487Y201662D01*
X806484Y201824D01*
X806467Y201925D01*
X806459Y202027D01*
X806423Y202185D01*
X806396Y202346D01*
X806363Y202443D01*
X806340Y202542D01*
X806281Y202693D01*
X806229Y202848D01*
X806183Y202939D01*
X806145Y203034D01*
X806063Y203174D01*
X805990Y203319D01*
X805930Y203402D01*
X805878Y203490D01*
X805776Y203617D01*
X805681Y203748D01*
X805610Y203821D01*
X805546Y203901D01*
X805425Y204011D01*
X805312Y204127D01*
X805230Y204188D01*
X805155Y204257D01*
X805020Y204347D01*
X804890Y204445D01*
X804800Y204494D01*
X804715Y204550D01*
X804568Y204619D01*
X804425Y204696D01*
X804328Y204731D01*
X804236Y204774D01*
X804080Y204820D01*
X803927Y204874D01*
X803826Y204894D01*
X803728Y204923D01*
X803568Y204944D01*
X803499Y204958D01*
X803499Y210000D01*
X803499Y215039D01*
X803527Y215041D01*
X803685Y215077D01*
X803846Y215104D01*
X803943Y215137D01*
X804042Y215160D01*
X804193Y215219D01*
X804348Y215271D01*
X804439Y215317D01*
X804534Y215355D01*
X804674Y215437D01*
X804819Y215510D01*
X804902Y215570D01*
X804990Y215622D01*
X805117Y215724D01*
X805248Y215819D01*
X805321Y215890D01*
X805401Y215954D01*
X805511Y216075D01*
X805627Y216188D01*
X805688Y216270D01*
X805757Y216345D01*
X805847Y216480D01*
X805945Y216610D01*
X805994Y216700D01*
X806050Y216785D01*
X806119Y216932D01*
X806196Y217075D01*
X806231Y217172D01*
X806274Y217264D01*
X806320Y217420D01*
X806374Y217573D01*
X806394Y217674D01*
X806423Y217772D01*
X806444Y217932D01*
X806475Y218092D01*
X806483Y218218D01*
X806493Y218296D01*
X806492Y218375D01*
X806499Y218500D01*
X806499Y372958D01*
X806491Y373069D01*
X806492Y373181D01*
X806471Y373333D01*
X806459Y373486D01*
X806434Y373594D01*
X806419Y373704D01*
X806375Y373851D01*
X806340Y374001D01*
X806299Y374104D01*
X806267Y374211D01*
X806202Y374350D01*
X806145Y374492D01*
X806089Y374588D01*
X806041Y374689D01*
X805956Y374816D01*
X805878Y374948D01*
X805808Y375035D01*
X805746Y375127D01*
X805606Y375284D01*
X805546Y375359D01*
X805514Y375388D01*
X805474Y375433D01*
X703271Y477636D01*
X701215Y482599D01*
X701215Y505213D01*
X701203Y505375D01*
X701200Y505538D01*
X701183Y505638D01*
X701175Y505740D01*
X701139Y505899D01*
X701112Y506059D01*
X701079Y506156D01*
X701056Y506256D01*
X700997Y506406D01*
X700945Y506561D01*
X700899Y506652D01*
X700861Y506747D01*
X700779Y506887D01*
X700705Y507032D01*
X700646Y507115D01*
X700594Y507203D01*
X700492Y507330D01*
X700397Y507462D01*
X700326Y507535D01*
X700262Y507614D01*
X700141Y507724D01*
X700028Y507840D01*
X699946Y507901D01*
X699871Y507970D01*
X699736Y508060D01*
X699606Y508158D01*
X699516Y508207D01*
X699431Y508264D01*
X699284Y508332D01*
X699183Y508386D01*
X699183Y513713D01*
X699183Y513714D01*
X699183Y519042D01*
X699250Y519068D01*
X699390Y519150D01*
X699535Y519224D01*
X699618Y519283D01*
X699706Y519335D01*
X699833Y519437D01*
X699964Y519532D01*
X700037Y519603D01*
X700117Y519668D01*
X700227Y519788D01*
X700343Y519901D01*
X700404Y519983D01*
X700473Y520058D01*
X700563Y520194D01*
X700661Y520323D01*
X700710Y520413D01*
X700766Y520498D01*
X700835Y520646D01*
X700912Y520789D01*
X700947Y520885D01*
X700990Y520978D01*
X701036Y521133D01*
X701090Y521286D01*
X701110Y521387D01*
X701139Y521485D01*
X701160Y521646D01*
X701191Y521805D01*
X701199Y521931D01*
X701209Y522009D01*
X701208Y522088D01*
X701215Y522213D01*
X701215Y597401D01*
X703271Y602364D01*
X725474Y624567D01*
X725547Y624652D01*
X725627Y624730D01*
X725719Y624852D01*
X725819Y624968D01*
X725878Y625063D01*
X725945Y625152D01*
X726018Y625287D01*
X726099Y625417D01*
X726143Y625519D01*
X726196Y625617D01*
X726248Y625762D01*
X726309Y625902D01*
X726337Y626010D01*
X726374Y626115D01*
X726404Y626265D01*
X726442Y626414D01*
X726454Y626524D01*
X726475Y626634D01*
X726488Y626844D01*
X726498Y626939D01*
X726496Y626982D01*
X726499Y627042D01*
X726499Y681500D01*
X726487Y681662D01*
X726484Y681824D01*
X726467Y681925D01*
X726459Y682027D01*
X726423Y682185D01*
X726396Y682346D01*
X726363Y682443D01*
X726340Y682542D01*
X726281Y682693D01*
X726229Y682848D01*
X726183Y682939D01*
X726145Y683034D01*
X726063Y683174D01*
X725990Y683319D01*
X725930Y683402D01*
X725878Y683490D01*
X725776Y683617D01*
X725681Y683748D01*
X725610Y683821D01*
X725546Y683901D01*
X725425Y684011D01*
X725312Y684127D01*
X725230Y684188D01*
X725155Y684257D01*
X725020Y684347D01*
X724890Y684445D01*
X724800Y684494D01*
X724715Y684550D01*
X724568Y684619D01*
X724425Y684696D01*
X724328Y684731D01*
X724236Y684774D01*
X724080Y684820D01*
X723927Y684874D01*
X723826Y684894D01*
X723728Y684923D01*
X723568Y684944D01*
X723499Y684958D01*
X723499Y690000D01*
X723499Y695039D01*
X723527Y695041D01*
X723685Y695077D01*
X723846Y695104D01*
X723943Y695137D01*
X724042Y695160D01*
X724193Y695219D01*
X724348Y695271D01*
X724439Y695317D01*
X724534Y695355D01*
X724674Y695437D01*
X724819Y695510D01*
X724902Y695570D01*
X724990Y695622D01*
X725117Y695724D01*
X725248Y695819D01*
X725321Y695890D01*
X725401Y695954D01*
X725511Y696075D01*
X725627Y696188D01*
X725688Y696270D01*
X725757Y696345D01*
X725847Y696480D01*
X725945Y696610D01*
X725994Y696700D01*
X726050Y696785D01*
X726119Y696932D01*
X726196Y697075D01*
X726231Y697172D01*
X726274Y697264D01*
X726320Y697420D01*
X726374Y697573D01*
X726394Y697674D01*
X726423Y697772D01*
X726444Y697932D01*
X726475Y698092D01*
X726483Y698218D01*
X726493Y698296D01*
X726492Y698375D01*
X726499Y698500D01*
X726499Y712686D01*
X728555Y717648D01*
X747352Y736445D01*
X752314Y738501D01*
X787958Y738501D01*
X788069Y738509D01*
X788181Y738508D01*
X788333Y738529D01*
X788486Y738541D01*
X788594Y738566D01*
X788704Y738581D01*
X788851Y738625D01*
X789001Y738660D01*
X789104Y738701D01*
X789211Y738733D01*
X789350Y738798D01*
X789492Y738855D01*
X789588Y738911D01*
X789689Y738959D01*
X789816Y739044D01*
X789948Y739122D01*
X790035Y739192D01*
X790127Y739254D01*
X790284Y739394D01*
X790359Y739454D01*
X790388Y739486D01*
X790433Y739526D01*
X795474Y744567D01*
X795547Y744652D01*
X795627Y744730D01*
X795719Y744852D01*
X795819Y744968D01*
X795878Y745063D01*
X795945Y745152D01*
X796018Y745287D01*
X796099Y745417D01*
X796143Y745519D01*
X796196Y745617D01*
X796248Y745762D01*
X796309Y745902D01*
X796337Y746010D01*
X796374Y746115D01*
X796404Y746265D01*
X796442Y746414D01*
X796454Y746524D01*
X796475Y746634D01*
X796488Y746844D01*
X796498Y746939D01*
X796496Y746982D01*
X796499Y747042D01*
X796499Y761500D01*
X796487Y761662D01*
X796484Y761824D01*
X796467Y761925D01*
X796459Y762027D01*
X796423Y762185D01*
X796396Y762346D01*
X796363Y762443D01*
X796340Y762542D01*
X796281Y762693D01*
X796229Y762848D01*
X796183Y762939D01*
X796145Y763034D01*
X796063Y763174D01*
X795990Y763319D01*
X795930Y763402D01*
X795878Y763490D01*
X795776Y763617D01*
X795681Y763748D01*
X795610Y763821D01*
X795546Y763901D01*
X795425Y764011D01*
X795312Y764127D01*
X795230Y764188D01*
X795155Y764257D01*
X795020Y764347D01*
X794890Y764445D01*
X794800Y764494D01*
X794715Y764550D01*
X794568Y764619D01*
X794425Y764696D01*
X794328Y764731D01*
X794236Y764774D01*
X794080Y764820D01*
X793927Y764874D01*
X793826Y764894D01*
X793728Y764923D01*
X793568Y764944D01*
X793499Y764958D01*
X793499Y770000D01*
X793487Y770162D01*
X793484Y770324D01*
X793467Y770425D01*
X793459Y770527D01*
X793423Y770685D01*
X793396Y770845D01*
X793363Y770943D01*
X793341Y771042D01*
X793281Y771193D01*
X793230Y771347D01*
X793183Y771438D01*
X793145Y771533D01*
X793063Y771674D01*
X792990Y771818D01*
X792930Y771901D01*
X792878Y771990D01*
X792776Y772116D01*
X792682Y772248D01*
X792610Y772321D01*
X792546Y772401D01*
X792545Y772401D01*
X792425Y772511D01*
X792312Y772626D01*
X792312Y772627D01*
X792230Y772688D01*
X792154Y772757D01*
X792019Y772847D01*
X791890Y772945D01*
X791800Y772994D01*
X791714Y773050D01*
X791567Y773119D01*
X791424Y773196D01*
X791328Y773231D01*
X791235Y773274D01*
X791079Y773320D01*
X790927Y773374D01*
X790826Y773394D01*
X790728Y773423D01*
X790567Y773444D01*
X790408Y773476D01*
X790282Y773483D01*
X790204Y773493D01*
X790125Y773492D01*
X790000Y773499D01*
X784961Y773499D01*
X784959Y773527D01*
X784923Y773685D01*
X784896Y773846D01*
X784863Y773943D01*
X784840Y774042D01*
X784781Y774193D01*
X784729Y774348D01*
X784683Y774439D01*
X784645Y774534D01*
X784563Y774674D01*
X784490Y774819D01*
X784430Y774902D01*
X784378Y774990D01*
X784276Y775117D01*
X784181Y775248D01*
X784110Y775321D01*
X784046Y775401D01*
X783925Y775511D01*
X783812Y775627D01*
X783730Y775688D01*
X783655Y775757D01*
X783520Y775847D01*
X783390Y775945D01*
X783300Y775994D01*
X783215Y776050D01*
X783068Y776119D01*
X782925Y776196D01*
X782828Y776231D01*
X782736Y776274D01*
X782580Y776320D01*
X782427Y776374D01*
X782326Y776394D01*
X782228Y776423D01*
X782068Y776444D01*
X781908Y776475D01*
X781782Y776483D01*
X781704Y776493D01*
X781625Y776492D01*
X781500Y776499D01*
X518500Y776499D01*
X518338Y776487D01*
X518176Y776484D01*
X518075Y776467D01*
X517973Y776459D01*
X517815Y776423D01*
X517654Y776396D01*
X517557Y776363D01*
X517458Y776340D01*
X517307Y776281D01*
X517152Y776229D01*
X517061Y776183D01*
X516966Y776145D01*
X516826Y776063D01*
X516681Y775990D01*
X516598Y775930D01*
X516510Y775878D01*
X516383Y775776D01*
X516252Y775681D01*
X516179Y775610D01*
X516099Y775546D01*
X515989Y775425D01*
X515873Y775312D01*
X515812Y775230D01*
X515743Y775155D01*
X515653Y775020D01*
X515555Y774890D01*
X515506Y774800D01*
X515450Y774715D01*
X515381Y774568D01*
X515304Y774425D01*
X515269Y774328D01*
X515226Y774236D01*
X515180Y774080D01*
X515126Y773927D01*
X515106Y773826D01*
X515077Y773728D01*
X515056Y773568D01*
X515042Y773499D01*
X510000Y773499D01*
X504961Y773499D01*
X504959Y773527D01*
X504923Y773685D01*
X504896Y773846D01*
X504863Y773943D01*
X504840Y774042D01*
X504781Y774193D01*
X504729Y774348D01*
X504683Y774439D01*
X504645Y774534D01*
X504563Y774674D01*
X504490Y774819D01*
X504430Y774902D01*
X504378Y774990D01*
X504276Y775117D01*
X504181Y775248D01*
X504110Y775321D01*
X504046Y775401D01*
X503925Y775511D01*
X503812Y775627D01*
X503730Y775688D01*
X503655Y775757D01*
X503520Y775847D01*
X503390Y775945D01*
X503300Y775994D01*
X503215Y776050D01*
X503068Y776119D01*
X502925Y776196D01*
X502828Y776231D01*
X502736Y776274D01*
X502580Y776320D01*
X502427Y776374D01*
X502326Y776394D01*
X502228Y776423D01*
X502068Y776444D01*
X501908Y776475D01*
X501782Y776483D01*
X501704Y776493D01*
X501625Y776492D01*
X501500Y776499D01*
X227315Y776499D01*
X226751Y776733D01*
X226544Y776801D01*
X226338Y776874D01*
X226292Y776883D01*
X226248Y776898D01*
X226034Y776934D01*
X225819Y776975D01*
X225765Y776979D01*
X225727Y776985D01*
X225631Y776986D01*
X225411Y776999D01*
X224615Y776999D01*
X224052Y777562D01*
X223886Y777705D01*
X223725Y777851D01*
X223686Y777877D01*
X223651Y777907D01*
X223466Y778023D01*
X223284Y778143D01*
X223235Y778166D01*
X223202Y778187D01*
X223115Y778225D01*
X222916Y778321D01*
X222352Y778555D01*
X218555Y782352D01*
X218321Y782916D01*
X218223Y783111D01*
X218129Y783308D01*
X218103Y783347D01*
X218082Y783388D01*
X217956Y783566D01*
X217834Y783746D01*
X217798Y783787D01*
X217775Y783819D01*
X217708Y783888D01*
X217562Y784052D01*
X216999Y784615D01*
X216999Y785411D01*
X216983Y785629D01*
X216972Y785846D01*
X216963Y785892D01*
X216959Y785939D01*
X216910Y786151D01*
X216867Y786365D01*
X216849Y786416D01*
X216840Y786454D01*
X216805Y786543D01*
X216733Y786751D01*
X216499Y787315D01*
X216499Y792685D01*
X216733Y793249D01*
X216801Y793456D01*
X216874Y793662D01*
X216883Y793708D01*
X216898Y793752D01*
X216934Y793966D01*
X216975Y794181D01*
X216979Y794235D01*
X216985Y794273D01*
X216986Y794369D01*
X216999Y794589D01*
X216999Y795385D01*
X217562Y795948D01*
X217705Y796114D01*
X217851Y796275D01*
X217877Y796314D01*
X217907Y796349D01*
X218023Y796534D01*
X218143Y796716D01*
X218166Y796765D01*
X218187Y796798D01*
X218225Y796885D01*
X218321Y797084D01*
X218555Y797648D01*
X222352Y801445D01*
X222916Y801679D01*
X223111Y801777D01*
X223308Y801871D01*
X223347Y801897D01*
X223388Y801918D01*
X223566Y802044D01*
X223746Y802166D01*
X223787Y802202D01*
X223819Y802225D01*
X223888Y802292D01*
X224052Y802438D01*
X224615Y803001D01*
X225411Y803001D01*
X225629Y803017D01*
X225846Y803028D01*
X225892Y803037D01*
X225939Y803041D01*
X226151Y803090D01*
X226365Y803133D01*
X226416Y803151D01*
X226454Y803160D01*
X226543Y803195D01*
X226751Y803267D01*
X227315Y803501D01*
X421281Y803501D01*
X421494Y803517D01*
X421707Y803527D01*
X421757Y803537D01*
X421808Y803541D01*
X422016Y803589D01*
X422225Y803631D01*
X422273Y803648D01*
X422323Y803660D01*
X422521Y803738D01*
X422722Y803811D01*
X422767Y803836D01*
X422815Y803855D01*
X422999Y803963D01*
X423186Y804065D01*
X423227Y804096D01*
X423271Y804122D01*
X423437Y804256D01*
X423606Y804385D01*
X423642Y804422D01*
X423682Y804454D01*
X423826Y804613D01*
X423974Y804766D01*
X424003Y804807D01*
X424038Y804845D01*
X424156Y805023D01*
X424280Y805197D01*
X424303Y805243D01*
X424331Y805285D01*
X424421Y805479D01*
X424517Y805669D01*
X424533Y805718D01*
X424555Y805764D01*
X424615Y805969D01*
X424681Y806172D01*
X424689Y806223D01*
X424703Y806272D01*
X424732Y806483D01*
X424767Y806694D01*
X424767Y806745D01*
X424774Y806796D01*
X424770Y807010D01*
X424773Y807222D01*
X424766Y807273D01*
X424765Y807324D01*
X424729Y807535D01*
X424700Y807746D01*
X424685Y807795D01*
X424676Y807846D01*
X424609Y808048D01*
X424548Y808253D01*
X424526Y808299D01*
X424510Y808347D01*
X424413Y808538D01*
X424322Y808731D01*
X424293Y808773D01*
X424270Y808819D01*
X424146Y808991D01*
X424027Y809169D01*
X423987Y809214D01*
X423962Y809248D01*
X423895Y809317D01*
X423755Y809474D01*
X419194Y814035D01*
X415771Y819964D01*
X413999Y826577D01*
X413999Y833423D01*
X415771Y840036D01*
X419194Y845965D01*
X424035Y850806D01*
X429964Y854229D01*
X436577Y856001D01*
X443423Y856001D01*
X450036Y854229D01*
X455965Y850806D01*
X460806Y845965D01*
X464229Y840036D01*
X466001Y833423D01*
X466001Y826577D01*
X464229Y819964D01*
X460806Y814035D01*
X456245Y809474D01*
X456106Y809313D01*
X455962Y809155D01*
X455934Y809112D01*
X455900Y809073D01*
X455787Y808892D01*
X455669Y808715D01*
X455647Y808668D01*
X455620Y808625D01*
X455536Y808429D01*
X455445Y808236D01*
X455431Y808186D01*
X455411Y808139D01*
X455357Y807933D01*
X455297Y807728D01*
X455290Y807678D01*
X455277Y807628D01*
X455254Y807416D01*
X455226Y807204D01*
X455227Y807153D01*
X455221Y807102D01*
X455231Y806889D01*
X455235Y806676D01*
X455244Y806625D01*
X455246Y806574D01*
X455288Y806365D01*
X455324Y806154D01*
X455340Y806106D01*
X455350Y806056D01*
X455423Y805856D01*
X455490Y805652D01*
X455513Y805607D01*
X455531Y805559D01*
X455633Y805372D01*
X455730Y805181D01*
X455760Y805140D01*
X455784Y805095D01*
X455914Y804925D01*
X456038Y804752D01*
X456074Y804715D01*
X456105Y804674D01*
X456259Y804526D01*
X456407Y804373D01*
X456448Y804343D01*
X456485Y804307D01*
X456659Y804184D01*
X456829Y804055D01*
X456874Y804031D01*
X456916Y804001D01*
X457106Y803905D01*
X457295Y803804D01*
X457343Y803787D01*
X457389Y803764D01*
X457591Y803698D01*
X457792Y803626D01*
X457843Y803616D01*
X457891Y803600D01*
X458102Y803565D01*
X458311Y803525D01*
X458371Y803521D01*
X458413Y803514D01*
X458509Y803513D01*
X458719Y803501D01*
X699766Y803501D01*
X699979Y803517D01*
X700192Y803527D01*
X700242Y803537D01*
X700293Y803541D01*
X700501Y803589D01*
X700710Y803631D01*
X700759Y803648D01*
X700808Y803660D01*
X701007Y803738D01*
X701207Y803811D01*
X701252Y803836D01*
X701300Y803855D01*
X701484Y803963D01*
X701671Y804065D01*
X701712Y804096D01*
X701756Y804122D01*
X701922Y804256D01*
X702092Y804385D01*
X702127Y804422D01*
X702167Y804454D01*
X702311Y804612D01*
X702459Y804766D01*
X702489Y804807D01*
X702523Y804845D01*
X702641Y805023D01*
X702765Y805197D01*
X702788Y805243D01*
X702816Y805285D01*
X702907Y805479D01*
X703002Y805669D01*
X703018Y805718D01*
X703040Y805764D01*
X703100Y805969D01*
X703166Y806172D01*
X703174Y806223D01*
X703189Y806272D01*
X703217Y806483D01*
X703252Y806694D01*
X703252Y806745D01*
X703259Y806796D01*
X703256Y807010D01*
X703258Y807222D01*
X703251Y807273D01*
X703250Y807324D01*
X703214Y807535D01*
X703185Y807746D01*
X703170Y807795D01*
X703162Y807846D01*
X703094Y808048D01*
X703033Y808253D01*
X703012Y808299D01*
X702995Y808347D01*
X702899Y808538D01*
X702807Y808731D01*
X702779Y808773D01*
X702756Y808819D01*
X702632Y808991D01*
X702512Y809169D01*
X702472Y809214D01*
X702447Y809248D01*
X702380Y809317D01*
X702240Y809474D01*
X698044Y813671D01*
X694999Y821022D01*
X694999Y828978D01*
X698044Y836329D01*
X703671Y841956D01*
X711022Y845001D01*
X718978Y845001D01*
X726161Y842026D01*
X726267Y841991D01*
X726369Y841947D01*
X726518Y841909D01*
X726663Y841861D01*
X726773Y841842D01*
X726881Y841814D01*
X727033Y841799D01*
X727185Y841773D01*
X727296Y841772D01*
X727407Y841761D01*
X727560Y841768D01*
X727713Y841766D01*
X727824Y841781D01*
X727935Y841786D01*
X728085Y841817D01*
X728237Y841838D01*
X728344Y841869D01*
X728453Y841892D01*
X728651Y841960D01*
X728744Y841988D01*
X728783Y842006D01*
X728839Y842026D01*
X736022Y845001D01*
X743978Y845001D01*
X751329Y841956D01*
X756456Y836829D01*
X756538Y836759D01*
X756599Y836696D01*
X756623Y836678D01*
X756665Y836636D01*
X756764Y836564D01*
X756857Y836485D01*
X756978Y836409D01*
X757093Y836325D01*
X757202Y836269D01*
X757306Y836204D01*
X757436Y836148D01*
X757563Y836083D01*
X757679Y836043D01*
X757791Y835995D01*
X757929Y835959D01*
X758064Y835913D01*
X758184Y835892D01*
X758303Y835861D01*
X758444Y835846D01*
X758584Y835821D01*
X758707Y835818D01*
X758828Y835806D01*
X758970Y835812D01*
X759113Y835809D01*
X759234Y835825D01*
X759356Y835830D01*
X759496Y835858D01*
X759637Y835876D01*
X759755Y835910D01*
X759875Y835934D01*
X760003Y835981D01*
X760011Y835983D01*
X760019Y835986D01*
X760146Y836022D01*
X760288Y836084D01*
X760364Y836112D01*
X761501Y836481D01*
X761501Y825000D01*
X761501Y813519D01*
X760326Y813900D01*
X760261Y813933D01*
X760144Y813971D01*
X760031Y814018D01*
X759894Y814052D01*
X759758Y814096D01*
X759637Y814116D01*
X759518Y814146D01*
X759377Y814159D01*
X759237Y814182D01*
X759114Y814184D01*
X758992Y814195D01*
X758850Y814187D01*
X758708Y814189D01*
X758587Y814172D01*
X758464Y814165D01*
X758325Y814135D01*
X758184Y814115D01*
X758067Y814080D01*
X757947Y814055D01*
X757814Y814005D01*
X757678Y813964D01*
X757567Y813911D01*
X757452Y813868D01*
X757328Y813799D01*
X757200Y813738D01*
X757098Y813669D01*
X756991Y813609D01*
X756879Y813522D01*
X756761Y813442D01*
X756645Y813339D01*
X756574Y813284D01*
X756529Y813236D01*
X756456Y813171D01*
X752760Y809474D01*
X752621Y809313D01*
X752477Y809155D01*
X752448Y809112D01*
X752415Y809073D01*
X752302Y808892D01*
X752184Y808715D01*
X752162Y808668D01*
X752135Y808625D01*
X752050Y808429D01*
X751960Y808236D01*
X751946Y808186D01*
X751925Y808139D01*
X751871Y807933D01*
X751811Y807728D01*
X751804Y807678D01*
X751792Y807628D01*
X751769Y807416D01*
X751741Y807204D01*
X751742Y807153D01*
X751736Y807102D01*
X751746Y806889D01*
X751750Y806676D01*
X751758Y806625D01*
X751761Y806574D01*
X751803Y806365D01*
X751838Y806154D01*
X751855Y806106D01*
X751865Y806056D01*
X751937Y805856D01*
X752005Y805652D01*
X752028Y805607D01*
X752045Y805559D01*
X752148Y805372D01*
X752244Y805181D01*
X752274Y805140D01*
X752299Y805095D01*
X752428Y804925D01*
X752553Y804752D01*
X752588Y804715D01*
X752619Y804674D01*
X752773Y804526D01*
X752922Y804373D01*
X752963Y804343D01*
X753000Y804307D01*
X753174Y804183D01*
X753344Y804055D01*
X753389Y804031D01*
X753431Y804001D01*
X753621Y803905D01*
X753809Y803804D01*
X753858Y803787D01*
X753903Y803764D01*
X754106Y803698D01*
X754307Y803626D01*
X754357Y803616D01*
X754406Y803600D01*
X754616Y803565D01*
X754826Y803525D01*
X754886Y803521D01*
X754928Y803514D01*
X755024Y803513D01*
X755234Y803501D01*
X802686Y803501D01*
X807648Y801445D01*
X821445Y787648D01*
X823501Y782686D01*
X823501Y737314D01*
X821445Y732352D01*
X802648Y713555D01*
X797686Y711499D01*
X762042Y711499D01*
X761931Y711491D01*
X761819Y711492D01*
X761667Y711471D01*
X761514Y711459D01*
X761406Y711434D01*
X761296Y711419D01*
X761149Y711375D01*
X760999Y711340D01*
X760896Y711299D01*
X760789Y711267D01*
X760650Y711202D01*
X760508Y711145D01*
X760412Y711089D01*
X760311Y711041D01*
X760184Y710956D01*
X760052Y710878D01*
X759965Y710808D01*
X759873Y710746D01*
X759716Y710606D01*
X759641Y710546D01*
X759612Y710514D01*
X759567Y710474D01*
X754526Y705433D01*
X754453Y705348D01*
X754373Y705270D01*
X754281Y705148D01*
X754181Y705032D01*
X754122Y704937D01*
X754055Y704848D01*
X753982Y704713D01*
X753901Y704583D01*
X753857Y704481D01*
X753804Y704383D01*
X753752Y704238D01*
X753691Y704098D01*
X753663Y703990D01*
X753626Y703885D01*
X753596Y703735D01*
X753558Y703586D01*
X753546Y703476D01*
X753525Y703366D01*
X753512Y703156D01*
X753502Y703061D01*
X753504Y703018D01*
X753501Y702958D01*
X753501Y617314D01*
X751445Y612352D01*
X729242Y590149D01*
X729169Y590064D01*
X729089Y589986D01*
X728997Y589864D01*
X728897Y589748D01*
X728838Y589653D01*
X728771Y589564D01*
X728698Y589429D01*
X728617Y589299D01*
X728573Y589197D01*
X728520Y589099D01*
X728468Y588954D01*
X728407Y588814D01*
X728379Y588706D01*
X728342Y588601D01*
X728312Y588451D01*
X728274Y588302D01*
X728262Y588192D01*
X728241Y588082D01*
X728228Y587872D01*
X728218Y587777D01*
X728220Y587734D01*
X728217Y587674D01*
X728217Y492326D01*
X728225Y492215D01*
X728224Y492103D01*
X728245Y491951D01*
X728257Y491798D01*
X728282Y491690D01*
X728297Y491580D01*
X728341Y491433D01*
X728376Y491283D01*
X728417Y491180D01*
X728449Y491073D01*
X728514Y490934D01*
X728571Y490792D01*
X728627Y490696D01*
X728675Y490595D01*
X728760Y490468D01*
X728838Y490336D01*
X728908Y490249D01*
X728970Y490157D01*
X729110Y490000D01*
X729170Y489925D01*
X729202Y489896D01*
X729242Y489851D01*
X831445Y387648D01*
X833501Y382686D01*
X833501Y117314D01*
X831445Y112352D01*
X737648Y18555D01*
X733249Y16733D01*
X733154Y16685D01*
X733055Y16645D01*
X732918Y16566D01*
X732778Y16494D01*
X732691Y16432D01*
X732598Y16378D01*
X732476Y16279D01*
X732347Y16187D01*
X732271Y16113D01*
X732187Y16046D01*
X732081Y15929D01*
X731968Y15819D01*
X731903Y15734D01*
X731831Y15655D01*
X731744Y15524D01*
X731648Y15398D01*
X731597Y15304D01*
X731538Y15215D01*
X731471Y15072D01*
X731396Y14933D01*
X731360Y14833D01*
X731315Y14736D01*
X731270Y14584D01*
X731217Y14436D01*
X731196Y14331D01*
X731166Y14228D01*
X731145Y14072D01*
X731114Y13917D01*
X731109Y13810D01*
X731095Y13704D01*
X731098Y13546D01*
X731091Y13389D01*
X731102Y13283D01*
X731104Y13176D01*
X731131Y13020D01*
X731148Y12863D01*
X731175Y12760D01*
X731193Y12654D01*
X731243Y12504D01*
X731283Y12352D01*
X731325Y12254D01*
X731359Y12152D01*
X731431Y12012D01*
X731494Y11867D01*
X731551Y11776D01*
X731599Y11681D01*
X731691Y11553D01*
X731775Y11419D01*
X731845Y11338D01*
X731907Y11252D01*
X732017Y11139D01*
X732121Y11019D01*
X732202Y10950D01*
X732276Y10873D01*
X732402Y10778D01*
X732522Y10676D01*
X732613Y10619D01*
X732699Y10555D01*
X732838Y10480D01*
X732972Y10397D01*
X733070Y10355D01*
X733164Y10304D01*
X733313Y10251D01*
X733458Y10189D01*
X733561Y10162D01*
X733662Y10126D01*
X733817Y10096D01*
X733969Y10056D01*
X734076Y10045D01*
X734181Y10025D01*
X734400Y10012D01*
X734495Y10002D01*
X734534Y10004D01*
X734588Y10001D01*
X866500Y10001D01*
X866662Y10013D01*
X866824Y10016D01*
X866925Y10033D01*
X867027Y10041D01*
X867185Y10077D01*
X867346Y10104D01*
X867443Y10137D01*
X867542Y10160D01*
X867693Y10219D01*
X867848Y10271D01*
X867939Y10317D01*
X868034Y10355D01*
X868174Y10437D01*
X868319Y10510D01*
X868402Y10570D01*
X868490Y10622D01*
X868617Y10724D01*
X868748Y10819D01*
X868821Y10890D01*
X868901Y10954D01*
X869011Y11075D01*
X869127Y11188D01*
X869188Y11270D01*
X869257Y11345D01*
X869347Y11480D01*
X869445Y11610D01*
X869494Y11700D01*
X869550Y11785D01*
X869619Y11932D01*
X869696Y12075D01*
X869731Y12172D01*
X869774Y12264D01*
X869820Y12420D01*
X869874Y12573D01*
X869894Y12674D01*
X869923Y12772D01*
X869944Y12932D01*
X869975Y13092D01*
X869983Y13218D01*
X869993Y13296D01*
X869992Y13375D01*
X869999Y13500D01*
X869999Y866500D01*
X869987Y866662D01*
X869984Y866824D01*
X869967Y866925D01*
X869959Y867027D01*
X869923Y867185D01*
X869896Y867346D01*
X869863Y867443D01*
X869840Y867542D01*
X869781Y867693D01*
X869729Y867848D01*
X869683Y867939D01*
X869645Y868034D01*
X869563Y868174D01*
X869490Y868319D01*
X869430Y868402D01*
X869378Y868490D01*
X869276Y868617D01*
X869181Y868748D01*
X869110Y868821D01*
X869046Y868901D01*
X868925Y869011D01*
X868812Y869127D01*
X868730Y869188D01*
X868655Y869257D01*
X868520Y869347D01*
X868390Y869445D01*
X868300Y869494D01*
X868215Y869550D01*
X868068Y869619D01*
X867925Y869696D01*
X867828Y869731D01*
X867736Y869774D01*
X867580Y869820D01*
X867427Y869874D01*
X867326Y869894D01*
X867228Y869923D01*
X867068Y869944D01*
X866908Y869975D01*
X866782Y869983D01*
X866704Y869993D01*
X866625Y869992D01*
X866500Y869999D01*
X13500Y869999D01*
X13338Y869987D01*
X13176Y869984D01*
X13075Y869967D01*
X12973Y869959D01*
X12815Y869923D01*
X12654Y869896D01*
X12557Y869863D01*
X12458Y869840D01*
X12307Y869781D01*
X12152Y869729D01*
X12061Y869683D01*
X11966Y869645D01*
X11826Y869563D01*
X11681Y869490D01*
X11598Y869430D01*
X11510Y869378D01*
X11383Y869276D01*
X11252Y869181D01*
X11179Y869110D01*
X11099Y869046D01*
X10989Y868925D01*
X10873Y868812D01*
X10812Y868730D01*
X10743Y868655D01*
X10653Y868520D01*
X10555Y868390D01*
X10506Y868300D01*
X10450Y868215D01*
X10381Y868068D01*
X10304Y867925D01*
X10269Y867828D01*
X10226Y867736D01*
X10180Y867580D01*
X10126Y867427D01*
X10106Y867326D01*
X10077Y867228D01*
X10056Y867068D01*
X10025Y866908D01*
X10017Y866782D01*
X10007Y866704D01*
X10008Y866625D01*
X10001Y866500D01*
X10001Y13500D01*
X10013Y13338D01*
X10016Y13176D01*
X10033Y13075D01*
X10041Y12973D01*
X10077Y12815D01*
X10104Y12654D01*
X10137Y12557D01*
X10160Y12458D01*
X10219Y12307D01*
X10271Y12152D01*
X10317Y12061D01*
X10355Y11966D01*
X10437Y11826D01*
X10510Y11681D01*
X10570Y11598D01*
X10622Y11510D01*
X10724Y11383D01*
X10819Y11252D01*
X10890Y11179D01*
X10954Y11099D01*
X11075Y10989D01*
X11188Y10873D01*
X11270Y10812D01*
X11345Y10743D01*
X11480Y10653D01*
X11610Y10555D01*
X11700Y10506D01*
X11785Y10450D01*
X11932Y10381D01*
X12075Y10304D01*
X12172Y10269D01*
X12264Y10226D01*
X12420Y10180D01*
X12573Y10126D01*
X12674Y10106D01*
X12772Y10077D01*
X12932Y10056D01*
X13092Y10025D01*
X13218Y10017D01*
X13296Y10007D01*
X13375Y10008D01*
X13500Y10001D01*
X106435Y10001D01*
X106648Y10017D01*
G37*
%LPC*%
G36*
X704611Y384499D02*
X704611Y384499D01*
X704555Y384547D01*
X704478Y384627D01*
X704355Y384719D01*
X704239Y384819D01*
X704144Y384878D01*
X704055Y384945D01*
X703920Y385018D01*
X703790Y385099D01*
X703688Y385143D01*
X703590Y385196D01*
X703446Y385248D01*
X703305Y385309D01*
X703197Y385337D01*
X703092Y385374D01*
X702942Y385404D01*
X702793Y385442D01*
X702683Y385454D01*
X702573Y385475D01*
X702363Y385488D01*
X702268Y385498D01*
X702225Y385496D01*
X702165Y385499D01*
X685113Y385499D01*
X680702Y387326D01*
X352054Y715974D01*
X351969Y716047D01*
X351892Y716127D01*
X351769Y716219D01*
X351653Y716319D01*
X351559Y716378D01*
X351470Y716445D01*
X351335Y716518D01*
X351205Y716599D01*
X351102Y716643D01*
X351004Y716696D01*
X350860Y716748D01*
X350719Y716809D01*
X350611Y716837D01*
X350507Y716874D01*
X350356Y716904D01*
X350208Y716942D01*
X350097Y716954D01*
X349988Y716975D01*
X349778Y716988D01*
X349682Y716998D01*
X349639Y716996D01*
X349617Y716997D01*
X341999Y724615D01*
X341999Y735385D01*
X349615Y743001D01*
X360385Y743001D01*
X362526Y740860D01*
X362649Y740754D01*
X362766Y740641D01*
X362849Y740582D01*
X362927Y740516D01*
X363064Y740430D01*
X363197Y740336D01*
X363288Y740290D01*
X363375Y740235D01*
X363524Y740171D01*
X363669Y740098D01*
X363766Y740067D01*
X363860Y740026D01*
X364018Y739985D01*
X364172Y739935D01*
X364273Y739918D01*
X364372Y739892D01*
X364534Y739875D01*
X364694Y739849D01*
X364796Y739847D01*
X364898Y739837D01*
X365060Y739844D01*
X365222Y739842D01*
X365324Y739857D01*
X365426Y739861D01*
X365585Y739893D01*
X365746Y739916D01*
X365844Y739945D01*
X365944Y739965D01*
X366097Y740021D01*
X366253Y740067D01*
X366345Y740111D01*
X366441Y740146D01*
X366584Y740224D01*
X366731Y740293D01*
X366815Y740350D01*
X366905Y740399D01*
X367034Y740498D01*
X367169Y740589D01*
X367263Y740672D01*
X367326Y740720D01*
X367381Y740777D01*
X367474Y740860D01*
X369615Y743001D01*
X380385Y743001D01*
X388004Y735382D01*
X388009Y735309D01*
X388008Y735198D01*
X388029Y735046D01*
X388041Y734893D01*
X388066Y734784D01*
X388081Y734674D01*
X388125Y734527D01*
X388160Y734378D01*
X388201Y734275D01*
X388233Y734168D01*
X388298Y734029D01*
X388355Y733887D01*
X388411Y733790D01*
X388459Y733690D01*
X388544Y733563D01*
X388622Y733430D01*
X388692Y733344D01*
X388754Y733251D01*
X388894Y733094D01*
X388954Y733019D01*
X388986Y732990D01*
X389026Y732946D01*
X691446Y430526D01*
X691531Y430453D01*
X691608Y430373D01*
X691731Y430281D01*
X691847Y430181D01*
X691941Y430122D01*
X692030Y430055D01*
X692165Y429982D01*
X692295Y429901D01*
X692398Y429857D01*
X692496Y429804D01*
X692640Y429752D01*
X692781Y429691D01*
X692889Y429663D01*
X692993Y429626D01*
X693144Y429596D01*
X693292Y429558D01*
X693403Y429546D01*
X693512Y429525D01*
X693722Y429512D01*
X693818Y429502D01*
X693861Y429504D01*
X693920Y429501D01*
X702165Y429501D01*
X702276Y429509D01*
X702388Y429508D01*
X702540Y429529D01*
X702693Y429541D01*
X702801Y429566D01*
X702912Y429581D01*
X703058Y429625D01*
X703208Y429660D01*
X703311Y429701D01*
X703418Y429733D01*
X703557Y429798D01*
X703699Y429855D01*
X703795Y429911D01*
X703896Y429959D01*
X704023Y430044D01*
X704156Y430122D01*
X704242Y430192D01*
X704335Y430254D01*
X704491Y430394D01*
X704567Y430454D01*
X704595Y430486D01*
X704612Y430501D01*
X715385Y430501D01*
X723001Y422885D01*
X723001Y412115D01*
X720860Y409974D01*
X720754Y409851D01*
X720641Y409734D01*
X720582Y409651D01*
X720516Y409573D01*
X720430Y409436D01*
X720336Y409303D01*
X720290Y409212D01*
X720235Y409125D01*
X720171Y408976D01*
X720098Y408831D01*
X720066Y408733D01*
X720026Y408639D01*
X719985Y408482D01*
X719935Y408328D01*
X719918Y408227D01*
X719892Y408128D01*
X719875Y407966D01*
X719849Y407806D01*
X719847Y407704D01*
X719837Y407602D01*
X719844Y407440D01*
X719842Y407278D01*
X719857Y407176D01*
X719861Y407074D01*
X719893Y406915D01*
X719916Y406754D01*
X719945Y406656D01*
X719965Y406556D01*
X720021Y406403D01*
X720067Y406247D01*
X720111Y406155D01*
X720146Y406059D01*
X720224Y405916D01*
X720293Y405769D01*
X720350Y405685D01*
X720399Y405595D01*
X720498Y405466D01*
X720589Y405331D01*
X720672Y405237D01*
X720720Y405174D01*
X720777Y405119D01*
X720860Y405026D01*
X723001Y402885D01*
X723001Y392115D01*
X715385Y384499D01*
X704611Y384499D01*
G37*
%LPD*%
%LPC*%
G36*
X561661Y681749D02*
X561661Y681749D01*
X557985Y683272D01*
X555172Y686085D01*
X553649Y689761D01*
X553649Y710239D01*
X555172Y713915D01*
X557985Y716728D01*
X561661Y718251D01*
X582139Y718251D01*
X586133Y716597D01*
X586234Y716533D01*
X586239Y716531D01*
X586243Y716529D01*
X586479Y716427D01*
X586720Y716324D01*
X586725Y716322D01*
X586729Y716320D01*
X586976Y716256D01*
X587231Y716190D01*
X587236Y716189D01*
X587241Y716188D01*
X587499Y716161D01*
X587757Y716134D01*
X587762Y716134D01*
X587767Y716134D01*
X588022Y716146D01*
X588285Y716158D01*
X588290Y716159D01*
X588295Y716160D01*
X588543Y716210D01*
X588804Y716262D01*
X588808Y716264D01*
X588813Y716265D01*
X589199Y716399D01*
X593670Y718251D01*
X600930Y718251D01*
X607669Y715459D01*
X607766Y715366D01*
X607849Y715307D01*
X607927Y715240D01*
X608064Y715154D01*
X608197Y715060D01*
X608288Y715014D01*
X608375Y714960D01*
X608524Y714896D01*
X608669Y714823D01*
X608766Y714791D01*
X608860Y714751D01*
X609017Y714709D01*
X609172Y714659D01*
X609273Y714643D01*
X609372Y714617D01*
X609534Y714600D01*
X609694Y714573D01*
X609796Y714572D01*
X609898Y714561D01*
X610060Y714569D01*
X610222Y714567D01*
X610324Y714581D01*
X610426Y714586D01*
X610585Y714618D01*
X610746Y714640D01*
X610844Y714670D01*
X610944Y714690D01*
X611097Y714745D01*
X611253Y714792D01*
X611345Y714836D01*
X611441Y714870D01*
X611584Y714948D01*
X611731Y715018D01*
X611815Y715075D01*
X611905Y715124D01*
X612034Y715222D01*
X612169Y715313D01*
X612263Y715397D01*
X612326Y715444D01*
X612346Y715466D01*
X619070Y718251D01*
X626330Y718251D01*
X633038Y715472D01*
X638225Y710286D01*
X638293Y710150D01*
X638314Y710121D01*
X638330Y710090D01*
X638467Y709906D01*
X638600Y709720D01*
X638625Y709694D01*
X638646Y709666D01*
X638809Y709505D01*
X638969Y709340D01*
X638997Y709319D01*
X639022Y709294D01*
X639207Y709160D01*
X639390Y709021D01*
X639421Y709004D01*
X639450Y708983D01*
X639653Y708878D01*
X639855Y708769D01*
X639888Y708757D01*
X639919Y708740D01*
X640137Y708667D01*
X640352Y708589D01*
X640387Y708582D01*
X640420Y708571D01*
X640646Y708531D01*
X640871Y708487D01*
X640906Y708485D01*
X640941Y708479D01*
X641170Y708473D01*
X641399Y708463D01*
X641434Y708467D01*
X641469Y708466D01*
X641698Y708496D01*
X641925Y708520D01*
X641959Y708529D01*
X641994Y708534D01*
X642215Y708597D01*
X642436Y708655D01*
X642468Y708669D01*
X642502Y708679D01*
X642876Y708843D01*
X644165Y709500D01*
X644601Y709641D01*
X644601Y700000D01*
X644601Y690359D01*
X644165Y690500D01*
X642876Y691157D01*
X642844Y691171D01*
X642813Y691188D01*
X642600Y691272D01*
X642388Y691361D01*
X642354Y691369D01*
X642321Y691382D01*
X642098Y691433D01*
X641875Y691489D01*
X641840Y691492D01*
X641806Y691500D01*
X641577Y691516D01*
X641349Y691538D01*
X641314Y691536D01*
X641279Y691538D01*
X641050Y691520D01*
X640821Y691507D01*
X640786Y691500D01*
X640751Y691497D01*
X640529Y691445D01*
X640304Y691397D01*
X640271Y691385D01*
X640237Y691377D01*
X640024Y691292D01*
X639809Y691211D01*
X639779Y691193D01*
X639746Y691180D01*
X639548Y691064D01*
X639348Y690952D01*
X639320Y690930D01*
X639290Y690912D01*
X639113Y690768D01*
X638932Y690626D01*
X638907Y690601D01*
X638880Y690578D01*
X638726Y690408D01*
X638569Y690242D01*
X638549Y690213D01*
X638525Y690187D01*
X638398Y689995D01*
X638268Y689807D01*
X638252Y689775D01*
X638233Y689746D01*
X638211Y689700D01*
X633038Y684528D01*
X626330Y681749D01*
X619070Y681749D01*
X612331Y684541D01*
X612234Y684634D01*
X612151Y684693D01*
X612073Y684760D01*
X611936Y684846D01*
X611803Y684940D01*
X611712Y684986D01*
X611625Y685040D01*
X611476Y685104D01*
X611331Y685177D01*
X611233Y685209D01*
X611139Y685249D01*
X610982Y685291D01*
X610828Y685341D01*
X610727Y685357D01*
X610628Y685383D01*
X610467Y685400D01*
X610306Y685427D01*
X610204Y685428D01*
X610102Y685439D01*
X609940Y685431D01*
X609777Y685433D01*
X609676Y685419D01*
X609574Y685414D01*
X609415Y685382D01*
X609254Y685360D01*
X609156Y685330D01*
X609056Y685310D01*
X608903Y685255D01*
X608747Y685208D01*
X608655Y685164D01*
X608559Y685130D01*
X608416Y685052D01*
X608269Y684982D01*
X608184Y684925D01*
X608095Y684876D01*
X607966Y684778D01*
X607831Y684687D01*
X607737Y684603D01*
X607674Y684555D01*
X607654Y684534D01*
X600930Y681749D01*
X593670Y681749D01*
X589199Y683601D01*
X589194Y683603D01*
X589190Y683605D01*
X588941Y683686D01*
X588697Y683766D01*
X588692Y683767D01*
X588687Y683768D01*
X588432Y683810D01*
X588175Y683853D01*
X588170Y683853D01*
X588165Y683854D01*
X587908Y683857D01*
X587647Y683861D01*
X587642Y683860D01*
X587637Y683860D01*
X587377Y683824D01*
X587123Y683789D01*
X587118Y683788D01*
X587113Y683787D01*
X586860Y683711D01*
X586616Y683639D01*
X586611Y683637D01*
X586607Y683635D01*
X586372Y683524D01*
X586137Y683414D01*
X586133Y683411D01*
X586129Y683409D01*
X586100Y683390D01*
X582139Y681749D01*
X561661Y681749D01*
G37*
%LPD*%
%LPC*%
G36*
X436577Y23999D02*
X436577Y23999D01*
X429964Y25771D01*
X424035Y29194D01*
X419194Y34035D01*
X415771Y39964D01*
X413999Y46577D01*
X413999Y53423D01*
X415771Y60036D01*
X419194Y65965D01*
X424035Y70806D01*
X429964Y74229D01*
X436577Y76001D01*
X443423Y76001D01*
X450036Y74229D01*
X455965Y70806D01*
X460806Y65965D01*
X464229Y60036D01*
X466001Y53423D01*
X466001Y46577D01*
X464229Y39964D01*
X460806Y34035D01*
X455965Y29194D01*
X450036Y25771D01*
X443423Y23999D01*
X436577Y23999D01*
G37*
%LPD*%
%LPC*%
G36*
X826577Y23999D02*
X826577Y23999D01*
X819964Y25771D01*
X814035Y29194D01*
X809194Y34035D01*
X805771Y39964D01*
X803999Y46577D01*
X803999Y53423D01*
X805771Y60036D01*
X809194Y65965D01*
X814035Y70806D01*
X819964Y74229D01*
X826577Y76001D01*
X833423Y76001D01*
X840036Y74229D01*
X845965Y70806D01*
X850806Y65965D01*
X854229Y60036D01*
X856001Y53423D01*
X856001Y46577D01*
X854229Y39964D01*
X850806Y34035D01*
X845965Y29194D01*
X840036Y25771D01*
X833423Y23999D01*
X826577Y23999D01*
G37*
%LPD*%
%LPC*%
G36*
X46577Y23999D02*
X46577Y23999D01*
X39964Y25771D01*
X34035Y29194D01*
X29194Y34035D01*
X25771Y39964D01*
X23999Y46577D01*
X23999Y53423D01*
X25771Y60036D01*
X29194Y65965D01*
X34035Y70806D01*
X39964Y74229D01*
X46577Y76001D01*
X53423Y76001D01*
X60036Y74229D01*
X65965Y70806D01*
X70806Y65965D01*
X74229Y60036D01*
X76001Y53423D01*
X76001Y46577D01*
X74229Y39964D01*
X70806Y34035D01*
X65965Y29194D01*
X60036Y25771D01*
X53423Y23999D01*
X46577Y23999D01*
G37*
%LPD*%
%LPC*%
G36*
X46577Y413999D02*
X46577Y413999D01*
X39964Y415771D01*
X34035Y419194D01*
X29194Y424035D01*
X25771Y429964D01*
X23999Y436577D01*
X23999Y443423D01*
X25771Y450036D01*
X29194Y455965D01*
X34035Y460806D01*
X39964Y464229D01*
X46577Y466001D01*
X53423Y466001D01*
X60036Y464229D01*
X65965Y460806D01*
X70806Y455965D01*
X74229Y450036D01*
X76001Y443423D01*
X76001Y436577D01*
X74229Y429964D01*
X70806Y424035D01*
X65965Y419194D01*
X60036Y415771D01*
X53423Y413999D01*
X46577Y413999D01*
G37*
%LPD*%
%LPC*%
G36*
X826577Y413999D02*
X826577Y413999D01*
X819964Y415771D01*
X814035Y419194D01*
X809194Y424035D01*
X805771Y429964D01*
X803999Y436577D01*
X803999Y443423D01*
X805771Y450036D01*
X809194Y455965D01*
X814035Y460806D01*
X819964Y464229D01*
X826577Y466001D01*
X833423Y466001D01*
X840036Y464229D01*
X845965Y460806D01*
X850806Y455965D01*
X854229Y450036D01*
X856001Y443423D01*
X856001Y436577D01*
X854229Y429964D01*
X850806Y424035D01*
X845965Y419194D01*
X840036Y415771D01*
X833423Y413999D01*
X826577Y413999D01*
G37*
%LPD*%
%LPC*%
G36*
X111519Y797869D02*
X111519Y797869D01*
X105087Y800534D01*
X100164Y805457D01*
X99851Y806212D01*
X99764Y806384D01*
X99684Y806559D01*
X99645Y806619D01*
X99612Y806684D01*
X99500Y806841D01*
X99395Y807002D01*
X99347Y807055D01*
X99305Y807115D01*
X99171Y807253D01*
X99043Y807396D01*
X98987Y807442D01*
X98937Y807494D01*
X98784Y807610D01*
X98635Y807732D01*
X98573Y807770D01*
X98515Y807813D01*
X98346Y807905D01*
X98181Y808004D01*
X98114Y808031D01*
X98051Y808066D01*
X97870Y808131D01*
X97692Y808204D01*
X97621Y808221D01*
X97553Y808245D01*
X97365Y808282D01*
X97178Y808327D01*
X97106Y808334D01*
X97035Y808348D01*
X96843Y808356D01*
X96651Y808372D01*
X96579Y808368D01*
X96506Y808371D01*
X96316Y808350D01*
X96124Y808337D01*
X96053Y808322D01*
X95981Y808314D01*
X95795Y808265D01*
X95607Y808223D01*
X95540Y808197D01*
X95470Y808179D01*
X95293Y808102D01*
X95114Y808033D01*
X95039Y807992D01*
X94985Y807968D01*
X94906Y807918D01*
X94756Y807836D01*
X92520Y806431D01*
X90218Y805323D01*
X88414Y804691D01*
X88414Y822955D01*
X88402Y823117D01*
X88399Y823279D01*
X88382Y823380D01*
X88374Y823482D01*
X88338Y823640D01*
X88310Y823801D01*
X88278Y823898D01*
X88255Y823997D01*
X88195Y824148D01*
X88144Y824303D01*
X88098Y824394D01*
X88060Y824489D01*
X87978Y824629D01*
X87904Y824774D01*
X87845Y824857D01*
X87793Y824945D01*
X87691Y825072D01*
X87596Y825203D01*
X87525Y825276D01*
X87460Y825356D01*
X87340Y825466D01*
X87227Y825582D01*
X87145Y825643D01*
X87070Y825712D01*
X86934Y825802D01*
X86805Y825900D01*
X86715Y825949D01*
X86630Y826005D01*
X86482Y826074D01*
X86339Y826151D01*
X86243Y826186D01*
X86150Y826229D01*
X85995Y826275D01*
X85842Y826329D01*
X85741Y826349D01*
X85661Y826372D01*
X85760Y826389D01*
X85858Y826422D01*
X85957Y826445D01*
X86108Y826504D01*
X86262Y826556D01*
X86353Y826602D01*
X86449Y826640D01*
X86589Y826722D01*
X86733Y826795D01*
X86816Y826855D01*
X86905Y826907D01*
X87031Y827009D01*
X87163Y827104D01*
X87236Y827175D01*
X87316Y827239D01*
X87425Y827360D01*
X87541Y827473D01*
X87603Y827555D01*
X87672Y827630D01*
X87762Y827765D01*
X87860Y827895D01*
X87908Y827985D01*
X87965Y828070D01*
X88034Y828217D01*
X88111Y828360D01*
X88145Y828457D01*
X88189Y828549D01*
X88234Y828705D01*
X88289Y828858D01*
X88309Y828959D01*
X88337Y829057D01*
X88359Y829217D01*
X88390Y829377D01*
X88398Y829502D01*
X88408Y829581D01*
X88407Y829660D01*
X88414Y829785D01*
X88414Y848049D01*
X90218Y847417D01*
X92520Y846309D01*
X94683Y844950D01*
X94752Y844895D01*
X94854Y844825D01*
X94951Y844747D01*
X95073Y844676D01*
X95189Y844597D01*
X95301Y844544D01*
X95408Y844481D01*
X95539Y844430D01*
X95666Y844369D01*
X95785Y844333D01*
X95900Y844287D01*
X96037Y844256D01*
X96172Y844215D01*
X96295Y844197D01*
X96416Y844170D01*
X96556Y844159D01*
X96695Y844139D01*
X96819Y844140D01*
X96943Y844131D01*
X97083Y844142D01*
X97224Y844143D01*
X97347Y844163D01*
X97470Y844172D01*
X97607Y844204D01*
X97746Y844227D01*
X97864Y844264D01*
X97985Y844293D01*
X98115Y844345D01*
X98249Y844388D01*
X98361Y844443D01*
X98476Y844489D01*
X98597Y844560D01*
X98723Y844623D01*
X98824Y844694D01*
X98932Y844757D01*
X99041Y844846D01*
X99156Y844927D01*
X99245Y845013D01*
X99342Y845091D01*
X99436Y845195D01*
X99538Y845292D01*
X99613Y845391D01*
X99697Y845483D01*
X99774Y845600D01*
X99860Y845711D01*
X99920Y845820D01*
X99989Y845924D01*
X100070Y846090D01*
X100116Y846174D01*
X100134Y846224D01*
X100163Y846282D01*
X105087Y851206D01*
X111519Y853871D01*
X118481Y853871D01*
X124913Y851206D01*
X129836Y846283D01*
X129906Y846115D01*
X129927Y846074D01*
X129942Y846031D01*
X130046Y845838D01*
X130145Y845643D01*
X130171Y845606D01*
X130193Y845566D01*
X130325Y845391D01*
X130452Y845213D01*
X130484Y845180D01*
X130511Y845143D01*
X130668Y844990D01*
X130820Y844833D01*
X130857Y844806D01*
X130889Y844774D01*
X131067Y844646D01*
X131241Y844514D01*
X131282Y844492D01*
X131319Y844465D01*
X131514Y844366D01*
X131706Y844262D01*
X131749Y844246D01*
X131790Y844225D01*
X131998Y844156D01*
X132203Y844082D01*
X132248Y844073D01*
X132292Y844059D01*
X132508Y844022D01*
X132722Y843980D01*
X132768Y843978D01*
X132813Y843970D01*
X133032Y843966D01*
X133250Y843957D01*
X133296Y843962D01*
X133342Y843961D01*
X133559Y843990D01*
X133776Y844013D01*
X133820Y844025D01*
X133866Y844031D01*
X134075Y844093D01*
X134287Y844149D01*
X134329Y844167D01*
X134373Y844180D01*
X134571Y844272D01*
X134772Y844359D01*
X134811Y844384D01*
X134852Y844403D01*
X134906Y844437D01*
X136353Y845175D01*
X136501Y845223D01*
X136501Y836370D01*
X136501Y827517D01*
X136353Y827565D01*
X135346Y828078D01*
X135267Y828112D01*
X135191Y828153D01*
X135023Y828213D01*
X134859Y828282D01*
X134775Y828303D01*
X134693Y828332D01*
X134519Y828367D01*
X134346Y828410D01*
X134259Y828418D01*
X134175Y828435D01*
X133997Y828442D01*
X133819Y828459D01*
X133733Y828454D01*
X133646Y828458D01*
X133470Y828439D01*
X133291Y828428D01*
X133207Y828410D01*
X133121Y828401D01*
X132949Y828356D01*
X132774Y828319D01*
X132693Y828288D01*
X132610Y828266D01*
X132446Y828195D01*
X132279Y828132D01*
X132204Y828090D01*
X132125Y828055D01*
X131974Y827960D01*
X131818Y827873D01*
X131750Y827820D01*
X131677Y827774D01*
X131542Y827657D01*
X131402Y827548D01*
X131342Y827485D01*
X131277Y827428D01*
X131161Y827293D01*
X131039Y827163D01*
X130990Y827092D01*
X130933Y827026D01*
X130839Y826875D01*
X130738Y826728D01*
X130700Y826651D01*
X130654Y826577D01*
X130584Y826413D01*
X130506Y826253D01*
X130480Y826171D01*
X130446Y826091D01*
X130402Y825919D01*
X130348Y825749D01*
X130335Y825663D01*
X130314Y825579D01*
X130295Y825402D01*
X130269Y825226D01*
X130269Y825139D01*
X130260Y825053D01*
X130268Y824876D01*
X130268Y824697D01*
X130281Y824612D01*
X130286Y824525D01*
X130321Y824351D01*
X130348Y824174D01*
X130374Y824092D01*
X130391Y824007D01*
X130480Y823749D01*
X130505Y823670D01*
X130515Y823649D01*
X130525Y823621D01*
X132501Y818851D01*
X132501Y811889D01*
X129836Y805457D01*
X124913Y800534D01*
X118481Y797869D01*
X111519Y797869D01*
G37*
%LPD*%
%LPC*%
G36*
X161519Y797869D02*
X161519Y797869D01*
X155087Y800534D01*
X150164Y805457D01*
X147499Y811889D01*
X147499Y818851D01*
X149475Y823621D01*
X149502Y823703D01*
X149537Y823782D01*
X149585Y823955D01*
X149640Y824124D01*
X149654Y824209D01*
X149677Y824292D01*
X149698Y824469D01*
X149727Y824645D01*
X149729Y824732D01*
X149739Y824817D01*
X149732Y824995D01*
X149735Y825174D01*
X149723Y825259D01*
X149720Y825346D01*
X149687Y825521D01*
X149663Y825698D01*
X149638Y825780D01*
X149622Y825865D01*
X149563Y826034D01*
X149513Y826205D01*
X149476Y826283D01*
X149448Y826364D01*
X149364Y826522D01*
X149288Y826683D01*
X149240Y826755D01*
X149199Y826831D01*
X149093Y826974D01*
X148994Y827122D01*
X148935Y827186D01*
X148884Y827255D01*
X148757Y827381D01*
X148637Y827512D01*
X148569Y827567D01*
X148508Y827627D01*
X148364Y827732D01*
X148225Y827844D01*
X148150Y827887D01*
X148080Y827938D01*
X147922Y828020D01*
X147768Y828110D01*
X147687Y828141D01*
X147611Y828181D01*
X147442Y828238D01*
X147276Y828303D01*
X147192Y828323D01*
X147110Y828350D01*
X146934Y828381D01*
X146760Y828421D01*
X146674Y828427D01*
X146589Y828442D01*
X146411Y828447D01*
X146233Y828460D01*
X146147Y828453D01*
X146061Y828455D01*
X145884Y828432D01*
X145706Y828418D01*
X145622Y828399D01*
X145536Y828388D01*
X145365Y828339D01*
X145191Y828298D01*
X145111Y828266D01*
X145028Y828242D01*
X144777Y828132D01*
X144700Y828102D01*
X144681Y828090D01*
X144654Y828078D01*
X143647Y827565D01*
X143499Y827517D01*
X143499Y836370D01*
X143499Y845223D01*
X143647Y845175D01*
X145158Y844405D01*
X145252Y844346D01*
X145295Y844328D01*
X145335Y844305D01*
X145538Y844225D01*
X145739Y844140D01*
X145784Y844128D01*
X145827Y844111D01*
X146039Y844063D01*
X146251Y844008D01*
X146297Y844004D01*
X146343Y843993D01*
X146560Y843977D01*
X146777Y843956D01*
X146824Y843958D01*
X146870Y843955D01*
X147088Y843972D01*
X147305Y843983D01*
X147351Y843993D01*
X147397Y843996D01*
X147609Y844046D01*
X147823Y844090D01*
X147867Y844106D01*
X147912Y844116D01*
X148114Y844197D01*
X148319Y844273D01*
X148360Y844296D01*
X148403Y844313D01*
X148590Y844423D01*
X148782Y844529D01*
X148818Y844557D01*
X148859Y844581D01*
X149028Y844719D01*
X149200Y844852D01*
X149232Y844885D01*
X149269Y844915D01*
X149415Y845076D01*
X149566Y845234D01*
X149592Y845272D01*
X149624Y845306D01*
X149744Y845489D01*
X149869Y845667D01*
X149890Y845708D01*
X149916Y845747D01*
X150094Y846115D01*
X150164Y846283D01*
X155087Y851206D01*
X161519Y853871D01*
X168481Y853871D01*
X174913Y851206D01*
X179838Y846282D01*
X179889Y846180D01*
X179936Y846065D01*
X180008Y845945D01*
X180072Y845820D01*
X180144Y845718D01*
X180208Y845612D01*
X180297Y845504D01*
X180379Y845389D01*
X180465Y845300D01*
X180544Y845204D01*
X180649Y845111D01*
X180747Y845010D01*
X180846Y844935D01*
X180939Y844852D01*
X181057Y844775D01*
X181168Y844690D01*
X181277Y844631D01*
X181382Y844563D01*
X181510Y844505D01*
X181633Y844438D01*
X181750Y844396D01*
X181863Y844344D01*
X181998Y844306D01*
X182130Y844259D01*
X182252Y844234D01*
X182372Y844201D01*
X182511Y844183D01*
X182649Y844156D01*
X182773Y844151D01*
X182896Y844135D01*
X183037Y844139D01*
X183177Y844133D01*
X183301Y844146D01*
X183425Y844150D01*
X183563Y844174D01*
X183703Y844190D01*
X183823Y844221D01*
X183945Y844243D01*
X184078Y844289D01*
X184214Y844325D01*
X184328Y844374D01*
X184446Y844415D01*
X184570Y844480D01*
X184699Y844535D01*
X184804Y844602D01*
X184914Y844659D01*
X185066Y844766D01*
X185147Y844817D01*
X185187Y844851D01*
X185248Y844895D01*
X185317Y844950D01*
X187480Y846309D01*
X189782Y847417D01*
X191586Y848049D01*
X191586Y829785D01*
X191598Y829623D01*
X191601Y829461D01*
X191618Y829360D01*
X191626Y829258D01*
X191662Y829100D01*
X191690Y828939D01*
X191722Y828842D01*
X191745Y828743D01*
X191805Y828592D01*
X191856Y828437D01*
X191902Y828346D01*
X191940Y828251D01*
X192022Y828111D01*
X192096Y827966D01*
X192155Y827883D01*
X192207Y827795D01*
X192309Y827668D01*
X192404Y827537D01*
X192475Y827464D01*
X192540Y827384D01*
X192660Y827274D01*
X192773Y827158D01*
X192855Y827097D01*
X192930Y827028D01*
X193066Y826938D01*
X193195Y826840D01*
X193285Y826791D01*
X193370Y826735D01*
X193518Y826666D01*
X193661Y826589D01*
X193757Y826554D01*
X193850Y826511D01*
X194005Y826465D01*
X194158Y826411D01*
X194259Y826391D01*
X194339Y826368D01*
X194240Y826351D01*
X194142Y826318D01*
X194043Y826295D01*
X193892Y826236D01*
X193738Y826184D01*
X193647Y826138D01*
X193551Y826100D01*
X193411Y826018D01*
X193267Y825945D01*
X193184Y825885D01*
X193095Y825833D01*
X192969Y825731D01*
X192837Y825636D01*
X192764Y825565D01*
X192684Y825501D01*
X192575Y825380D01*
X192459Y825267D01*
X192397Y825185D01*
X192328Y825110D01*
X192238Y824975D01*
X192140Y824845D01*
X192092Y824755D01*
X192035Y824670D01*
X191966Y824523D01*
X191889Y824380D01*
X191855Y824283D01*
X191811Y824191D01*
X191766Y824035D01*
X191711Y823882D01*
X191691Y823781D01*
X191663Y823683D01*
X191641Y823523D01*
X191610Y823363D01*
X191602Y823238D01*
X191592Y823159D01*
X191593Y823080D01*
X191586Y822955D01*
X191586Y804691D01*
X189782Y805323D01*
X187480Y806431D01*
X185244Y807836D01*
X185074Y807926D01*
X184908Y808022D01*
X184841Y808049D01*
X184776Y808083D01*
X184595Y808146D01*
X184416Y808216D01*
X184345Y808232D01*
X184277Y808256D01*
X184088Y808291D01*
X183900Y808334D01*
X183828Y808339D01*
X183757Y808352D01*
X183565Y808358D01*
X183373Y808372D01*
X183301Y808367D01*
X183229Y808369D01*
X183038Y808346D01*
X182846Y808331D01*
X182775Y808315D01*
X182704Y808306D01*
X182518Y808255D01*
X182331Y808211D01*
X182264Y808184D01*
X182194Y808165D01*
X182019Y808086D01*
X181840Y808014D01*
X181778Y807978D01*
X181712Y807948D01*
X181550Y807844D01*
X181385Y807746D01*
X181329Y807701D01*
X181268Y807661D01*
X181124Y807534D01*
X180975Y807412D01*
X180926Y807359D01*
X180872Y807311D01*
X180749Y807163D01*
X180620Y807021D01*
X180579Y806960D01*
X180533Y806905D01*
X180434Y806740D01*
X180328Y806580D01*
X180290Y806503D01*
X180260Y806452D01*
X180224Y806366D01*
X180149Y806212D01*
X179836Y805457D01*
X174913Y800534D01*
X168481Y797869D01*
X161519Y797869D01*
G37*
%LPD*%
G36*
X322561Y30649D02*
X322561Y30649D01*
X322562Y30649D01*
X324063Y31104D01*
X324063Y31105D01*
X324064Y31105D01*
X325447Y31844D01*
X325447Y31845D01*
X325448Y31844D01*
X326660Y32839D01*
X326660Y32840D01*
X326661Y32840D01*
X327656Y34052D01*
X327656Y34053D01*
X328395Y35436D01*
X328395Y35437D01*
X328396Y35437D01*
X328851Y36938D01*
X328851Y36939D01*
X329005Y38500D01*
X329005Y54500D01*
X329005Y54501D01*
X328851Y56061D01*
X328851Y56062D01*
X328396Y57563D01*
X328395Y57563D01*
X328395Y57564D01*
X327656Y58947D01*
X327656Y58948D01*
X326661Y60160D01*
X326660Y60160D01*
X326660Y60161D01*
X325448Y61156D01*
X325447Y61156D01*
X324064Y61895D01*
X324063Y61895D01*
X324063Y61896D01*
X322562Y62351D01*
X322561Y62351D01*
X321001Y62505D01*
X321000Y62505D01*
X319439Y62351D01*
X319438Y62351D01*
X317937Y61896D01*
X317937Y61895D01*
X317936Y61895D01*
X316553Y61156D01*
X316552Y61156D01*
X315340Y60161D01*
X315340Y60160D01*
X315339Y60160D01*
X314344Y58948D01*
X314344Y58947D01*
X313605Y57564D01*
X313605Y57563D01*
X313604Y57563D01*
X313149Y56062D01*
X313149Y56061D01*
X312995Y54501D01*
X312995Y54500D01*
X312995Y46750D01*
X312999Y46745D01*
X313000Y46745D01*
X318000Y46745D01*
X318005Y46749D01*
X318005Y46750D01*
X318005Y52000D01*
X318005Y52004D01*
X318006Y52004D01*
X318005Y52004D01*
X318008Y52024D01*
X318008Y52029D01*
X318009Y52034D01*
X318009Y52039D01*
X318010Y52044D01*
X318011Y52049D01*
X318011Y52054D01*
X318012Y52059D01*
X318012Y52064D01*
X318014Y52084D01*
X318015Y52089D01*
X318016Y52094D01*
X318016Y52098D01*
X318016Y52099D01*
X318017Y52103D01*
X318017Y52104D01*
X318017Y52108D01*
X318018Y52113D01*
X318018Y52118D01*
X318021Y52143D01*
X318022Y52148D01*
X318022Y52153D01*
X318023Y52158D01*
X318023Y52163D01*
X318024Y52168D01*
X318025Y52173D01*
X318025Y52178D01*
X318027Y52198D01*
X318028Y52203D01*
X318028Y52208D01*
X318029Y52213D01*
X318030Y52218D01*
X318030Y52223D01*
X318031Y52228D01*
X318031Y52233D01*
X318032Y52238D01*
X318034Y52257D01*
X318034Y52258D01*
X318035Y52262D01*
X318035Y52263D01*
X318035Y52267D01*
X318036Y52272D01*
X318036Y52277D01*
X318037Y52282D01*
X318037Y52287D01*
X318038Y52292D01*
X318039Y52297D01*
X318041Y52317D01*
X318041Y52322D01*
X318042Y52327D01*
X318042Y52332D01*
X318043Y52337D01*
X318044Y52342D01*
X318044Y52347D01*
X318045Y52352D01*
X318045Y52357D01*
X318047Y52377D01*
X318048Y52382D01*
X318049Y52387D01*
X318049Y52392D01*
X318050Y52397D01*
X318050Y52402D01*
X318051Y52407D01*
X318051Y52412D01*
X318052Y52416D01*
X318052Y52417D01*
X318054Y52436D01*
X318055Y52441D01*
X318055Y52446D01*
X318056Y52451D01*
X318056Y52456D01*
X318057Y52461D01*
X318058Y52466D01*
X318058Y52471D01*
X318061Y52496D01*
X318061Y52501D01*
X318062Y52506D01*
X318063Y52511D01*
X318063Y52516D01*
X318064Y52521D01*
X318064Y52526D01*
X318065Y52531D01*
X318068Y52556D01*
X318068Y52561D01*
X318069Y52566D01*
X318069Y52571D01*
X318070Y52575D01*
X318070Y52576D01*
X318070Y52580D01*
X318070Y52581D01*
X318071Y52585D01*
X318072Y52590D01*
X318074Y52610D01*
X318074Y52615D01*
X318075Y52620D01*
X318075Y52625D01*
X318076Y52630D01*
X318077Y52635D01*
X318077Y52640D01*
X318078Y52645D01*
X318078Y52650D01*
X318080Y52666D01*
X318302Y53300D01*
X318658Y53867D01*
X319133Y54342D01*
X319700Y54698D01*
X320334Y54920D01*
X321000Y54995D01*
X321666Y54920D01*
X322300Y54698D01*
X322867Y54342D01*
X323342Y53867D01*
X323698Y53300D01*
X323920Y52666D01*
X323995Y52000D01*
X323995Y41000D01*
X323994Y40990D01*
X323993Y40985D01*
X323993Y40980D01*
X323992Y40975D01*
X323992Y40970D01*
X323991Y40965D01*
X323990Y40960D01*
X323990Y40955D01*
X323987Y40930D01*
X323987Y40925D01*
X323986Y40920D01*
X323985Y40915D01*
X323985Y40910D01*
X323984Y40905D01*
X323984Y40900D01*
X323983Y40895D01*
X323981Y40875D01*
X323980Y40870D01*
X323980Y40865D01*
X323979Y40860D01*
X323979Y40856D01*
X323979Y40855D01*
X323978Y40851D01*
X323978Y40850D01*
X323978Y40846D01*
X323977Y40841D01*
X323976Y40836D01*
X323974Y40816D01*
X323974Y40811D01*
X323973Y40806D01*
X323973Y40801D01*
X323972Y40796D01*
X323971Y40791D01*
X323971Y40786D01*
X323970Y40781D01*
X323970Y40776D01*
X323968Y40756D01*
X323967Y40751D01*
X323966Y40746D01*
X323966Y40741D01*
X323965Y40736D01*
X323965Y40731D01*
X323964Y40726D01*
X323964Y40721D01*
X323963Y40716D01*
X323961Y40697D01*
X323961Y40696D01*
X323960Y40692D01*
X323960Y40691D01*
X323960Y40687D01*
X323959Y40682D01*
X323959Y40677D01*
X323958Y40672D01*
X323957Y40667D01*
X323957Y40662D01*
X323956Y40657D01*
X323954Y40637D01*
X323954Y40632D01*
X323953Y40627D01*
X323952Y40622D01*
X323952Y40617D01*
X323951Y40612D01*
X323951Y40607D01*
X323950Y40602D01*
X323947Y40577D01*
X323947Y40572D01*
X323946Y40567D01*
X323946Y40562D01*
X323945Y40557D01*
X323945Y40552D01*
X323944Y40547D01*
X323943Y40542D01*
X323941Y40518D01*
X323940Y40513D01*
X323940Y40508D01*
X323939Y40503D01*
X323938Y40498D01*
X323938Y40493D01*
X323937Y40488D01*
X323937Y40483D01*
X323935Y40463D01*
X323934Y40463D01*
X323934Y40458D01*
X323933Y40453D01*
X323933Y40448D01*
X323932Y40443D01*
X323932Y40438D01*
X323931Y40433D01*
X323931Y40428D01*
X323930Y40423D01*
X323928Y40403D01*
X323927Y40398D01*
X323927Y40393D01*
X323926Y40388D01*
X323926Y40383D01*
X323925Y40379D01*
X323925Y40378D01*
X323924Y40374D01*
X323924Y40373D01*
X323924Y40369D01*
X323923Y40364D01*
X323921Y40344D01*
X323921Y40339D01*
X323920Y40339D01*
X323921Y40339D01*
X323920Y40334D01*
X323698Y39700D01*
X323342Y39133D01*
X322867Y38658D01*
X322300Y38302D01*
X321666Y38080D01*
X321422Y38053D01*
X321377Y38048D01*
X321069Y38013D01*
X321025Y38008D01*
X321000Y38005D01*
X320334Y38080D01*
X319700Y38302D01*
X319133Y38658D01*
X318658Y39133D01*
X318302Y39700D01*
X318080Y40334D01*
X318005Y41000D01*
X318005Y46125D01*
X318001Y46130D01*
X318000Y46130D01*
X313000Y46130D01*
X312995Y46126D01*
X312995Y46125D01*
X312995Y38500D01*
X313149Y36939D01*
X313149Y36938D01*
X313604Y35437D01*
X313605Y35437D01*
X313605Y35436D01*
X314344Y34053D01*
X314345Y34053D01*
X314344Y34052D01*
X315339Y32840D01*
X315340Y32840D01*
X315340Y32839D01*
X316552Y31844D01*
X316553Y31844D01*
X317936Y31105D01*
X317937Y31105D01*
X317937Y31104D01*
X319438Y30649D01*
X319439Y30649D01*
X321000Y30495D01*
X321001Y30495D01*
X322561Y30649D01*
G37*
G36*
X250561Y30649D02*
X250561Y30649D01*
X250562Y30649D01*
X252063Y31104D01*
X252063Y31105D01*
X252064Y31105D01*
X253447Y31844D01*
X253447Y31845D01*
X253448Y31844D01*
X254660Y32839D01*
X254660Y32840D01*
X254661Y32840D01*
X255656Y34052D01*
X255656Y34053D01*
X256395Y35436D01*
X256395Y35437D01*
X256396Y35437D01*
X256851Y36938D01*
X256851Y36939D01*
X257005Y38500D01*
X257005Y46250D01*
X257001Y46255D01*
X257000Y46255D01*
X252000Y46255D01*
X251995Y46251D01*
X251995Y46250D01*
X251995Y41000D01*
X251994Y40990D01*
X251993Y40985D01*
X251993Y40980D01*
X251992Y40975D01*
X251992Y40970D01*
X251991Y40965D01*
X251990Y40960D01*
X251990Y40955D01*
X251987Y40930D01*
X251987Y40925D01*
X251986Y40920D01*
X251985Y40915D01*
X251985Y40910D01*
X251984Y40905D01*
X251984Y40900D01*
X251983Y40895D01*
X251981Y40875D01*
X251980Y40870D01*
X251980Y40865D01*
X251979Y40860D01*
X251979Y40856D01*
X251979Y40855D01*
X251978Y40851D01*
X251978Y40850D01*
X251978Y40846D01*
X251977Y40841D01*
X251976Y40836D01*
X251974Y40816D01*
X251974Y40811D01*
X251973Y40806D01*
X251973Y40801D01*
X251972Y40796D01*
X251971Y40791D01*
X251971Y40786D01*
X251970Y40781D01*
X251970Y40776D01*
X251968Y40756D01*
X251967Y40751D01*
X251966Y40746D01*
X251966Y40741D01*
X251965Y40736D01*
X251965Y40731D01*
X251964Y40726D01*
X251964Y40721D01*
X251963Y40716D01*
X251961Y40697D01*
X251961Y40696D01*
X251960Y40692D01*
X251960Y40691D01*
X251960Y40687D01*
X251959Y40682D01*
X251959Y40677D01*
X251958Y40672D01*
X251957Y40667D01*
X251957Y40662D01*
X251956Y40657D01*
X251954Y40637D01*
X251954Y40632D01*
X251953Y40627D01*
X251952Y40622D01*
X251952Y40617D01*
X251951Y40612D01*
X251951Y40607D01*
X251950Y40602D01*
X251947Y40577D01*
X251947Y40572D01*
X251946Y40567D01*
X251946Y40562D01*
X251945Y40557D01*
X251945Y40552D01*
X251944Y40547D01*
X251943Y40542D01*
X251941Y40518D01*
X251940Y40513D01*
X251940Y40508D01*
X251939Y40503D01*
X251938Y40498D01*
X251938Y40493D01*
X251937Y40488D01*
X251937Y40483D01*
X251935Y40463D01*
X251934Y40463D01*
X251934Y40458D01*
X251933Y40453D01*
X251933Y40448D01*
X251932Y40443D01*
X251932Y40438D01*
X251931Y40433D01*
X251931Y40428D01*
X251930Y40423D01*
X251928Y40403D01*
X251927Y40398D01*
X251927Y40393D01*
X251926Y40388D01*
X251926Y40383D01*
X251925Y40379D01*
X251925Y40378D01*
X251924Y40374D01*
X251924Y40373D01*
X251924Y40369D01*
X251923Y40364D01*
X251921Y40344D01*
X251921Y40339D01*
X251920Y40339D01*
X251921Y40339D01*
X251920Y40334D01*
X251698Y39700D01*
X251342Y39133D01*
X250867Y38658D01*
X250300Y38302D01*
X249666Y38080D01*
X249422Y38053D01*
X249377Y38048D01*
X249069Y38013D01*
X249025Y38008D01*
X249000Y38005D01*
X248334Y38080D01*
X247700Y38302D01*
X247133Y38658D01*
X246658Y39133D01*
X246302Y39700D01*
X246080Y40334D01*
X246005Y41000D01*
X246005Y52000D01*
X246005Y52004D01*
X246006Y52004D01*
X246005Y52004D01*
X246008Y52024D01*
X246008Y52029D01*
X246009Y52034D01*
X246009Y52039D01*
X246010Y52044D01*
X246011Y52049D01*
X246011Y52054D01*
X246012Y52059D01*
X246012Y52064D01*
X246014Y52084D01*
X246015Y52089D01*
X246016Y52094D01*
X246016Y52098D01*
X246016Y52099D01*
X246017Y52103D01*
X246017Y52104D01*
X246017Y52108D01*
X246018Y52113D01*
X246018Y52118D01*
X246021Y52143D01*
X246022Y52148D01*
X246022Y52153D01*
X246023Y52158D01*
X246023Y52163D01*
X246024Y52168D01*
X246025Y52173D01*
X246025Y52178D01*
X246027Y52198D01*
X246028Y52203D01*
X246028Y52208D01*
X246029Y52213D01*
X246030Y52218D01*
X246030Y52223D01*
X246031Y52228D01*
X246031Y52233D01*
X246032Y52238D01*
X246034Y52257D01*
X246034Y52258D01*
X246035Y52262D01*
X246035Y52263D01*
X246035Y52267D01*
X246036Y52272D01*
X246036Y52277D01*
X246037Y52282D01*
X246037Y52287D01*
X246038Y52292D01*
X246039Y52297D01*
X246041Y52317D01*
X246041Y52322D01*
X246042Y52327D01*
X246042Y52332D01*
X246043Y52337D01*
X246044Y52342D01*
X246044Y52347D01*
X246045Y52352D01*
X246045Y52357D01*
X246047Y52377D01*
X246048Y52382D01*
X246049Y52387D01*
X246049Y52392D01*
X246050Y52397D01*
X246050Y52402D01*
X246051Y52407D01*
X246051Y52412D01*
X246052Y52416D01*
X246052Y52417D01*
X246054Y52436D01*
X246055Y52441D01*
X246055Y52446D01*
X246056Y52451D01*
X246056Y52456D01*
X246057Y52461D01*
X246058Y52466D01*
X246058Y52471D01*
X246061Y52496D01*
X246061Y52501D01*
X246062Y52506D01*
X246063Y52511D01*
X246063Y52516D01*
X246064Y52521D01*
X246064Y52526D01*
X246065Y52531D01*
X246068Y52556D01*
X246068Y52561D01*
X246069Y52566D01*
X246069Y52571D01*
X246070Y52575D01*
X246070Y52576D01*
X246070Y52580D01*
X246070Y52581D01*
X246071Y52585D01*
X246072Y52590D01*
X246074Y52610D01*
X246074Y52615D01*
X246075Y52620D01*
X246075Y52625D01*
X246076Y52630D01*
X246077Y52635D01*
X246077Y52640D01*
X246078Y52645D01*
X246078Y52650D01*
X246080Y52666D01*
X246302Y53300D01*
X246658Y53867D01*
X247133Y54342D01*
X247700Y54698D01*
X248334Y54920D01*
X249000Y54995D01*
X249666Y54920D01*
X250300Y54698D01*
X250867Y54342D01*
X251342Y53867D01*
X251698Y53300D01*
X251920Y52666D01*
X251995Y52000D01*
X251995Y46875D01*
X251999Y46870D01*
X252000Y46870D01*
X257000Y46870D01*
X257005Y46874D01*
X257005Y46875D01*
X257005Y54500D01*
X257005Y54501D01*
X256851Y56061D01*
X256851Y56062D01*
X256396Y57563D01*
X256395Y57563D01*
X256395Y57564D01*
X255656Y58947D01*
X255656Y58948D01*
X254661Y60160D01*
X254660Y60160D01*
X254660Y60161D01*
X253448Y61156D01*
X253447Y61156D01*
X252064Y61895D01*
X252063Y61895D01*
X252063Y61896D01*
X250562Y62351D01*
X250561Y62351D01*
X249001Y62505D01*
X249000Y62505D01*
X247439Y62351D01*
X247438Y62351D01*
X245937Y61896D01*
X245937Y61895D01*
X245936Y61895D01*
X244553Y61156D01*
X244552Y61156D01*
X243340Y60161D01*
X243340Y60160D01*
X243339Y60160D01*
X242344Y58948D01*
X242344Y58947D01*
X241605Y57564D01*
X241605Y57563D01*
X241604Y57563D01*
X241149Y56062D01*
X241149Y56061D01*
X240995Y54501D01*
X240995Y54500D01*
X240995Y38500D01*
X241149Y36939D01*
X241149Y36938D01*
X241604Y35437D01*
X241605Y35437D01*
X241605Y35436D01*
X242344Y34053D01*
X242345Y34053D01*
X242344Y34052D01*
X243339Y32840D01*
X243340Y32840D01*
X243340Y32839D01*
X244552Y31844D01*
X244553Y31844D01*
X245936Y31105D01*
X245937Y31105D01*
X245937Y31104D01*
X247438Y30649D01*
X247439Y30649D01*
X249000Y30495D01*
X249001Y30495D01*
X250561Y30649D01*
G37*
G36*
X322561Y66149D02*
X322561Y66149D01*
X322562Y66149D01*
X324063Y66604D01*
X324063Y66605D01*
X324064Y66605D01*
X325447Y67344D01*
X325447Y67345D01*
X325448Y67344D01*
X326660Y68339D01*
X326660Y68340D01*
X326661Y68340D01*
X327656Y69552D01*
X327656Y69553D01*
X328395Y70936D01*
X328395Y70937D01*
X328396Y70937D01*
X328851Y72438D01*
X328851Y72439D01*
X329005Y74000D01*
X329005Y90000D01*
X329005Y90001D01*
X328851Y91561D01*
X328851Y91562D01*
X328396Y93063D01*
X328395Y93063D01*
X328395Y93064D01*
X327656Y94447D01*
X327656Y94448D01*
X326661Y95660D01*
X326660Y95660D01*
X326660Y95661D01*
X325448Y96656D01*
X325447Y96656D01*
X324064Y97395D01*
X324063Y97395D01*
X324063Y97396D01*
X322562Y97851D01*
X322561Y97851D01*
X321001Y98005D01*
X321000Y98005D01*
X319439Y97851D01*
X319438Y97851D01*
X317937Y97396D01*
X317937Y97395D01*
X317936Y97395D01*
X316553Y96656D01*
X316552Y96656D01*
X315340Y95661D01*
X315340Y95660D01*
X315339Y95660D01*
X314344Y94448D01*
X314344Y94447D01*
X313605Y93064D01*
X313605Y93063D01*
X313604Y93063D01*
X313149Y91562D01*
X313149Y91561D01*
X312995Y90001D01*
X312995Y90000D01*
X312995Y82250D01*
X312999Y82245D01*
X313000Y82245D01*
X318000Y82245D01*
X318005Y82249D01*
X318005Y82250D01*
X318005Y87500D01*
X318005Y87504D01*
X318006Y87504D01*
X318005Y87504D01*
X318008Y87524D01*
X318008Y87529D01*
X318009Y87534D01*
X318009Y87539D01*
X318010Y87544D01*
X318011Y87549D01*
X318011Y87554D01*
X318012Y87559D01*
X318012Y87564D01*
X318014Y87584D01*
X318015Y87589D01*
X318016Y87594D01*
X318016Y87598D01*
X318016Y87599D01*
X318017Y87603D01*
X318017Y87604D01*
X318017Y87608D01*
X318018Y87613D01*
X318018Y87618D01*
X318021Y87643D01*
X318022Y87648D01*
X318022Y87653D01*
X318023Y87658D01*
X318023Y87663D01*
X318024Y87668D01*
X318025Y87673D01*
X318025Y87678D01*
X318027Y87698D01*
X318028Y87703D01*
X318028Y87708D01*
X318029Y87713D01*
X318030Y87718D01*
X318030Y87723D01*
X318031Y87728D01*
X318031Y87733D01*
X318032Y87738D01*
X318034Y87757D01*
X318034Y87758D01*
X318035Y87762D01*
X318035Y87763D01*
X318035Y87767D01*
X318036Y87772D01*
X318036Y87777D01*
X318037Y87782D01*
X318037Y87787D01*
X318038Y87792D01*
X318039Y87797D01*
X318041Y87817D01*
X318041Y87822D01*
X318042Y87827D01*
X318042Y87832D01*
X318043Y87837D01*
X318044Y87842D01*
X318044Y87847D01*
X318045Y87852D01*
X318045Y87857D01*
X318047Y87877D01*
X318048Y87882D01*
X318049Y87887D01*
X318049Y87892D01*
X318050Y87897D01*
X318050Y87902D01*
X318051Y87907D01*
X318051Y87912D01*
X318052Y87916D01*
X318052Y87917D01*
X318054Y87936D01*
X318055Y87941D01*
X318055Y87946D01*
X318056Y87951D01*
X318056Y87956D01*
X318057Y87961D01*
X318058Y87966D01*
X318058Y87971D01*
X318061Y87996D01*
X318061Y88001D01*
X318062Y88006D01*
X318063Y88011D01*
X318063Y88016D01*
X318064Y88021D01*
X318064Y88026D01*
X318065Y88031D01*
X318068Y88056D01*
X318068Y88061D01*
X318069Y88066D01*
X318069Y88071D01*
X318070Y88075D01*
X318070Y88076D01*
X318070Y88080D01*
X318070Y88081D01*
X318071Y88085D01*
X318072Y88090D01*
X318074Y88110D01*
X318074Y88115D01*
X318075Y88120D01*
X318075Y88125D01*
X318076Y88130D01*
X318077Y88135D01*
X318077Y88140D01*
X318078Y88145D01*
X318078Y88150D01*
X318080Y88166D01*
X318302Y88800D01*
X318658Y89367D01*
X319133Y89842D01*
X319700Y90198D01*
X320334Y90420D01*
X321000Y90495D01*
X321666Y90420D01*
X322300Y90198D01*
X322867Y89842D01*
X323342Y89367D01*
X323698Y88800D01*
X323920Y88166D01*
X323995Y87500D01*
X323995Y76500D01*
X323994Y76490D01*
X323993Y76485D01*
X323993Y76480D01*
X323992Y76475D01*
X323992Y76470D01*
X323991Y76465D01*
X323990Y76460D01*
X323990Y76455D01*
X323987Y76430D01*
X323987Y76425D01*
X323986Y76420D01*
X323985Y76415D01*
X323985Y76410D01*
X323984Y76405D01*
X323984Y76400D01*
X323983Y76395D01*
X323981Y76375D01*
X323980Y76370D01*
X323980Y76365D01*
X323979Y76360D01*
X323979Y76356D01*
X323979Y76355D01*
X323978Y76351D01*
X323978Y76350D01*
X323978Y76346D01*
X323977Y76341D01*
X323976Y76336D01*
X323974Y76316D01*
X323974Y76311D01*
X323973Y76306D01*
X323973Y76301D01*
X323972Y76296D01*
X323971Y76291D01*
X323971Y76286D01*
X323970Y76281D01*
X323970Y76276D01*
X323968Y76256D01*
X323967Y76251D01*
X323966Y76246D01*
X323966Y76241D01*
X323965Y76236D01*
X323965Y76231D01*
X323964Y76226D01*
X323964Y76221D01*
X323963Y76216D01*
X323961Y76197D01*
X323961Y76196D01*
X323960Y76192D01*
X323960Y76191D01*
X323960Y76187D01*
X323959Y76182D01*
X323959Y76177D01*
X323958Y76172D01*
X323957Y76167D01*
X323957Y76162D01*
X323956Y76157D01*
X323954Y76137D01*
X323954Y76132D01*
X323953Y76127D01*
X323952Y76122D01*
X323952Y76117D01*
X323951Y76112D01*
X323951Y76107D01*
X323950Y76102D01*
X323947Y76077D01*
X323947Y76072D01*
X323946Y76067D01*
X323946Y76062D01*
X323945Y76057D01*
X323945Y76052D01*
X323944Y76047D01*
X323943Y76042D01*
X323941Y76018D01*
X323940Y76013D01*
X323940Y76008D01*
X323939Y76003D01*
X323938Y75998D01*
X323938Y75993D01*
X323937Y75988D01*
X323937Y75983D01*
X323935Y75963D01*
X323934Y75963D01*
X323934Y75958D01*
X323933Y75953D01*
X323933Y75948D01*
X323932Y75943D01*
X323932Y75938D01*
X323931Y75933D01*
X323931Y75928D01*
X323930Y75923D01*
X323928Y75903D01*
X323927Y75898D01*
X323927Y75893D01*
X323926Y75888D01*
X323926Y75883D01*
X323925Y75879D01*
X323925Y75878D01*
X323924Y75874D01*
X323924Y75873D01*
X323924Y75869D01*
X323923Y75864D01*
X323921Y75844D01*
X323921Y75839D01*
X323920Y75839D01*
X323921Y75839D01*
X323920Y75834D01*
X323698Y75200D01*
X323342Y74633D01*
X322867Y74158D01*
X322300Y73802D01*
X321666Y73580D01*
X321422Y73553D01*
X321377Y73548D01*
X321069Y73513D01*
X321025Y73508D01*
X321000Y73505D01*
X320334Y73580D01*
X319700Y73802D01*
X319133Y74158D01*
X318658Y74633D01*
X318302Y75200D01*
X318080Y75834D01*
X318005Y76500D01*
X318005Y81625D01*
X318001Y81630D01*
X318000Y81630D01*
X313000Y81630D01*
X312995Y81626D01*
X312995Y81625D01*
X312995Y74000D01*
X313149Y72439D01*
X313149Y72438D01*
X313604Y70937D01*
X313605Y70937D01*
X313605Y70936D01*
X314344Y69553D01*
X314345Y69553D01*
X314344Y69552D01*
X315339Y68340D01*
X315340Y68340D01*
X315340Y68339D01*
X316552Y67344D01*
X316553Y67344D01*
X317936Y66605D01*
X317937Y66605D01*
X317937Y66604D01*
X319438Y66149D01*
X319439Y66149D01*
X321000Y65995D01*
X321001Y65995D01*
X322561Y66149D01*
G37*
G36*
X250561Y66149D02*
X250561Y66149D01*
X250562Y66149D01*
X252063Y66604D01*
X252063Y66605D01*
X252064Y66605D01*
X253447Y67344D01*
X253447Y67345D01*
X253448Y67344D01*
X254660Y68339D01*
X254660Y68340D01*
X254661Y68340D01*
X255656Y69552D01*
X255656Y69553D01*
X256395Y70936D01*
X256395Y70937D01*
X256396Y70937D01*
X256851Y72438D01*
X256851Y72439D01*
X257005Y74000D01*
X257005Y81750D01*
X257001Y81755D01*
X257000Y81755D01*
X252000Y81755D01*
X251995Y81751D01*
X251995Y81750D01*
X251995Y76500D01*
X251994Y76490D01*
X251993Y76485D01*
X251993Y76480D01*
X251992Y76475D01*
X251992Y76470D01*
X251991Y76465D01*
X251990Y76460D01*
X251990Y76455D01*
X251987Y76430D01*
X251987Y76425D01*
X251986Y76420D01*
X251985Y76415D01*
X251985Y76410D01*
X251984Y76405D01*
X251984Y76400D01*
X251983Y76395D01*
X251981Y76375D01*
X251980Y76370D01*
X251980Y76365D01*
X251979Y76360D01*
X251979Y76356D01*
X251979Y76355D01*
X251978Y76351D01*
X251978Y76350D01*
X251978Y76346D01*
X251977Y76341D01*
X251976Y76336D01*
X251974Y76316D01*
X251974Y76311D01*
X251973Y76306D01*
X251973Y76301D01*
X251972Y76296D01*
X251971Y76291D01*
X251971Y76286D01*
X251970Y76281D01*
X251970Y76276D01*
X251968Y76256D01*
X251967Y76251D01*
X251966Y76246D01*
X251966Y76241D01*
X251965Y76236D01*
X251965Y76231D01*
X251964Y76226D01*
X251964Y76221D01*
X251963Y76216D01*
X251961Y76197D01*
X251961Y76196D01*
X251960Y76192D01*
X251960Y76191D01*
X251960Y76187D01*
X251959Y76182D01*
X251959Y76177D01*
X251958Y76172D01*
X251957Y76167D01*
X251957Y76162D01*
X251956Y76157D01*
X251954Y76137D01*
X251954Y76132D01*
X251953Y76127D01*
X251952Y76122D01*
X251952Y76117D01*
X251951Y76112D01*
X251951Y76107D01*
X251950Y76102D01*
X251947Y76077D01*
X251947Y76072D01*
X251946Y76067D01*
X251946Y76062D01*
X251945Y76057D01*
X251945Y76052D01*
X251944Y76047D01*
X251943Y76042D01*
X251941Y76018D01*
X251940Y76013D01*
X251940Y76008D01*
X251939Y76003D01*
X251938Y75998D01*
X251938Y75993D01*
X251937Y75988D01*
X251937Y75983D01*
X251935Y75963D01*
X251934Y75963D01*
X251934Y75958D01*
X251933Y75953D01*
X251933Y75948D01*
X251932Y75943D01*
X251932Y75938D01*
X251931Y75933D01*
X251931Y75928D01*
X251930Y75923D01*
X251928Y75903D01*
X251927Y75898D01*
X251927Y75893D01*
X251926Y75888D01*
X251926Y75883D01*
X251925Y75879D01*
X251925Y75878D01*
X251924Y75874D01*
X251924Y75873D01*
X251924Y75869D01*
X251923Y75864D01*
X251921Y75844D01*
X251921Y75839D01*
X251920Y75839D01*
X251921Y75839D01*
X251920Y75834D01*
X251698Y75200D01*
X251342Y74633D01*
X250867Y74158D01*
X250300Y73802D01*
X249666Y73580D01*
X249422Y73553D01*
X249377Y73548D01*
X249069Y73513D01*
X249025Y73508D01*
X249000Y73505D01*
X248334Y73580D01*
X247700Y73802D01*
X247133Y74158D01*
X246658Y74633D01*
X246302Y75200D01*
X246080Y75834D01*
X246005Y76500D01*
X246005Y87500D01*
X246005Y87504D01*
X246006Y87504D01*
X246005Y87504D01*
X246008Y87524D01*
X246008Y87529D01*
X246009Y87534D01*
X246009Y87539D01*
X246010Y87544D01*
X246011Y87549D01*
X246011Y87554D01*
X246012Y87559D01*
X246012Y87564D01*
X246014Y87584D01*
X246015Y87589D01*
X246016Y87594D01*
X246016Y87598D01*
X246016Y87599D01*
X246017Y87603D01*
X246017Y87604D01*
X246017Y87608D01*
X246018Y87613D01*
X246018Y87618D01*
X246021Y87643D01*
X246022Y87648D01*
X246022Y87653D01*
X246023Y87658D01*
X246023Y87663D01*
X246024Y87668D01*
X246025Y87673D01*
X246025Y87678D01*
X246027Y87698D01*
X246028Y87703D01*
X246028Y87708D01*
X246029Y87713D01*
X246030Y87718D01*
X246030Y87723D01*
X246031Y87728D01*
X246031Y87733D01*
X246032Y87738D01*
X246034Y87757D01*
X246034Y87758D01*
X246035Y87762D01*
X246035Y87763D01*
X246035Y87767D01*
X246036Y87772D01*
X246036Y87777D01*
X246037Y87782D01*
X246037Y87787D01*
X246038Y87792D01*
X246039Y87797D01*
X246041Y87817D01*
X246041Y87822D01*
X246042Y87827D01*
X246042Y87832D01*
X246043Y87837D01*
X246044Y87842D01*
X246044Y87847D01*
X246045Y87852D01*
X246045Y87857D01*
X246047Y87877D01*
X246048Y87882D01*
X246049Y87887D01*
X246049Y87892D01*
X246050Y87897D01*
X246050Y87902D01*
X246051Y87907D01*
X246051Y87912D01*
X246052Y87916D01*
X246052Y87917D01*
X246054Y87936D01*
X246055Y87941D01*
X246055Y87946D01*
X246056Y87951D01*
X246056Y87956D01*
X246057Y87961D01*
X246058Y87966D01*
X246058Y87971D01*
X246061Y87996D01*
X246061Y88001D01*
X246062Y88006D01*
X246063Y88011D01*
X246063Y88016D01*
X246064Y88021D01*
X246064Y88026D01*
X246065Y88031D01*
X246068Y88056D01*
X246068Y88061D01*
X246069Y88066D01*
X246069Y88071D01*
X246070Y88075D01*
X246070Y88076D01*
X246070Y88080D01*
X246070Y88081D01*
X246071Y88085D01*
X246072Y88090D01*
X246074Y88110D01*
X246074Y88115D01*
X246075Y88120D01*
X246075Y88125D01*
X246076Y88130D01*
X246077Y88135D01*
X246077Y88140D01*
X246078Y88145D01*
X246078Y88150D01*
X246080Y88166D01*
X246302Y88800D01*
X246658Y89367D01*
X247133Y89842D01*
X247700Y90198D01*
X248334Y90420D01*
X249000Y90495D01*
X249666Y90420D01*
X250300Y90198D01*
X250867Y89842D01*
X251342Y89367D01*
X251698Y88800D01*
X251920Y88166D01*
X251995Y87500D01*
X251995Y82375D01*
X251999Y82370D01*
X252000Y82370D01*
X257000Y82370D01*
X257005Y82374D01*
X257005Y82375D01*
X257005Y90000D01*
X257005Y90001D01*
X256851Y91561D01*
X256851Y91562D01*
X256396Y93063D01*
X256395Y93063D01*
X256395Y93064D01*
X255656Y94447D01*
X255656Y94448D01*
X254661Y95660D01*
X254660Y95660D01*
X254660Y95661D01*
X253448Y96656D01*
X253447Y96656D01*
X252064Y97395D01*
X252063Y97395D01*
X252063Y97396D01*
X250562Y97851D01*
X250561Y97851D01*
X249001Y98005D01*
X249000Y98005D01*
X247439Y97851D01*
X247438Y97851D01*
X245937Y97396D01*
X245937Y97395D01*
X245936Y97395D01*
X244553Y96656D01*
X244552Y96656D01*
X243340Y95661D01*
X243340Y95660D01*
X243339Y95660D01*
X242344Y94448D01*
X242344Y94447D01*
X241605Y93064D01*
X241605Y93063D01*
X241604Y93063D01*
X241149Y91562D01*
X241149Y91561D01*
X240995Y90001D01*
X240995Y90000D01*
X240995Y74000D01*
X241149Y72439D01*
X241149Y72438D01*
X241604Y70937D01*
X241605Y70937D01*
X241605Y70936D01*
X242344Y69553D01*
X242345Y69553D01*
X242344Y69552D01*
X243339Y68340D01*
X243340Y68340D01*
X243340Y68339D01*
X244552Y67344D01*
X244553Y67344D01*
X245936Y66605D01*
X245937Y66605D01*
X245937Y66604D01*
X247438Y66149D01*
X247439Y66149D01*
X249000Y65995D01*
X249001Y65995D01*
X250561Y66149D01*
G37*
G36*
X295662Y32013D02*
X295662Y32013D01*
X295824Y32016D01*
X295925Y32033D01*
X296027Y32041D01*
X296185Y32077D01*
X296345Y32104D01*
X296443Y32137D01*
X296542Y32160D01*
X296693Y32219D01*
X296847Y32271D01*
X296938Y32317D01*
X297034Y32355D01*
X297174Y32437D01*
X297318Y32510D01*
X297401Y32570D01*
X297490Y32622D01*
X297616Y32724D01*
X297748Y32819D01*
X297821Y32890D01*
X297901Y32954D01*
X298010Y33075D01*
X298126Y33188D01*
X298188Y33270D01*
X298257Y33345D01*
X298347Y33480D01*
X298445Y33610D01*
X298493Y33700D01*
X298550Y33785D01*
X298619Y33932D01*
X298696Y34075D01*
X298730Y34172D01*
X298774Y34264D01*
X298819Y34420D01*
X298874Y34573D01*
X298894Y34674D01*
X298922Y34772D01*
X298944Y34932D01*
X298975Y35092D01*
X298983Y35217D01*
X298993Y35296D01*
X298992Y35375D01*
X298999Y35500D01*
X298999Y37500D01*
X298987Y37662D01*
X298984Y37824D01*
X298967Y37925D01*
X298959Y38027D01*
X298923Y38185D01*
X298895Y38346D01*
X298863Y38443D01*
X298840Y38542D01*
X298780Y38693D01*
X298729Y38848D01*
X298683Y38939D01*
X298645Y39034D01*
X298563Y39174D01*
X298489Y39319D01*
X298430Y39402D01*
X298378Y39490D01*
X298276Y39617D01*
X298181Y39748D01*
X298110Y39821D01*
X298045Y39901D01*
X297925Y40011D01*
X297812Y40127D01*
X297730Y40188D01*
X297655Y40257D01*
X297519Y40347D01*
X297390Y40445D01*
X297300Y40494D01*
X297215Y40550D01*
X297067Y40619D01*
X296924Y40696D01*
X296828Y40731D01*
X296735Y40774D01*
X296580Y40820D01*
X296427Y40874D01*
X296326Y40894D01*
X296228Y40923D01*
X296067Y40944D01*
X295908Y40975D01*
X295782Y40983D01*
X295704Y40993D01*
X295625Y40992D01*
X295500Y40999D01*
X274500Y40999D01*
X274338Y40987D01*
X274176Y40984D01*
X274075Y40967D01*
X273973Y40959D01*
X273815Y40923D01*
X273655Y40896D01*
X273557Y40863D01*
X273458Y40840D01*
X273307Y40781D01*
X273153Y40729D01*
X273062Y40683D01*
X272966Y40645D01*
X272826Y40563D01*
X272682Y40490D01*
X272599Y40430D01*
X272510Y40378D01*
X272384Y40276D01*
X272252Y40181D01*
X272179Y40110D01*
X272099Y40046D01*
X271990Y39925D01*
X271874Y39812D01*
X271812Y39730D01*
X271743Y39655D01*
X271653Y39520D01*
X271555Y39390D01*
X271507Y39300D01*
X271450Y39215D01*
X271381Y39068D01*
X271304Y38925D01*
X271270Y38828D01*
X271226Y38736D01*
X271181Y38580D01*
X271126Y38427D01*
X271106Y38326D01*
X271078Y38228D01*
X271056Y38068D01*
X271025Y37908D01*
X271017Y37782D01*
X271007Y37704D01*
X271008Y37625D01*
X271001Y37500D01*
X271001Y35500D01*
X271013Y35338D01*
X271016Y35176D01*
X271033Y35075D01*
X271041Y34973D01*
X271077Y34815D01*
X271105Y34654D01*
X271137Y34557D01*
X271160Y34458D01*
X271220Y34307D01*
X271271Y34152D01*
X271317Y34061D01*
X271355Y33966D01*
X271437Y33826D01*
X271511Y33681D01*
X271570Y33598D01*
X271622Y33510D01*
X271724Y33383D01*
X271819Y33252D01*
X271890Y33179D01*
X271955Y33099D01*
X272075Y32989D01*
X272188Y32873D01*
X272270Y32812D01*
X272345Y32743D01*
X272481Y32653D01*
X272610Y32555D01*
X272700Y32506D01*
X272785Y32450D01*
X272933Y32381D01*
X273076Y32304D01*
X273172Y32269D01*
X273265Y32226D01*
X273420Y32180D01*
X273573Y32126D01*
X273674Y32106D01*
X273772Y32077D01*
X273933Y32056D01*
X274092Y32025D01*
X274218Y32017D01*
X274296Y32007D01*
X274375Y32008D01*
X274500Y32001D01*
X295500Y32001D01*
X295662Y32013D01*
G37*
%LPC*%
G36*
X205414Y833284D02*
X205414Y833284D01*
X205414Y848049D01*
X207218Y847417D01*
X209520Y846309D01*
X211683Y844950D01*
X213680Y843357D01*
X215487Y841550D01*
X217080Y839553D01*
X218439Y837390D01*
X219547Y835088D01*
X220179Y833284D01*
X205414Y833284D01*
G37*
%LPD*%
%LPC*%
G36*
X59821Y833284D02*
X59821Y833284D01*
X60453Y835088D01*
X61561Y837390D01*
X62920Y839553D01*
X64513Y841550D01*
X66320Y843357D01*
X68317Y844950D01*
X70480Y846309D01*
X72782Y847417D01*
X74586Y848049D01*
X74586Y833284D01*
X59821Y833284D01*
G37*
%LPD*%
%LPC*%
G36*
X205414Y819456D02*
X205414Y819456D01*
X220179Y819456D01*
X219547Y817652D01*
X218439Y815350D01*
X217080Y813187D01*
X215487Y811190D01*
X213680Y809383D01*
X211683Y807790D01*
X209520Y806431D01*
X207218Y805323D01*
X205414Y804691D01*
X205414Y819456D01*
G37*
%LPD*%
%LPC*%
G36*
X72782Y805323D02*
X72782Y805323D01*
X70480Y806431D01*
X68317Y807790D01*
X66320Y809383D01*
X64513Y811190D01*
X62920Y813187D01*
X61561Y815350D01*
X60453Y817652D01*
X59821Y819456D01*
X74586Y819456D01*
X74586Y804691D01*
X72782Y805323D01*
G37*
%LPD*%
%LPC*%
G36*
X768499Y828499D02*
X768499Y828499D01*
X768499Y836481D01*
X769607Y836122D01*
X771290Y835264D01*
X772818Y834154D01*
X774154Y832818D01*
X775264Y831290D01*
X776122Y829607D01*
X776481Y828499D01*
X768499Y828499D01*
G37*
%LPD*%
%LPC*%
G36*
X768499Y821501D02*
X768499Y821501D01*
X776481Y821501D01*
X776122Y820393D01*
X775264Y818710D01*
X774154Y817182D01*
X772818Y815846D01*
X771290Y814736D01*
X769607Y813878D01*
X768499Y813519D01*
X768499Y821501D01*
G37*
%LPD*%
%LPC*%
G36*
X651599Y703499D02*
X651599Y703499D01*
X651599Y709641D01*
X652035Y709500D01*
X653473Y708767D01*
X654778Y707819D01*
X655919Y706678D01*
X656867Y705373D01*
X657600Y703935D01*
X657741Y703499D01*
X651599Y703499D01*
G37*
%LPD*%
%LPC*%
G36*
X651599Y696501D02*
X651599Y696501D01*
X657741Y696501D01*
X657600Y696065D01*
X656867Y694627D01*
X655919Y693322D01*
X654778Y692181D01*
X653473Y691233D01*
X652035Y690500D01*
X651599Y690359D01*
X651599Y696501D01*
G37*
%LPD*%
%LPC*%
G36*
X716427Y693499D02*
X716427Y693499D01*
X716501Y693573D01*
X716501Y693499D01*
X716427Y693499D01*
G37*
%LPD*%
%LPC*%
G36*
X796427Y213499D02*
X796427Y213499D01*
X796501Y213573D01*
X796501Y213499D01*
X796427Y213499D01*
G37*
%LPD*%
%LPC*%
G36*
X513499Y766501D02*
X513499Y766501D01*
X513573Y766501D01*
X513499Y766427D01*
X513499Y766501D01*
G37*
%LPD*%
%LPC*%
G36*
X692111Y517213D02*
X692111Y517213D01*
X692185Y517286D01*
X692185Y517213D01*
X692111Y517213D01*
G37*
%LPD*%
%LPC*%
G36*
X506427Y766501D02*
X506427Y766501D01*
X506501Y766501D01*
X506501Y766427D01*
X506427Y766501D01*
G37*
%LPD*%
%LPC*%
G36*
X786427Y766501D02*
X786427Y766501D01*
X786501Y766501D01*
X786501Y766427D01*
X786427Y766501D01*
G37*
%LPD*%
%LPC*%
G36*
X796427Y206501D02*
X796427Y206501D01*
X796501Y206501D01*
X796501Y206427D01*
X796427Y206501D01*
G37*
%LPD*%
%LPC*%
G36*
X692111Y510214D02*
X692111Y510214D01*
X692185Y510214D01*
X692185Y510141D01*
X692111Y510214D01*
G37*
%LPD*%
%LPC*%
G36*
X716427Y686501D02*
X716427Y686501D01*
X716501Y686501D01*
X716501Y686427D01*
X716427Y686501D01*
G37*
%LPD*%
D10*
X530018Y155400D02*
X546782Y155400D01*
X546782Y130000D02*
X530018Y130000D01*
X530018Y104600D02*
X546782Y104600D01*
D11*
X740000Y825000D03*
X765000Y825000D03*
X715000Y825000D03*
D12*
X163907Y175000D02*
X136094Y175000D01*
X136094Y213100D02*
X163907Y213100D01*
X163907Y251200D02*
X136094Y251200D01*
X175400Y61907D02*
X175400Y34094D01*
X124600Y34094D02*
X124600Y61907D01*
D13*
X165000Y836370D03*
X115000Y836370D03*
X140000Y836370D03*
X165000Y815370D03*
X115000Y815370D03*
D14*
X81500Y826370D03*
X198500Y826370D03*
D15*
X571900Y700000D03*
D16*
X597300Y700000D03*
X622700Y700000D03*
X648100Y700000D03*
D17*
X272000Y78500D03*
X278500Y78500D03*
X285000Y78500D03*
X291500Y78500D03*
X298000Y78500D03*
D18*
X296500Y36500D03*
X273500Y36500D03*
D19*
X800000Y210000D03*
X720000Y690000D03*
X695684Y513713D03*
D20*
X331000Y130000D02*
X301000Y100000D01*
X331000Y130000D02*
X510000Y130000D01*
X538400Y130000D01*
X198500Y790000D02*
X198500Y826370D01*
D19*
X510000Y770000D03*
D20*
X220000Y770000D01*
X200000Y790000D01*
X198500Y790000D01*
X81500Y790000D01*
D21*
X298000Y97000D02*
X298000Y78500D01*
X298000Y97000D02*
X301000Y100000D01*
X296500Y36500D02*
X298000Y28000D01*
X298000Y78500D01*
X296500Y36500D02*
X273500Y36500D01*
D19*
X790000Y770000D03*
D20*
X81500Y790000D02*
X81500Y826370D01*
X510000Y770000D02*
X790000Y770000D01*
X800000Y210000D02*
X510000Y210000D01*
X510000Y130000D01*
X720000Y620000D02*
X720000Y690000D01*
X695684Y513713D02*
X695684Y484316D01*
X800000Y380000D02*
X800000Y210000D01*
X800000Y380000D02*
X695684Y484316D01*
X695684Y513713D02*
X695684Y595684D01*
X720000Y620000D01*
X720000Y690000D02*
X720000Y720000D01*
X740000Y740000D01*
X780000Y740000D01*
X790000Y750000D01*
X790000Y770000D01*
D19*
X714716Y513713D03*
X740000Y690000D03*
X820000Y210000D03*
X230000Y790000D03*
X700000Y790000D03*
X510000Y790000D03*
D20*
X230000Y790000D01*
X538400Y104600D02*
X540000Y103000D01*
X540000Y60000D01*
X570000Y30000D01*
X730000Y30000D01*
X820000Y120000D02*
X820000Y210000D01*
X820000Y120000D02*
X730000Y30000D01*
X700000Y790000D02*
X510000Y790000D01*
X820000Y380000D02*
X820000Y210000D01*
X714716Y485284D02*
X714716Y513713D01*
X714716Y485284D02*
X820000Y380000D01*
X740000Y620000D02*
X740000Y690000D01*
X714716Y594716D02*
X714716Y513713D01*
X714716Y594716D02*
X740000Y620000D01*
X740000Y690000D02*
X740000Y710000D01*
X755000Y725000D01*
X800000Y790000D02*
X700000Y790000D01*
X755000Y725000D02*
X795000Y725000D01*
X810000Y780000D02*
X800000Y790000D01*
X810000Y780000D02*
X810000Y740000D01*
X795000Y725000D01*
D22*
X272000Y100000D02*
X272000Y78500D01*
D20*
X272000Y100000D02*
X272000Y128000D01*
X186900Y213100D02*
X150000Y213100D01*
X186900Y213100D02*
X272000Y128000D01*
D19*
X355000Y730000D03*
X710000Y397500D03*
D21*
X687500Y397500D01*
X355000Y730000D01*
D19*
X375000Y730000D03*
X710000Y417500D03*
D21*
X687500Y417500D01*
X375000Y730000D01*
M02*
