G04 EAGLE Gerber RS-274X export*
G75*
%MOMM*%
%FSLAX34Y34*%
%LPD*%
%IN*%
%IPPOS*%
%AMOC8*
5,1,8,0,0,1.08239X$1,22.5*%
G01*
%ADD10C,0.254000*%


D10*
X0Y0D02*
X880000Y0D01*
X880000Y880000D01*
X0Y880000D01*
X0Y0D01*
X318000Y76500D02*
X318011Y76239D01*
X318046Y75979D01*
X318102Y75724D01*
X318181Y75474D01*
X318281Y75232D01*
X318402Y75000D01*
X318543Y74779D01*
X318702Y74572D01*
X318879Y74379D01*
X319072Y74202D01*
X319279Y74043D01*
X319500Y73902D01*
X319732Y73781D01*
X319974Y73681D01*
X320224Y73602D01*
X320479Y73546D01*
X320739Y73511D01*
X321000Y73500D01*
X321261Y73511D01*
X321521Y73546D01*
X321776Y73602D01*
X322026Y73681D01*
X322268Y73781D01*
X322500Y73902D01*
X322721Y74043D01*
X322928Y74202D01*
X323121Y74379D01*
X323298Y74572D01*
X323457Y74779D01*
X323598Y75000D01*
X323719Y75232D01*
X323819Y75474D01*
X323898Y75724D01*
X323954Y75979D01*
X323989Y76239D01*
X324000Y76500D01*
X324000Y87500D01*
X323989Y87761D01*
X323954Y88021D01*
X323898Y88276D01*
X323819Y88526D01*
X323719Y88768D01*
X323598Y89000D01*
X323457Y89221D01*
X323298Y89428D01*
X323121Y89621D01*
X322928Y89798D01*
X322721Y89957D01*
X322500Y90098D01*
X322268Y90219D01*
X322026Y90319D01*
X321776Y90398D01*
X321521Y90454D01*
X321261Y90489D01*
X321000Y90500D01*
X320739Y90489D01*
X320479Y90454D01*
X320224Y90398D01*
X319974Y90319D01*
X319732Y90219D01*
X319500Y90098D01*
X319279Y89957D01*
X319072Y89798D01*
X318879Y89621D01*
X318702Y89428D01*
X318543Y89221D01*
X318402Y89000D01*
X318281Y88768D01*
X318181Y88526D01*
X318102Y88276D01*
X318046Y88021D01*
X318011Y87761D01*
X318000Y87500D01*
X318000Y76500D01*
X246000Y76500D02*
X246011Y76239D01*
X246046Y75979D01*
X246102Y75724D01*
X246181Y75474D01*
X246281Y75232D01*
X246402Y75000D01*
X246543Y74779D01*
X246702Y74572D01*
X246879Y74379D01*
X247072Y74202D01*
X247279Y74043D01*
X247500Y73902D01*
X247732Y73781D01*
X247974Y73681D01*
X248224Y73602D01*
X248479Y73546D01*
X248739Y73511D01*
X249000Y73500D01*
X249261Y73511D01*
X249521Y73546D01*
X249776Y73602D01*
X250026Y73681D01*
X250268Y73781D01*
X250500Y73902D01*
X250721Y74043D01*
X250928Y74202D01*
X251121Y74379D01*
X251298Y74572D01*
X251457Y74779D01*
X251598Y75000D01*
X251719Y75232D01*
X251819Y75474D01*
X251898Y75724D01*
X251954Y75979D01*
X251989Y76239D01*
X252000Y76500D01*
X252000Y87500D01*
X251989Y87761D01*
X251954Y88021D01*
X251898Y88276D01*
X251819Y88526D01*
X251719Y88768D01*
X251598Y89000D01*
X251457Y89221D01*
X251298Y89428D01*
X251121Y89621D01*
X250928Y89798D01*
X250721Y89957D01*
X250500Y90098D01*
X250268Y90219D01*
X250026Y90319D01*
X249776Y90398D01*
X249521Y90454D01*
X249261Y90489D01*
X249000Y90500D01*
X248739Y90489D01*
X248479Y90454D01*
X248224Y90398D01*
X247974Y90319D01*
X247732Y90219D01*
X247500Y90098D01*
X247279Y89957D01*
X247072Y89798D01*
X246879Y89621D01*
X246702Y89428D01*
X246543Y89221D01*
X246402Y89000D01*
X246281Y88768D01*
X246181Y88526D01*
X246102Y88276D01*
X246046Y88021D01*
X246011Y87761D01*
X246000Y87500D01*
X246000Y76500D01*
X318000Y41000D02*
X318011Y40739D01*
X318046Y40479D01*
X318102Y40224D01*
X318181Y39974D01*
X318281Y39732D01*
X318402Y39500D01*
X318543Y39279D01*
X318702Y39072D01*
X318879Y38879D01*
X319072Y38702D01*
X319279Y38543D01*
X319500Y38402D01*
X319732Y38281D01*
X319974Y38181D01*
X320224Y38102D01*
X320479Y38046D01*
X320739Y38011D01*
X321000Y38000D01*
X321261Y38011D01*
X321521Y38046D01*
X321776Y38102D01*
X322026Y38181D01*
X322268Y38281D01*
X322500Y38402D01*
X322721Y38543D01*
X322928Y38702D01*
X323121Y38879D01*
X323298Y39072D01*
X323457Y39279D01*
X323598Y39500D01*
X323719Y39732D01*
X323819Y39974D01*
X323898Y40224D01*
X323954Y40479D01*
X323989Y40739D01*
X324000Y41000D01*
X324000Y52000D01*
X323989Y52261D01*
X323954Y52521D01*
X323898Y52776D01*
X323819Y53026D01*
X323719Y53268D01*
X323598Y53500D01*
X323457Y53721D01*
X323298Y53928D01*
X323121Y54121D01*
X322928Y54298D01*
X322721Y54457D01*
X322500Y54598D01*
X322268Y54719D01*
X322026Y54819D01*
X321776Y54898D01*
X321521Y54954D01*
X321261Y54989D01*
X321000Y55000D01*
X320739Y54989D01*
X320479Y54954D01*
X320224Y54898D01*
X319974Y54819D01*
X319732Y54719D01*
X319500Y54598D01*
X319279Y54457D01*
X319072Y54298D01*
X318879Y54121D01*
X318702Y53928D01*
X318543Y53721D01*
X318402Y53500D01*
X318281Y53268D01*
X318181Y53026D01*
X318102Y52776D01*
X318046Y52521D01*
X318011Y52261D01*
X318000Y52000D01*
X318000Y41000D01*
X246000Y41000D02*
X246011Y40739D01*
X246046Y40479D01*
X246102Y40224D01*
X246181Y39974D01*
X246281Y39732D01*
X246402Y39500D01*
X246543Y39279D01*
X246702Y39072D01*
X246879Y38879D01*
X247072Y38702D01*
X247279Y38543D01*
X247500Y38402D01*
X247732Y38281D01*
X247974Y38181D01*
X248224Y38102D01*
X248479Y38046D01*
X248739Y38011D01*
X249000Y38000D01*
X249261Y38011D01*
X249521Y38046D01*
X249776Y38102D01*
X250026Y38181D01*
X250268Y38281D01*
X250500Y38402D01*
X250721Y38543D01*
X250928Y38702D01*
X251121Y38879D01*
X251298Y39072D01*
X251457Y39279D01*
X251598Y39500D01*
X251719Y39732D01*
X251819Y39974D01*
X251898Y40224D01*
X251954Y40479D01*
X251989Y40739D01*
X252000Y41000D01*
X252000Y52000D01*
X251989Y52261D01*
X251954Y52521D01*
X251898Y52776D01*
X251819Y53026D01*
X251719Y53268D01*
X251598Y53500D01*
X251457Y53721D01*
X251298Y53928D01*
X251121Y54121D01*
X250928Y54298D01*
X250721Y54457D01*
X250500Y54598D01*
X250268Y54719D01*
X250026Y54819D01*
X249776Y54898D01*
X249521Y54954D01*
X249261Y54989D01*
X249000Y55000D01*
X248739Y54989D01*
X248479Y54954D01*
X248224Y54898D01*
X247974Y54819D01*
X247732Y54719D01*
X247500Y54598D01*
X247279Y54457D01*
X247072Y54298D01*
X246879Y54121D01*
X246702Y53928D01*
X246543Y53721D01*
X246402Y53500D01*
X246281Y53268D01*
X246181Y53026D01*
X246102Y52776D01*
X246046Y52521D01*
X246011Y52261D01*
X246000Y52000D01*
X246000Y41000D01*
X846000Y49476D02*
X845932Y48431D01*
X845795Y47392D01*
X845590Y46365D01*
X845319Y45353D01*
X844983Y44361D01*
X844582Y43393D01*
X844118Y42454D01*
X843595Y41546D01*
X843013Y40675D01*
X842375Y39844D01*
X841684Y39057D01*
X840943Y38316D01*
X840156Y37625D01*
X839325Y36988D01*
X838454Y36406D01*
X837546Y35882D01*
X836607Y35418D01*
X835639Y35017D01*
X834647Y34681D01*
X833635Y34410D01*
X832608Y34205D01*
X831569Y34069D01*
X830524Y34000D01*
X829476Y34000D01*
X828431Y34069D01*
X827392Y34205D01*
X826365Y34410D01*
X825353Y34681D01*
X824361Y35017D01*
X823393Y35418D01*
X822454Y35882D01*
X821546Y36406D01*
X820675Y36988D01*
X819844Y37625D01*
X819057Y38316D01*
X818316Y39057D01*
X817625Y39844D01*
X816988Y40675D01*
X816406Y41546D01*
X815882Y42454D01*
X815418Y43393D01*
X815017Y44361D01*
X814681Y45353D01*
X814410Y46365D01*
X814205Y47392D01*
X814069Y48431D01*
X814000Y49476D01*
X814000Y50524D01*
X814069Y51569D01*
X814205Y52608D01*
X814410Y53635D01*
X814681Y54647D01*
X815017Y55639D01*
X815418Y56607D01*
X815882Y57546D01*
X816406Y58454D01*
X816988Y59325D01*
X817625Y60156D01*
X818316Y60943D01*
X819057Y61684D01*
X819844Y62375D01*
X820675Y63013D01*
X821546Y63595D01*
X822454Y64118D01*
X823393Y64582D01*
X824361Y64983D01*
X825353Y65319D01*
X826365Y65590D01*
X827392Y65795D01*
X828431Y65932D01*
X829476Y66000D01*
X830524Y66000D01*
X831569Y65932D01*
X832608Y65795D01*
X833635Y65590D01*
X834647Y65319D01*
X835639Y64983D01*
X836607Y64582D01*
X837546Y64118D01*
X838454Y63595D01*
X839325Y63013D01*
X840156Y62375D01*
X840943Y61684D01*
X841684Y60943D01*
X842375Y60156D01*
X843013Y59325D01*
X843595Y58454D01*
X844118Y57546D01*
X844582Y56607D01*
X844983Y55639D01*
X845319Y54647D01*
X845590Y53635D01*
X845795Y52608D01*
X845932Y51569D01*
X846000Y50524D01*
X846000Y49476D01*
X66000Y49476D02*
X65932Y48431D01*
X65795Y47392D01*
X65590Y46365D01*
X65319Y45353D01*
X64983Y44361D01*
X64582Y43393D01*
X64118Y42454D01*
X63595Y41546D01*
X63013Y40675D01*
X62375Y39844D01*
X61684Y39057D01*
X60943Y38316D01*
X60156Y37625D01*
X59325Y36988D01*
X58454Y36406D01*
X57546Y35882D01*
X56607Y35418D01*
X55639Y35017D01*
X54647Y34681D01*
X53635Y34410D01*
X52608Y34205D01*
X51569Y34069D01*
X50524Y34000D01*
X49476Y34000D01*
X48431Y34069D01*
X47392Y34205D01*
X46365Y34410D01*
X45353Y34681D01*
X44361Y35017D01*
X43393Y35418D01*
X42454Y35882D01*
X41546Y36406D01*
X40675Y36988D01*
X39844Y37625D01*
X39057Y38316D01*
X38316Y39057D01*
X37625Y39844D01*
X36988Y40675D01*
X36406Y41546D01*
X35882Y42454D01*
X35418Y43393D01*
X35017Y44361D01*
X34681Y45353D01*
X34410Y46365D01*
X34205Y47392D01*
X34069Y48431D01*
X34000Y49476D01*
X34000Y50524D01*
X34069Y51569D01*
X34205Y52608D01*
X34410Y53635D01*
X34681Y54647D01*
X35017Y55639D01*
X35418Y56607D01*
X35882Y57546D01*
X36406Y58454D01*
X36988Y59325D01*
X37625Y60156D01*
X38316Y60943D01*
X39057Y61684D01*
X39844Y62375D01*
X40675Y63013D01*
X41546Y63595D01*
X42454Y64118D01*
X43393Y64582D01*
X44361Y64983D01*
X45353Y65319D01*
X46365Y65590D01*
X47392Y65795D01*
X48431Y65932D01*
X49476Y66000D01*
X50524Y66000D01*
X51569Y65932D01*
X52608Y65795D01*
X53635Y65590D01*
X54647Y65319D01*
X55639Y64983D01*
X56607Y64582D01*
X57546Y64118D01*
X58454Y63595D01*
X59325Y63013D01*
X60156Y62375D01*
X60943Y61684D01*
X61684Y60943D01*
X62375Y60156D01*
X63013Y59325D01*
X63595Y58454D01*
X64118Y57546D01*
X64582Y56607D01*
X64983Y55639D01*
X65319Y54647D01*
X65590Y53635D01*
X65795Y52608D01*
X65932Y51569D01*
X66000Y50524D01*
X66000Y49476D01*
X66000Y439476D02*
X65932Y438431D01*
X65795Y437392D01*
X65590Y436365D01*
X65319Y435353D01*
X64983Y434361D01*
X64582Y433393D01*
X64118Y432454D01*
X63595Y431546D01*
X63013Y430675D01*
X62375Y429844D01*
X61684Y429057D01*
X60943Y428316D01*
X60156Y427625D01*
X59325Y426988D01*
X58454Y426406D01*
X57546Y425882D01*
X56607Y425418D01*
X55639Y425017D01*
X54647Y424681D01*
X53635Y424410D01*
X52608Y424205D01*
X51569Y424069D01*
X50524Y424000D01*
X49476Y424000D01*
X48431Y424069D01*
X47392Y424205D01*
X46365Y424410D01*
X45353Y424681D01*
X44361Y425017D01*
X43393Y425418D01*
X42454Y425882D01*
X41546Y426406D01*
X40675Y426988D01*
X39844Y427625D01*
X39057Y428316D01*
X38316Y429057D01*
X37625Y429844D01*
X36988Y430675D01*
X36406Y431546D01*
X35882Y432454D01*
X35418Y433393D01*
X35017Y434361D01*
X34681Y435353D01*
X34410Y436365D01*
X34205Y437392D01*
X34069Y438431D01*
X34000Y439476D01*
X34000Y440524D01*
X34069Y441569D01*
X34205Y442608D01*
X34410Y443635D01*
X34681Y444647D01*
X35017Y445639D01*
X35418Y446607D01*
X35882Y447546D01*
X36406Y448454D01*
X36988Y449325D01*
X37625Y450156D01*
X38316Y450943D01*
X39057Y451684D01*
X39844Y452375D01*
X40675Y453013D01*
X41546Y453595D01*
X42454Y454118D01*
X43393Y454582D01*
X44361Y454983D01*
X45353Y455319D01*
X46365Y455590D01*
X47392Y455795D01*
X48431Y455932D01*
X49476Y456000D01*
X50524Y456000D01*
X51569Y455932D01*
X52608Y455795D01*
X53635Y455590D01*
X54647Y455319D01*
X55639Y454983D01*
X56607Y454582D01*
X57546Y454118D01*
X58454Y453595D01*
X59325Y453013D01*
X60156Y452375D01*
X60943Y451684D01*
X61684Y450943D01*
X62375Y450156D01*
X63013Y449325D01*
X63595Y448454D01*
X64118Y447546D01*
X64582Y446607D01*
X64983Y445639D01*
X65319Y444647D01*
X65590Y443635D01*
X65795Y442608D01*
X65932Y441569D01*
X66000Y440524D01*
X66000Y439476D01*
X456000Y49476D02*
X455932Y48431D01*
X455795Y47392D01*
X455590Y46365D01*
X455319Y45353D01*
X454983Y44361D01*
X454582Y43393D01*
X454118Y42454D01*
X453595Y41546D01*
X453013Y40675D01*
X452375Y39844D01*
X451684Y39057D01*
X450943Y38316D01*
X450156Y37625D01*
X449325Y36988D01*
X448454Y36406D01*
X447546Y35882D01*
X446607Y35418D01*
X445639Y35017D01*
X444647Y34681D01*
X443635Y34410D01*
X442608Y34205D01*
X441569Y34069D01*
X440524Y34000D01*
X439476Y34000D01*
X438431Y34069D01*
X437392Y34205D01*
X436365Y34410D01*
X435353Y34681D01*
X434361Y35017D01*
X433393Y35418D01*
X432454Y35882D01*
X431546Y36406D01*
X430675Y36988D01*
X429844Y37625D01*
X429057Y38316D01*
X428316Y39057D01*
X427625Y39844D01*
X426988Y40675D01*
X426406Y41546D01*
X425882Y42454D01*
X425418Y43393D01*
X425017Y44361D01*
X424681Y45353D01*
X424410Y46365D01*
X424205Y47392D01*
X424069Y48431D01*
X424000Y49476D01*
X424000Y50524D01*
X424069Y51569D01*
X424205Y52608D01*
X424410Y53635D01*
X424681Y54647D01*
X425017Y55639D01*
X425418Y56607D01*
X425882Y57546D01*
X426406Y58454D01*
X426988Y59325D01*
X427625Y60156D01*
X428316Y60943D01*
X429057Y61684D01*
X429844Y62375D01*
X430675Y63013D01*
X431546Y63595D01*
X432454Y64118D01*
X433393Y64582D01*
X434361Y64983D01*
X435353Y65319D01*
X436365Y65590D01*
X437392Y65795D01*
X438431Y65932D01*
X439476Y66000D01*
X440524Y66000D01*
X441569Y65932D01*
X442608Y65795D01*
X443635Y65590D01*
X444647Y65319D01*
X445639Y64983D01*
X446607Y64582D01*
X447546Y64118D01*
X448454Y63595D01*
X449325Y63013D01*
X450156Y62375D01*
X450943Y61684D01*
X451684Y60943D01*
X452375Y60156D01*
X453013Y59325D01*
X453595Y58454D01*
X454118Y57546D01*
X454582Y56607D01*
X454983Y55639D01*
X455319Y54647D01*
X455590Y53635D01*
X455795Y52608D01*
X455932Y51569D01*
X456000Y50524D01*
X456000Y49476D01*
X846000Y439476D02*
X845932Y438431D01*
X845795Y437392D01*
X845590Y436365D01*
X845319Y435353D01*
X844983Y434361D01*
X844582Y433393D01*
X844118Y432454D01*
X843595Y431546D01*
X843013Y430675D01*
X842375Y429844D01*
X841684Y429057D01*
X840943Y428316D01*
X840156Y427625D01*
X839325Y426988D01*
X838454Y426406D01*
X837546Y425882D01*
X836607Y425418D01*
X835639Y425017D01*
X834647Y424681D01*
X833635Y424410D01*
X832608Y424205D01*
X831569Y424069D01*
X830524Y424000D01*
X829476Y424000D01*
X828431Y424069D01*
X827392Y424205D01*
X826365Y424410D01*
X825353Y424681D01*
X824361Y425017D01*
X823393Y425418D01*
X822454Y425882D01*
X821546Y426406D01*
X820675Y426988D01*
X819844Y427625D01*
X819057Y428316D01*
X818316Y429057D01*
X817625Y429844D01*
X816988Y430675D01*
X816406Y431546D01*
X815882Y432454D01*
X815418Y433393D01*
X815017Y434361D01*
X814681Y435353D01*
X814410Y436365D01*
X814205Y437392D01*
X814069Y438431D01*
X814000Y439476D01*
X814000Y440524D01*
X814069Y441569D01*
X814205Y442608D01*
X814410Y443635D01*
X814681Y444647D01*
X815017Y445639D01*
X815418Y446607D01*
X815882Y447546D01*
X816406Y448454D01*
X816988Y449325D01*
X817625Y450156D01*
X818316Y450943D01*
X819057Y451684D01*
X819844Y452375D01*
X820675Y453013D01*
X821546Y453595D01*
X822454Y454118D01*
X823393Y454582D01*
X824361Y454983D01*
X825353Y455319D01*
X826365Y455590D01*
X827392Y455795D01*
X828431Y455932D01*
X829476Y456000D01*
X830524Y456000D01*
X831569Y455932D01*
X832608Y455795D01*
X833635Y455590D01*
X834647Y455319D01*
X835639Y454983D01*
X836607Y454582D01*
X837546Y454118D01*
X838454Y453595D01*
X839325Y453013D01*
X840156Y452375D01*
X840943Y451684D01*
X841684Y450943D01*
X842375Y450156D01*
X843013Y449325D01*
X843595Y448454D01*
X844118Y447546D01*
X844582Y446607D01*
X844983Y445639D01*
X845319Y444647D01*
X845590Y443635D01*
X845795Y442608D01*
X845932Y441569D01*
X846000Y440524D01*
X846000Y439476D01*
X456000Y829476D02*
X455932Y828431D01*
X455795Y827392D01*
X455590Y826365D01*
X455319Y825353D01*
X454983Y824361D01*
X454582Y823393D01*
X454118Y822454D01*
X453595Y821546D01*
X453013Y820675D01*
X452375Y819844D01*
X451684Y819057D01*
X450943Y818316D01*
X450156Y817625D01*
X449325Y816988D01*
X448454Y816406D01*
X447546Y815882D01*
X446607Y815418D01*
X445639Y815017D01*
X444647Y814681D01*
X443635Y814410D01*
X442608Y814205D01*
X441569Y814069D01*
X440524Y814000D01*
X439476Y814000D01*
X438431Y814069D01*
X437392Y814205D01*
X436365Y814410D01*
X435353Y814681D01*
X434361Y815017D01*
X433393Y815418D01*
X432454Y815882D01*
X431546Y816406D01*
X430675Y816988D01*
X429844Y817625D01*
X429057Y818316D01*
X428316Y819057D01*
X427625Y819844D01*
X426988Y820675D01*
X426406Y821546D01*
X425882Y822454D01*
X425418Y823393D01*
X425017Y824361D01*
X424681Y825353D01*
X424410Y826365D01*
X424205Y827392D01*
X424069Y828431D01*
X424000Y829476D01*
X424000Y830524D01*
X424069Y831569D01*
X424205Y832608D01*
X424410Y833635D01*
X424681Y834647D01*
X425017Y835639D01*
X425418Y836607D01*
X425882Y837546D01*
X426406Y838454D01*
X426988Y839325D01*
X427625Y840156D01*
X428316Y840943D01*
X429057Y841684D01*
X429844Y842375D01*
X430675Y843013D01*
X431546Y843595D01*
X432454Y844118D01*
X433393Y844582D01*
X434361Y844983D01*
X435353Y845319D01*
X436365Y845590D01*
X437392Y845795D01*
X438431Y845932D01*
X439476Y846000D01*
X440524Y846000D01*
X441569Y845932D01*
X442608Y845795D01*
X443635Y845590D01*
X444647Y845319D01*
X445639Y844983D01*
X446607Y844582D01*
X447546Y844118D01*
X448454Y843595D01*
X449325Y843013D01*
X450156Y842375D01*
X450943Y841684D01*
X451684Y840943D01*
X452375Y840156D01*
X453013Y839325D01*
X453595Y838454D01*
X454118Y837546D01*
X454582Y836607D01*
X454983Y835639D01*
X455319Y834647D01*
X455590Y833635D01*
X455795Y832608D01*
X455932Y831569D01*
X456000Y830524D01*
X456000Y829476D01*
X687720Y113490D02*
X686641Y113561D01*
X685569Y113702D01*
X684509Y113913D01*
X683465Y114192D01*
X682441Y114540D01*
X681443Y114954D01*
X680473Y115432D01*
X679537Y115972D01*
X678638Y116573D01*
X677781Y117231D01*
X676968Y117944D01*
X676204Y118708D01*
X675491Y119521D01*
X674833Y120378D01*
X674232Y121277D01*
X673692Y122213D01*
X673214Y123183D01*
X672800Y124181D01*
X672452Y125205D01*
X672173Y126249D01*
X671962Y127309D01*
X671821Y128381D01*
X671750Y129460D01*
X671750Y130540D01*
X671821Y131619D01*
X671962Y132691D01*
X672173Y133751D01*
X672452Y134795D01*
X672800Y135819D01*
X673214Y136817D01*
X673692Y137787D01*
X674232Y138723D01*
X674833Y139622D01*
X675491Y140479D01*
X676204Y141292D01*
X676968Y142057D01*
X677781Y142769D01*
X678638Y143427D01*
X679537Y144028D01*
X680473Y144568D01*
X681443Y145046D01*
X682441Y145460D01*
X683465Y145808D01*
X684509Y146087D01*
X685569Y146298D01*
X686641Y146439D01*
X687720Y146510D01*
X688800Y146510D01*
X689879Y146439D01*
X690951Y146298D01*
X692011Y146087D01*
X693055Y145808D01*
X694079Y145460D01*
X695077Y145046D01*
X696047Y144568D01*
X696983Y144028D01*
X697882Y143427D01*
X698739Y142769D01*
X699552Y142057D01*
X700317Y141292D01*
X701029Y140479D01*
X701687Y139622D01*
X702288Y138723D01*
X702828Y137787D01*
X703306Y136817D01*
X703720Y135819D01*
X704068Y134795D01*
X704347Y133751D01*
X704558Y132691D01*
X704699Y131619D01*
X704770Y130540D01*
X704770Y129460D01*
X704699Y128381D01*
X704558Y127309D01*
X704347Y126249D01*
X704068Y125205D01*
X703720Y124181D01*
X703306Y123183D01*
X702828Y122213D01*
X702288Y121277D01*
X701687Y120378D01*
X701029Y119521D01*
X700317Y118708D01*
X699552Y117944D01*
X698739Y117231D01*
X697882Y116573D01*
X696983Y115972D01*
X696047Y115432D01*
X695077Y114954D01*
X694079Y114540D01*
X693055Y114192D01*
X692011Y113913D01*
X690951Y113702D01*
X689879Y113561D01*
X688800Y113490D01*
X687720Y113490D01*
M02*
