G04 EAGLE Gerber RS-274X export*
G75*
%MOMM*%
%FSLAX34Y34*%
%LPD*%
%INSilkscreen Top*%
%IPPOS*%
%AMOC8*
5,1,8,0,0,1.08239X$1,22.5*%
G01*
%ADD10C,0.152400*%
%ADD11C,0.050800*%
%ADD12R,0.635000X0.762000*%
%ADD13R,2.794000X1.270000*%
%ADD14C,0.101600*%
%ADD15C,0.127000*%
%ADD16C,0.076200*%
%ADD17C,0.406400*%
%ADD18C,0.100000*%
%ADD19C,0.200000*%


D10*
X563800Y182070D02*
X563800Y77930D01*
X722550Y77930D02*
X722550Y182070D01*
X688260Y77930D02*
X563800Y77930D01*
X688260Y77930D02*
X688260Y86820D01*
X703500Y86820D01*
X703500Y77930D01*
X722550Y77930D01*
X688260Y182070D02*
X563800Y182070D01*
X688260Y182070D02*
X688260Y173180D01*
X703500Y173180D01*
X703500Y182070D01*
X722550Y182070D01*
D11*
X570150Y175720D02*
X570150Y84280D01*
X652700Y84280D01*
X652700Y175720D01*
X570150Y175720D01*
D10*
X670226Y130000D02*
X670231Y130443D01*
X670248Y130885D01*
X670275Y131327D01*
X670313Y131768D01*
X670362Y132208D01*
X670421Y132646D01*
X670492Y133083D01*
X670573Y133518D01*
X670664Y133951D01*
X670766Y134382D01*
X670879Y134810D01*
X671003Y135235D01*
X671136Y135657D01*
X671280Y136075D01*
X671434Y136490D01*
X671599Y136901D01*
X671773Y137308D01*
X671957Y137711D01*
X672152Y138108D01*
X672355Y138501D01*
X672569Y138889D01*
X672792Y139271D01*
X673024Y139648D01*
X673265Y140019D01*
X673516Y140384D01*
X673775Y140743D01*
X674043Y141095D01*
X674320Y141441D01*
X674604Y141779D01*
X674898Y142111D01*
X675199Y142435D01*
X675508Y142752D01*
X675825Y143061D01*
X676149Y143362D01*
X676481Y143656D01*
X676819Y143940D01*
X677165Y144217D01*
X677517Y144485D01*
X677876Y144744D01*
X678241Y144995D01*
X678612Y145236D01*
X678989Y145468D01*
X679371Y145691D01*
X679759Y145905D01*
X680152Y146108D01*
X680549Y146303D01*
X680952Y146487D01*
X681359Y146661D01*
X681770Y146826D01*
X682185Y146980D01*
X682603Y147124D01*
X683025Y147257D01*
X683450Y147381D01*
X683878Y147494D01*
X684309Y147596D01*
X684742Y147687D01*
X685177Y147768D01*
X685614Y147839D01*
X686052Y147898D01*
X686492Y147947D01*
X686933Y147985D01*
X687375Y148012D01*
X687817Y148029D01*
X688260Y148034D01*
X688703Y148029D01*
X689145Y148012D01*
X689587Y147985D01*
X690028Y147947D01*
X690468Y147898D01*
X690906Y147839D01*
X691343Y147768D01*
X691778Y147687D01*
X692211Y147596D01*
X692642Y147494D01*
X693070Y147381D01*
X693495Y147257D01*
X693917Y147124D01*
X694335Y146980D01*
X694750Y146826D01*
X695161Y146661D01*
X695568Y146487D01*
X695971Y146303D01*
X696368Y146108D01*
X696761Y145905D01*
X697149Y145691D01*
X697531Y145468D01*
X697908Y145236D01*
X698279Y144995D01*
X698644Y144744D01*
X699003Y144485D01*
X699355Y144217D01*
X699701Y143940D01*
X700039Y143656D01*
X700371Y143362D01*
X700695Y143061D01*
X701012Y142752D01*
X701321Y142435D01*
X701622Y142111D01*
X701916Y141779D01*
X702200Y141441D01*
X702477Y141095D01*
X702745Y140743D01*
X703004Y140384D01*
X703255Y140019D01*
X703496Y139648D01*
X703728Y139271D01*
X703951Y138889D01*
X704165Y138501D01*
X704368Y138108D01*
X704563Y137711D01*
X704747Y137308D01*
X704921Y136901D01*
X705086Y136490D01*
X705240Y136075D01*
X705384Y135657D01*
X705517Y135235D01*
X705641Y134810D01*
X705754Y134382D01*
X705856Y133951D01*
X705947Y133518D01*
X706028Y133083D01*
X706099Y132646D01*
X706158Y132208D01*
X706207Y131768D01*
X706245Y131327D01*
X706272Y130885D01*
X706289Y130443D01*
X706294Y130000D01*
X706289Y129557D01*
X706272Y129115D01*
X706245Y128673D01*
X706207Y128232D01*
X706158Y127792D01*
X706099Y127354D01*
X706028Y126917D01*
X705947Y126482D01*
X705856Y126049D01*
X705754Y125618D01*
X705641Y125190D01*
X705517Y124765D01*
X705384Y124343D01*
X705240Y123925D01*
X705086Y123510D01*
X704921Y123099D01*
X704747Y122692D01*
X704563Y122289D01*
X704368Y121892D01*
X704165Y121499D01*
X703951Y121111D01*
X703728Y120729D01*
X703496Y120352D01*
X703255Y119981D01*
X703004Y119616D01*
X702745Y119257D01*
X702477Y118905D01*
X702200Y118559D01*
X701916Y118221D01*
X701622Y117889D01*
X701321Y117565D01*
X701012Y117248D01*
X700695Y116939D01*
X700371Y116638D01*
X700039Y116344D01*
X699701Y116060D01*
X699355Y115783D01*
X699003Y115515D01*
X698644Y115256D01*
X698279Y115005D01*
X697908Y114764D01*
X697531Y114532D01*
X697149Y114309D01*
X696761Y114095D01*
X696368Y113892D01*
X695971Y113697D01*
X695568Y113513D01*
X695161Y113339D01*
X694750Y113174D01*
X694335Y113020D01*
X693917Y112876D01*
X693495Y112743D01*
X693070Y112619D01*
X692642Y112506D01*
X692211Y112404D01*
X691778Y112313D01*
X691343Y112232D01*
X690906Y112161D01*
X690468Y112102D01*
X690028Y112053D01*
X689587Y112015D01*
X689145Y111988D01*
X688703Y111971D01*
X688260Y111966D01*
X687817Y111971D01*
X687375Y111988D01*
X686933Y112015D01*
X686492Y112053D01*
X686052Y112102D01*
X685614Y112161D01*
X685177Y112232D01*
X684742Y112313D01*
X684309Y112404D01*
X683878Y112506D01*
X683450Y112619D01*
X683025Y112743D01*
X682603Y112876D01*
X682185Y113020D01*
X681770Y113174D01*
X681359Y113339D01*
X680952Y113513D01*
X680549Y113697D01*
X680152Y113892D01*
X679759Y114095D01*
X679371Y114309D01*
X678989Y114532D01*
X678612Y114764D01*
X678241Y115005D01*
X677876Y115256D01*
X677517Y115515D01*
X677165Y115783D01*
X676819Y116060D01*
X676481Y116344D01*
X676149Y116638D01*
X675825Y116939D01*
X675508Y117248D01*
X675199Y117565D01*
X674898Y117889D01*
X674604Y118221D01*
X674320Y118559D01*
X674043Y118905D01*
X673775Y119257D01*
X673516Y119616D01*
X673265Y119981D01*
X673024Y120352D01*
X672792Y120729D01*
X672569Y121111D01*
X672355Y121499D01*
X672152Y121892D01*
X671957Y122289D01*
X671773Y122692D01*
X671599Y123099D01*
X671434Y123510D01*
X671280Y123925D01*
X671136Y124343D01*
X671003Y124765D01*
X670879Y125190D01*
X670766Y125618D01*
X670664Y126049D01*
X670573Y126482D01*
X670492Y126917D01*
X670421Y127354D01*
X670362Y127792D01*
X670313Y128232D01*
X670275Y128673D01*
X670248Y129115D01*
X670231Y129557D01*
X670226Y130000D01*
D12*
X532685Y104600D03*
X532685Y130000D03*
X532685Y155400D03*
D13*
X549830Y155400D03*
X549830Y130000D03*
X549830Y104600D03*
D14*
X630508Y50508D02*
X633505Y50508D01*
X632007Y50508D02*
X632007Y59500D01*
X633505Y59500D02*
X630508Y59500D01*
X641142Y59500D02*
X642641Y58001D01*
X641142Y59500D02*
X638145Y59500D01*
X636647Y58001D01*
X636647Y52007D01*
X638145Y50508D01*
X641142Y50508D01*
X642641Y52007D01*
X645854Y50508D02*
X651849Y50508D01*
X651849Y56502D02*
X645854Y50508D01*
X651849Y56502D02*
X651849Y58001D01*
X650350Y59500D01*
X647353Y59500D01*
X645854Y58001D01*
D15*
X692500Y804500D02*
X787500Y804500D01*
X787500Y875000D02*
X775000Y875000D01*
X705000Y875000D01*
X692500Y875000D01*
X692500Y804500D01*
X787500Y804500D02*
X787500Y875000D01*
D16*
X730381Y789627D02*
X730381Y780381D01*
X730381Y789627D02*
X735004Y789627D01*
X736545Y788086D01*
X736545Y785004D01*
X735004Y783463D01*
X730381Y783463D01*
X733463Y783463D02*
X736545Y780381D01*
X739589Y780381D02*
X745753Y780381D01*
X739589Y780381D02*
X745753Y786545D01*
X745753Y788086D01*
X744212Y789627D01*
X741130Y789627D01*
X739589Y788086D01*
X751879Y788086D02*
X754961Y789627D01*
X751879Y788086D02*
X748797Y785004D01*
X748797Y781922D01*
X750338Y780381D01*
X753420Y780381D01*
X754961Y781922D01*
X754961Y783463D01*
X753420Y785004D01*
X748797Y785004D01*
D15*
X183500Y155000D02*
X183500Y80940D01*
X183500Y155000D02*
X116500Y155000D01*
D17*
X142860Y48000D02*
X157140Y48000D01*
D15*
X116500Y80940D02*
X116500Y155000D01*
X139700Y28000D02*
X160300Y28000D01*
D16*
X95373Y126588D02*
X96914Y128129D01*
X95373Y126588D02*
X95373Y123506D01*
X96914Y121965D01*
X98455Y121965D01*
X99996Y123506D01*
X99996Y126588D01*
X101537Y128129D01*
X103078Y128129D01*
X104619Y126588D01*
X104619Y123506D01*
X103078Y121965D01*
X104619Y131173D02*
X104619Y137337D01*
X104619Y131173D02*
X98455Y137337D01*
X96914Y137337D01*
X95373Y135796D01*
X95373Y132714D01*
X96914Y131173D01*
D18*
X81500Y854370D02*
X81500Y874370D01*
X198500Y874370D01*
X198500Y854370D01*
X150000Y807370D02*
X130000Y807370D01*
D16*
X135004Y789627D02*
X136545Y788086D01*
X135004Y789627D02*
X131922Y789627D01*
X130381Y788086D01*
X130381Y786545D01*
X131922Y785004D01*
X135004Y785004D01*
X136545Y783463D01*
X136545Y781922D01*
X135004Y780381D01*
X131922Y780381D01*
X130381Y781922D01*
X139589Y786545D02*
X142671Y789627D01*
X142671Y780381D01*
X139589Y780381D02*
X145753Y780381D01*
D15*
X559200Y712700D02*
X660800Y712700D01*
X660800Y687300D01*
X559200Y687300D01*
X559200Y712700D01*
D19*
X571500Y680000D02*
X571502Y680063D01*
X571508Y680125D01*
X571518Y680187D01*
X571531Y680249D01*
X571549Y680309D01*
X571570Y680368D01*
X571595Y680426D01*
X571624Y680482D01*
X571656Y680536D01*
X571691Y680588D01*
X571729Y680637D01*
X571771Y680685D01*
X571815Y680729D01*
X571863Y680771D01*
X571912Y680809D01*
X571964Y680844D01*
X572018Y680876D01*
X572074Y680905D01*
X572132Y680930D01*
X572191Y680951D01*
X572251Y680969D01*
X572313Y680982D01*
X572375Y680992D01*
X572437Y680998D01*
X572500Y681000D01*
X572563Y680998D01*
X572625Y680992D01*
X572687Y680982D01*
X572749Y680969D01*
X572809Y680951D01*
X572868Y680930D01*
X572926Y680905D01*
X572982Y680876D01*
X573036Y680844D01*
X573088Y680809D01*
X573137Y680771D01*
X573185Y680729D01*
X573229Y680685D01*
X573271Y680637D01*
X573309Y680588D01*
X573344Y680536D01*
X573376Y680482D01*
X573405Y680426D01*
X573430Y680368D01*
X573451Y680309D01*
X573469Y680249D01*
X573482Y680187D01*
X573492Y680125D01*
X573498Y680063D01*
X573500Y680000D01*
X573498Y679937D01*
X573492Y679875D01*
X573482Y679813D01*
X573469Y679751D01*
X573451Y679691D01*
X573430Y679632D01*
X573405Y679574D01*
X573376Y679518D01*
X573344Y679464D01*
X573309Y679412D01*
X573271Y679363D01*
X573229Y679315D01*
X573185Y679271D01*
X573137Y679229D01*
X573088Y679191D01*
X573036Y679156D01*
X572982Y679124D01*
X572926Y679095D01*
X572868Y679070D01*
X572809Y679049D01*
X572749Y679031D01*
X572687Y679018D01*
X572625Y679008D01*
X572563Y679002D01*
X572500Y679000D01*
X572437Y679002D01*
X572375Y679008D01*
X572313Y679018D01*
X572251Y679031D01*
X572191Y679049D01*
X572132Y679070D01*
X572074Y679095D01*
X572018Y679124D01*
X571964Y679156D01*
X571912Y679191D01*
X571863Y679229D01*
X571815Y679271D01*
X571771Y679315D01*
X571729Y679363D01*
X571691Y679412D01*
X571656Y679464D01*
X571624Y679518D01*
X571595Y679574D01*
X571570Y679632D01*
X571549Y679691D01*
X571531Y679751D01*
X571518Y679813D01*
X571508Y679875D01*
X571502Y679937D01*
X571500Y680000D01*
D14*
X608087Y720508D02*
X602092Y729500D01*
X608087Y729500D02*
X602092Y720508D01*
X611300Y720508D02*
X617295Y720508D01*
X617295Y726502D02*
X611300Y720508D01*
X617295Y726502D02*
X617295Y728001D01*
X615796Y729500D01*
X612799Y729500D01*
X611300Y728001D01*
D19*
X271000Y92500D02*
X271002Y92563D01*
X271008Y92625D01*
X271018Y92687D01*
X271031Y92749D01*
X271049Y92809D01*
X271070Y92868D01*
X271095Y92926D01*
X271124Y92982D01*
X271156Y93036D01*
X271191Y93088D01*
X271229Y93137D01*
X271271Y93185D01*
X271315Y93229D01*
X271363Y93271D01*
X271412Y93309D01*
X271464Y93344D01*
X271518Y93376D01*
X271574Y93405D01*
X271632Y93430D01*
X271691Y93451D01*
X271751Y93469D01*
X271813Y93482D01*
X271875Y93492D01*
X271937Y93498D01*
X272000Y93500D01*
X272063Y93498D01*
X272125Y93492D01*
X272187Y93482D01*
X272249Y93469D01*
X272309Y93451D01*
X272368Y93430D01*
X272426Y93405D01*
X272482Y93376D01*
X272536Y93344D01*
X272588Y93309D01*
X272637Y93271D01*
X272685Y93229D01*
X272729Y93185D01*
X272771Y93137D01*
X272809Y93088D01*
X272844Y93036D01*
X272876Y92982D01*
X272905Y92926D01*
X272930Y92868D01*
X272951Y92809D01*
X272969Y92749D01*
X272982Y92687D01*
X272992Y92625D01*
X272998Y92563D01*
X273000Y92500D01*
X272998Y92437D01*
X272992Y92375D01*
X272982Y92313D01*
X272969Y92251D01*
X272951Y92191D01*
X272930Y92132D01*
X272905Y92074D01*
X272876Y92018D01*
X272844Y91964D01*
X272809Y91912D01*
X272771Y91863D01*
X272729Y91815D01*
X272685Y91771D01*
X272637Y91729D01*
X272588Y91691D01*
X272536Y91656D01*
X272482Y91624D01*
X272426Y91595D01*
X272368Y91570D01*
X272309Y91549D01*
X272249Y91531D01*
X272187Y91518D01*
X272125Y91508D01*
X272063Y91502D01*
X272000Y91500D01*
X271937Y91502D01*
X271875Y91508D01*
X271813Y91518D01*
X271751Y91531D01*
X271691Y91549D01*
X271632Y91570D01*
X271574Y91595D01*
X271518Y91624D01*
X271464Y91656D01*
X271412Y91691D01*
X271363Y91729D01*
X271315Y91771D01*
X271271Y91815D01*
X271229Y91863D01*
X271191Y91912D01*
X271156Y91964D01*
X271124Y92018D01*
X271095Y92074D01*
X271070Y92132D01*
X271049Y92191D01*
X271031Y92251D01*
X271018Y92313D01*
X271008Y92375D01*
X271002Y92437D01*
X271000Y92500D01*
D15*
X260000Y68000D02*
X310000Y68000D01*
X322500Y23000D02*
X322500Y10000D01*
X247500Y10000D02*
X247500Y23000D01*
X247500Y10000D02*
X322500Y10000D01*
D16*
X288129Y95381D02*
X281965Y104627D01*
X288129Y104627D02*
X281965Y95381D01*
X295796Y95381D02*
X295796Y104627D01*
X291173Y100004D01*
X297337Y100004D01*
M02*
