G04 EAGLE Gerber RS-274X export*
G75*
%MOMM*%
%FSLAX34Y34*%
%LPD*%
%INSilkscreen Bottom*%
%IPPOS*%
%AMOC8*
5,1,8,0,0,1.08239X$1,22.5*%
G01*
%ADD10C,0.228600*%
%ADD11C,0.076200*%
%ADD12C,0.203200*%
%ADD13C,0.127000*%
%ADD14C,0.800000*%
%ADD15C,0.152400*%
%ADD16C,0.101600*%
%ADD17C,0.100000*%


D10*
X123143Y510143D02*
X135868Y510143D01*
X135868Y516505D01*
X133747Y518626D01*
X131626Y518626D01*
X129505Y516505D01*
X127385Y518626D01*
X125264Y518626D01*
X123143Y516505D01*
X123143Y510143D01*
X129505Y510143D02*
X129505Y516505D01*
X123143Y526076D02*
X123143Y530317D01*
X125264Y532438D01*
X129505Y532438D01*
X131626Y530317D01*
X131626Y526076D01*
X129505Y523955D01*
X125264Y523955D01*
X123143Y526076D01*
X125264Y539887D02*
X133747Y539887D01*
X125264Y539887D02*
X123143Y542008D01*
X131626Y542008D02*
X131626Y537767D01*
X133747Y549095D02*
X125264Y549095D01*
X123143Y551216D01*
X131626Y551216D02*
X131626Y546974D01*
X135868Y556182D02*
X135868Y558303D01*
X123143Y558303D01*
X123143Y556182D02*
X123143Y560424D01*
X123143Y567511D02*
X123143Y571753D01*
X123143Y567511D02*
X125264Y565390D01*
X129505Y565390D01*
X131626Y567511D01*
X131626Y571753D01*
X129505Y573873D01*
X127385Y573873D01*
X127385Y565390D01*
X123143Y579202D02*
X135868Y579202D01*
X123143Y579202D02*
X123143Y587685D01*
X131626Y593014D02*
X131626Y595134D01*
X123143Y595134D01*
X123143Y593014D02*
X123143Y597255D01*
X135868Y595134D02*
X137989Y595134D01*
X118901Y606463D02*
X118901Y608584D01*
X121022Y610705D01*
X131626Y610705D01*
X131626Y604342D01*
X129505Y602222D01*
X125264Y602222D01*
X123143Y604342D01*
X123143Y610705D01*
X123143Y616033D02*
X135868Y616033D01*
X131626Y618154D02*
X129505Y616033D01*
X131626Y618154D02*
X131626Y622396D01*
X129505Y624517D01*
X123143Y624517D01*
X125264Y631966D02*
X133747Y631966D01*
X125264Y631966D02*
X123143Y634087D01*
X131626Y634087D02*
X131626Y629845D01*
X100643Y514385D02*
X109126Y510143D01*
X109126Y518626D02*
X100643Y514385D01*
X102764Y523955D02*
X111247Y523955D01*
X113368Y526076D01*
X113368Y530317D01*
X111247Y532438D01*
X102764Y532438D01*
X100643Y530317D01*
X100643Y526076D01*
X102764Y523955D01*
X111247Y532438D01*
X102764Y537767D02*
X100643Y537767D01*
X102764Y537767D02*
X102764Y539887D01*
X100643Y539887D01*
X100643Y537767D01*
X100643Y544672D02*
X100643Y553156D01*
X109126Y553156D02*
X100643Y544672D01*
X109126Y553156D02*
X111247Y553156D01*
X113368Y551035D01*
X113368Y546793D01*
X111247Y544672D01*
X102764Y558484D02*
X100643Y558484D01*
X102764Y558484D02*
X102764Y560605D01*
X100643Y560605D01*
X100643Y558484D01*
X113368Y565390D02*
X113368Y573873D01*
X111247Y573873D01*
X102764Y565390D01*
X100643Y565390D01*
X78143Y518626D02*
X78143Y510143D01*
X86626Y518626D01*
X88747Y518626D01*
X90868Y516505D01*
X90868Y512264D01*
X88747Y510143D01*
X90868Y523955D02*
X90868Y532438D01*
X88747Y532438D01*
X80264Y523955D01*
X78143Y523955D01*
X78143Y537767D02*
X80264Y537767D01*
X80264Y539887D01*
X78143Y539887D01*
X78143Y537767D01*
X80264Y544672D02*
X88747Y544672D01*
X90868Y546793D01*
X90868Y551035D01*
X88747Y553156D01*
X80264Y553156D01*
X78143Y551035D01*
X78143Y546793D01*
X80264Y544672D01*
X88747Y553156D01*
X88747Y562726D02*
X90868Y566967D01*
X88747Y562726D02*
X84505Y558484D01*
X80264Y558484D01*
X78143Y560605D01*
X78143Y564847D01*
X80264Y566967D01*
X82385Y566967D01*
X84505Y564847D01*
X84505Y558484D01*
X80264Y572296D02*
X78143Y572296D01*
X80264Y572296D02*
X80264Y574417D01*
X78143Y574417D01*
X78143Y572296D01*
X78143Y579202D02*
X78143Y587685D01*
X78143Y579202D02*
X86626Y587685D01*
X88747Y587685D01*
X90868Y585564D01*
X90868Y581323D01*
X88747Y579202D01*
X88747Y593014D02*
X80264Y593014D01*
X88747Y593014D02*
X90868Y595134D01*
X90868Y599376D01*
X88747Y601497D01*
X80264Y601497D01*
X78143Y599376D01*
X78143Y595134D01*
X80264Y593014D01*
X88747Y601497D01*
X86626Y606825D02*
X90868Y611067D01*
X78143Y611067D01*
X78143Y606825D02*
X78143Y615309D01*
X80264Y620637D02*
X78143Y622758D01*
X78143Y627000D01*
X80264Y629120D01*
X88747Y629120D01*
X90868Y627000D01*
X90868Y622758D01*
X88747Y620637D01*
X86626Y620637D01*
X84505Y622758D01*
X84505Y629120D01*
X68368Y510143D02*
X55643Y510143D01*
X62005Y510143D02*
X62005Y518626D01*
X55643Y518626D02*
X68368Y518626D01*
X64126Y526076D02*
X64126Y530317D01*
X62005Y532438D01*
X55643Y532438D01*
X55643Y526076D01*
X57764Y523955D01*
X59885Y526076D01*
X59885Y532438D01*
X64126Y537767D02*
X55643Y537767D01*
X64126Y537767D02*
X64126Y544129D01*
X62005Y546250D01*
X55643Y546250D01*
X55643Y551578D02*
X55643Y557941D01*
X57764Y560062D01*
X59885Y557941D01*
X59885Y553699D01*
X62005Y551578D01*
X64126Y553699D01*
X64126Y560062D01*
X64126Y565390D02*
X55643Y565390D01*
X64126Y565390D02*
X68368Y569632D01*
X64126Y573873D01*
X55643Y573873D01*
X62005Y573873D02*
X62005Y565390D01*
X64126Y581323D02*
X64126Y587685D01*
X64126Y581323D02*
X62005Y579202D01*
X57764Y579202D01*
X55643Y581323D01*
X55643Y587685D01*
X55643Y593014D02*
X68368Y593014D01*
X64126Y595135D02*
X62005Y593014D01*
X64126Y595135D02*
X64126Y599376D01*
X62005Y601497D01*
X55643Y601497D01*
X57764Y608946D02*
X66247Y608946D01*
X57764Y608946D02*
X55643Y611067D01*
X64126Y611067D02*
X64126Y606825D01*
X55643Y618154D02*
X55643Y622396D01*
X55643Y618154D02*
X57764Y616033D01*
X62005Y616033D01*
X64126Y618154D01*
X64126Y622396D01*
X62005Y624517D01*
X59885Y624517D01*
X59885Y616033D01*
X55643Y629845D02*
X64126Y629845D01*
X59885Y629845D02*
X64126Y634087D01*
X64126Y636208D01*
X68368Y641355D02*
X55643Y641355D01*
X55643Y647717D01*
X57764Y649838D01*
X62005Y649838D01*
X64126Y647717D01*
X64126Y641355D01*
X64126Y657288D02*
X64126Y661529D01*
X62005Y663650D01*
X55643Y663650D01*
X55643Y657288D01*
X57764Y655167D01*
X59885Y657288D01*
X59885Y663650D01*
X55643Y668978D02*
X68368Y668978D01*
X64126Y671099D02*
X62005Y668978D01*
X64126Y671099D02*
X64126Y675341D01*
X62005Y677462D01*
X55643Y677462D01*
X55643Y682790D02*
X64126Y682790D01*
X64126Y689153D01*
X62005Y691274D01*
X55643Y691274D01*
X45868Y510143D02*
X33143Y510143D01*
X41626Y514385D02*
X45868Y510143D01*
X41626Y514385D02*
X45868Y518626D01*
X33143Y518626D01*
X33143Y523955D02*
X33143Y528196D01*
X33143Y526076D02*
X45868Y526076D01*
X45868Y528196D02*
X45868Y523955D01*
X45868Y537404D02*
X33143Y537404D01*
X45868Y533163D02*
X45868Y541646D01*
X45868Y560786D02*
X33143Y560786D01*
X33143Y569269D01*
X41626Y574598D02*
X41626Y576719D01*
X33143Y576719D01*
X33143Y574598D02*
X33143Y578840D01*
X45868Y576719D02*
X47989Y576719D01*
X41626Y585927D02*
X41626Y592289D01*
X41626Y585927D02*
X39505Y583806D01*
X35264Y583806D01*
X33143Y585927D01*
X33143Y592289D01*
X33143Y599738D02*
X33143Y603980D01*
X33143Y599738D02*
X35264Y597618D01*
X39505Y597618D01*
X41626Y599738D01*
X41626Y603980D01*
X39505Y606101D01*
X37385Y606101D01*
X37385Y597618D01*
X33143Y611429D02*
X41626Y611429D01*
X41626Y617792D01*
X39505Y619913D01*
X33143Y619913D01*
X41626Y627362D02*
X41626Y633724D01*
X41626Y627362D02*
X39505Y625241D01*
X35264Y625241D01*
X33143Y627362D01*
X33143Y633724D01*
X33143Y641174D02*
X33143Y645415D01*
X33143Y641174D02*
X35264Y639053D01*
X39505Y639053D01*
X41626Y641174D01*
X41626Y645415D01*
X39505Y647536D01*
X37385Y647536D01*
X37385Y639053D01*
D11*
X683455Y470586D02*
X684996Y472127D01*
X688078Y472127D01*
X689619Y470586D01*
X689619Y464422D01*
X688078Y462881D01*
X684996Y462881D01*
X683455Y464422D01*
X680411Y469045D02*
X677329Y472127D01*
X677329Y462881D01*
X680411Y462881D02*
X674247Y462881D01*
X615586Y161545D02*
X617127Y160004D01*
X617127Y156922D01*
X615586Y155381D01*
X609422Y155381D01*
X607881Y156922D01*
X607881Y160004D01*
X609422Y161545D01*
X614045Y164589D02*
X617127Y167671D01*
X607881Y167671D01*
X607881Y164589D02*
X607881Y170753D01*
X607881Y173797D02*
X607881Y179961D01*
X607881Y173797D02*
X614045Y179961D01*
X615586Y179961D01*
X617127Y178420D01*
X617127Y175338D01*
X615586Y173797D01*
D12*
X621500Y121500D02*
X621500Y77500D01*
X621500Y121500D02*
X606000Y121500D01*
X584000Y121500D02*
X568500Y121500D01*
X568500Y77500D01*
X577500Y68500D02*
X584000Y68500D01*
X606000Y68500D02*
X612500Y68500D01*
X621500Y77500D01*
X577500Y68500D02*
X568500Y77500D01*
X604500Y73000D02*
X605036Y73239D01*
X605566Y73491D01*
X606089Y73756D01*
X606606Y74034D01*
X607116Y74325D01*
X607619Y74627D01*
X608114Y74942D01*
X608601Y75270D01*
X609080Y75609D01*
X609550Y75959D01*
X610012Y76321D01*
X610465Y76694D01*
X610909Y77078D01*
X611343Y77473D01*
X611767Y77879D01*
X612181Y78294D01*
X612585Y78720D01*
X612979Y79156D01*
X613361Y79601D01*
X613733Y80055D01*
X614093Y80518D01*
X614442Y80990D01*
X614779Y81470D01*
X615104Y81958D01*
X615418Y82454D01*
X615719Y82958D01*
X616007Y83469D01*
X616283Y83987D01*
X616547Y84511D01*
X616797Y85042D01*
X617034Y85579D01*
X617258Y86121D01*
X617469Y86669D01*
X617666Y87221D01*
X617850Y87779D01*
X618020Y88340D01*
X618176Y88906D01*
X618318Y89475D01*
X618447Y90048D01*
X618561Y90624D01*
X618661Y91202D01*
X618747Y91782D01*
X618819Y92365D01*
X618876Y92949D01*
X618919Y93534D01*
X618948Y94120D01*
X618962Y94707D01*
X618962Y95293D01*
X618948Y95880D01*
X618919Y96466D01*
X618876Y97051D01*
X618819Y97635D01*
X618747Y98218D01*
X618661Y98798D01*
X618561Y99376D01*
X618447Y99952D01*
X618318Y100525D01*
X618176Y101094D01*
X618020Y101660D01*
X617850Y102221D01*
X617666Y102779D01*
X617469Y103331D01*
X617258Y103879D01*
X617034Y104421D01*
X616797Y104958D01*
X616547Y105489D01*
X616283Y106013D01*
X616007Y106531D01*
X615719Y107042D01*
X615418Y107546D01*
X615104Y108042D01*
X614779Y108530D01*
X614442Y109010D01*
X614093Y109482D01*
X613733Y109945D01*
X613361Y110399D01*
X612979Y110844D01*
X612585Y111280D01*
X612181Y111706D01*
X611767Y112121D01*
X611343Y112527D01*
X610909Y112922D01*
X610465Y113306D01*
X610012Y113679D01*
X609550Y114041D01*
X609080Y114391D01*
X608601Y114730D01*
X608114Y115058D01*
X607619Y115373D01*
X607116Y115675D01*
X606606Y115966D01*
X606089Y116244D01*
X605566Y116509D01*
X605036Y116761D01*
X604500Y117000D01*
X585500Y117000D02*
X584964Y116761D01*
X584434Y116509D01*
X583911Y116244D01*
X583394Y115966D01*
X582884Y115675D01*
X582381Y115373D01*
X581886Y115058D01*
X581399Y114730D01*
X580920Y114391D01*
X580450Y114041D01*
X579988Y113679D01*
X579535Y113306D01*
X579091Y112922D01*
X578657Y112527D01*
X578233Y112121D01*
X577819Y111706D01*
X577415Y111280D01*
X577021Y110844D01*
X576639Y110399D01*
X576267Y109945D01*
X575907Y109482D01*
X575558Y109010D01*
X575221Y108530D01*
X574896Y108042D01*
X574582Y107546D01*
X574281Y107042D01*
X573993Y106531D01*
X573717Y106013D01*
X573453Y105489D01*
X573203Y104958D01*
X572966Y104421D01*
X572742Y103879D01*
X572531Y103331D01*
X572334Y102779D01*
X572150Y102221D01*
X571980Y101660D01*
X571824Y101094D01*
X571682Y100525D01*
X571553Y99952D01*
X571439Y99376D01*
X571339Y98798D01*
X571253Y98218D01*
X571181Y97635D01*
X571124Y97051D01*
X571081Y96466D01*
X571052Y95880D01*
X571038Y95293D01*
X571038Y94707D01*
X571052Y94120D01*
X571081Y93534D01*
X571124Y92949D01*
X571181Y92365D01*
X571253Y91782D01*
X571339Y91202D01*
X571439Y90624D01*
X571553Y90048D01*
X571682Y89475D01*
X571824Y88906D01*
X571980Y88340D01*
X572150Y87779D01*
X572334Y87221D01*
X572531Y86669D01*
X572742Y86121D01*
X572966Y85579D01*
X573203Y85042D01*
X573453Y84511D01*
X573717Y83987D01*
X573993Y83469D01*
X574281Y82958D01*
X574582Y82454D01*
X574896Y81958D01*
X575221Y81470D01*
X575558Y80990D01*
X575907Y80518D01*
X576267Y80055D01*
X576639Y79601D01*
X577021Y79156D01*
X577415Y78720D01*
X577819Y78294D01*
X578233Y77879D01*
X578657Y77473D01*
X579091Y77078D01*
X579535Y76694D01*
X579988Y76321D01*
X580450Y75959D01*
X580920Y75609D01*
X581399Y75270D01*
X581886Y74942D01*
X582381Y74627D01*
X582884Y74325D01*
X583394Y74034D01*
X583911Y73756D01*
X584434Y73491D01*
X584964Y73239D01*
X585500Y73000D01*
D11*
X635586Y91545D02*
X637127Y90004D01*
X637127Y86922D01*
X635586Y85381D01*
X629422Y85381D01*
X627881Y86922D01*
X627881Y90004D01*
X629422Y91545D01*
X634045Y94589D02*
X637127Y97671D01*
X627881Y97671D01*
X627881Y94589D02*
X627881Y100753D01*
X635586Y103797D02*
X637127Y105338D01*
X637127Y108420D01*
X635586Y109961D01*
X634045Y109961D01*
X632504Y108420D01*
X632504Y106879D01*
X632504Y108420D02*
X630963Y109961D01*
X629422Y109961D01*
X627881Y108420D01*
X627881Y105338D01*
X629422Y103797D01*
X683455Y485586D02*
X684996Y487127D01*
X688078Y487127D01*
X689619Y485586D01*
X689619Y479422D01*
X688078Y477881D01*
X684996Y477881D01*
X683455Y479422D01*
X680411Y477881D02*
X674247Y477881D01*
X680411Y477881D02*
X674247Y484045D01*
X674247Y485586D01*
X675788Y487127D01*
X678870Y487127D01*
X680411Y485586D01*
X770955Y698086D02*
X772496Y699627D01*
X775578Y699627D01*
X777119Y698086D01*
X777119Y691922D01*
X775578Y690381D01*
X772496Y690381D01*
X770955Y691922D01*
X767911Y698086D02*
X766370Y699627D01*
X763288Y699627D01*
X761747Y698086D01*
X761747Y696545D01*
X763288Y695004D01*
X764829Y695004D01*
X763288Y695004D02*
X761747Y693463D01*
X761747Y691922D01*
X763288Y690381D01*
X766370Y690381D01*
X767911Y691922D01*
X684996Y549627D02*
X683455Y548086D01*
X684996Y549627D02*
X688078Y549627D01*
X689619Y548086D01*
X689619Y541922D01*
X688078Y540381D01*
X684996Y540381D01*
X683455Y541922D01*
X675788Y540381D02*
X675788Y549627D01*
X680411Y545004D01*
X674247Y545004D01*
X684996Y502127D02*
X683455Y500586D01*
X684996Y502127D02*
X688078Y502127D01*
X689619Y500586D01*
X689619Y494422D01*
X688078Y492881D01*
X684996Y492881D01*
X683455Y494422D01*
X680411Y502127D02*
X674247Y502127D01*
X680411Y502127D02*
X680411Y497504D01*
X677329Y499045D01*
X675788Y499045D01*
X674247Y497504D01*
X674247Y494422D01*
X675788Y492881D01*
X678870Y492881D01*
X680411Y494422D01*
X683455Y563086D02*
X684996Y564627D01*
X688078Y564627D01*
X689619Y563086D01*
X689619Y556922D01*
X688078Y555381D01*
X684996Y555381D01*
X683455Y556922D01*
X677329Y563086D02*
X674247Y564627D01*
X677329Y563086D02*
X680411Y560004D01*
X680411Y556922D01*
X678870Y555381D01*
X675788Y555381D01*
X674247Y556922D01*
X674247Y558463D01*
X675788Y560004D01*
X680411Y560004D01*
D13*
X767071Y656569D02*
X816569Y607071D01*
X767071Y656569D02*
X717574Y607071D01*
X767071Y557574D02*
X816569Y607071D01*
X767071Y557574D02*
X717574Y607071D01*
D14*
X767071Y567473D03*
D11*
X820777Y565331D02*
X822956Y567511D01*
X821866Y566421D02*
X815329Y572959D01*
X816418Y574048D02*
X814239Y571869D01*
X808809Y566439D02*
X808809Y564260D01*
X808809Y566439D02*
X810988Y568618D01*
X813167Y568618D01*
X817526Y564260D01*
X817526Y562080D01*
X815346Y559901D01*
X813167Y559901D01*
X807746Y561018D02*
X803387Y561018D01*
X809925Y554480D01*
X812104Y556659D02*
X807746Y552300D01*
X689619Y449627D02*
X689619Y440381D01*
X689619Y449627D02*
X684996Y449627D01*
X683455Y448086D01*
X683455Y445004D01*
X684996Y443463D01*
X689619Y443463D01*
X686537Y443463D02*
X683455Y440381D01*
X680411Y446545D02*
X677329Y449627D01*
X677329Y440381D01*
X680411Y440381D02*
X674247Y440381D01*
X671203Y441922D02*
X669662Y440381D01*
X666580Y440381D01*
X665039Y441922D01*
X665039Y448086D01*
X666580Y449627D01*
X669662Y449627D01*
X671203Y448086D01*
X671203Y446545D01*
X669662Y445004D01*
X665039Y445004D01*
X805381Y367881D02*
X814627Y367881D01*
X814627Y372504D01*
X813086Y374045D01*
X810004Y374045D01*
X808463Y372504D01*
X808463Y367881D01*
X808463Y370963D02*
X805381Y374045D01*
X805381Y377089D02*
X805381Y383253D01*
X805381Y377089D02*
X811545Y383253D01*
X813086Y383253D01*
X814627Y381712D01*
X814627Y378630D01*
X813086Y377089D01*
X813086Y386297D02*
X806922Y386297D01*
X813086Y386297D02*
X814627Y387838D01*
X814627Y390920D01*
X813086Y392461D01*
X806922Y392461D01*
X805381Y390920D01*
X805381Y387838D01*
X806922Y386297D01*
X813086Y392461D01*
X794627Y367881D02*
X785381Y367881D01*
X794627Y367881D02*
X794627Y372504D01*
X793086Y374045D01*
X790004Y374045D01*
X788463Y372504D01*
X788463Y367881D01*
X788463Y370963D02*
X785381Y374045D01*
X785381Y377089D02*
X785381Y383253D01*
X785381Y377089D02*
X791545Y383253D01*
X793086Y383253D01*
X794627Y381712D01*
X794627Y378630D01*
X793086Y377089D01*
X791545Y386297D02*
X794627Y389379D01*
X785381Y389379D01*
X785381Y386297D02*
X785381Y392461D01*
X774627Y367881D02*
X765381Y367881D01*
X774627Y367881D02*
X774627Y372504D01*
X773086Y374045D01*
X770004Y374045D01*
X768463Y372504D01*
X768463Y367881D01*
X768463Y370963D02*
X765381Y374045D01*
X765381Y377089D02*
X765381Y383253D01*
X765381Y377089D02*
X771545Y383253D01*
X773086Y383253D01*
X774627Y381712D01*
X774627Y378630D01*
X773086Y377089D01*
X765381Y386297D02*
X765381Y392461D01*
X765381Y386297D02*
X771545Y392461D01*
X773086Y392461D01*
X774627Y390920D01*
X774627Y387838D01*
X773086Y386297D01*
X727127Y765257D02*
X717881Y765257D01*
X727127Y765257D02*
X727127Y769880D01*
X725586Y771421D01*
X722504Y771421D01*
X720963Y769880D01*
X720963Y765257D01*
X720963Y768339D02*
X717881Y771421D01*
X717881Y774465D02*
X717881Y780629D01*
X717881Y774465D02*
X724045Y780629D01*
X725586Y780629D01*
X727127Y779088D01*
X727127Y776006D01*
X725586Y774465D01*
X725586Y783673D02*
X727127Y785214D01*
X727127Y788296D01*
X725586Y789837D01*
X724045Y789837D01*
X722504Y788296D01*
X720963Y789837D01*
X719422Y789837D01*
X717881Y788296D01*
X717881Y785214D01*
X719422Y783673D01*
X720963Y783673D01*
X722504Y785214D01*
X724045Y783673D01*
X725586Y783673D01*
X722504Y785214D02*
X722504Y788296D01*
X174627Y709088D02*
X173086Y710629D01*
X174627Y709088D02*
X174627Y706006D01*
X173086Y704465D01*
X166922Y704465D01*
X165381Y706006D01*
X165381Y709088D01*
X166922Y710629D01*
X174627Y713673D02*
X174627Y719837D01*
X173086Y719837D01*
X166922Y713673D01*
X165381Y713673D01*
X154627Y695257D02*
X145381Y695257D01*
X154627Y695257D02*
X154627Y699880D01*
X153086Y701421D01*
X150004Y701421D01*
X148463Y699880D01*
X148463Y695257D01*
X148463Y698339D02*
X145381Y701421D01*
X153086Y704465D02*
X154627Y706006D01*
X154627Y709088D01*
X153086Y710629D01*
X151545Y710629D01*
X150004Y709088D01*
X150004Y707547D01*
X150004Y709088D02*
X148463Y710629D01*
X146922Y710629D01*
X145381Y709088D01*
X145381Y706006D01*
X146922Y704465D01*
X146922Y713673D02*
X153086Y713673D01*
X154627Y715214D01*
X154627Y718296D01*
X153086Y719837D01*
X146922Y719837D01*
X145381Y718296D01*
X145381Y715214D01*
X146922Y713673D01*
X153086Y719837D01*
X114627Y695257D02*
X105381Y695257D01*
X114627Y695257D02*
X114627Y699880D01*
X113086Y701421D01*
X110004Y701421D01*
X108463Y699880D01*
X108463Y695257D01*
X108463Y698339D02*
X105381Y701421D01*
X113086Y704465D02*
X114627Y706006D01*
X114627Y709088D01*
X113086Y710629D01*
X111545Y710629D01*
X110004Y709088D01*
X110004Y707547D01*
X110004Y709088D02*
X108463Y710629D01*
X106922Y710629D01*
X105381Y709088D01*
X105381Y706006D01*
X106922Y704465D01*
X111545Y713673D02*
X114627Y716755D01*
X105381Y716755D01*
X105381Y713673D02*
X105381Y719837D01*
X125381Y695257D02*
X134627Y695257D01*
X134627Y699880D01*
X133086Y701421D01*
X130004Y701421D01*
X128463Y699880D01*
X128463Y695257D01*
X128463Y698339D02*
X125381Y701421D01*
X133086Y704465D02*
X134627Y706006D01*
X134627Y709088D01*
X133086Y710629D01*
X131545Y710629D01*
X130004Y709088D01*
X130004Y707547D01*
X130004Y709088D02*
X128463Y710629D01*
X126922Y710629D01*
X125381Y709088D01*
X125381Y706006D01*
X126922Y704465D01*
X125381Y713673D02*
X125381Y719837D01*
X125381Y713673D02*
X131545Y719837D01*
X133086Y719837D01*
X134627Y718296D01*
X134627Y715214D01*
X133086Y713673D01*
X117127Y767881D02*
X107881Y767881D01*
X117127Y767881D02*
X117127Y772504D01*
X115586Y774045D01*
X112504Y774045D01*
X110963Y772504D01*
X110963Y767881D01*
X110963Y770963D02*
X107881Y774045D01*
X115586Y780171D02*
X117127Y783253D01*
X115586Y780171D02*
X112504Y777089D01*
X109422Y777089D01*
X107881Y778630D01*
X107881Y781712D01*
X109422Y783253D01*
X110963Y783253D01*
X112504Y781712D01*
X112504Y777089D01*
D15*
X821350Y297700D02*
X834050Y297700D01*
X821350Y297700D02*
X815000Y291350D01*
X815000Y278650D01*
X821350Y272300D01*
X840400Y278650D02*
X840400Y291350D01*
X834050Y297700D01*
X840400Y278650D02*
X834050Y272300D01*
X821350Y272300D01*
X815000Y265950D01*
X815000Y253250D01*
X821350Y246900D01*
X834050Y246900D01*
X840400Y265950D02*
X834050Y272300D01*
X840400Y265950D02*
X840400Y253250D01*
X834050Y246900D01*
X789600Y253250D02*
X789600Y265950D01*
X789600Y278650D02*
X789600Y291350D01*
X789600Y278650D02*
X795950Y272300D01*
X789600Y265950D01*
X789600Y253250D02*
X795950Y246900D01*
X789600Y291350D02*
X795950Y297700D01*
X808650Y297700D01*
X808650Y272300D02*
X795950Y272300D01*
X795950Y246900D02*
X808650Y246900D01*
X815000Y265950D02*
X808650Y272300D01*
X815000Y291350D02*
X808650Y297700D01*
X815000Y278650D02*
X808650Y272300D01*
X815000Y253250D02*
X808650Y246900D01*
X764200Y278650D02*
X764200Y291350D01*
X764200Y265950D02*
X764200Y253250D01*
X770550Y272300D02*
X764200Y278650D01*
X770550Y272300D02*
X764200Y265950D01*
X764200Y253250D02*
X770550Y246900D01*
X764200Y291350D02*
X770550Y297700D01*
X783250Y272300D02*
X789600Y265950D01*
X783250Y272300D02*
X789600Y278650D01*
X789600Y291350D02*
X783250Y297700D01*
X789600Y253250D02*
X783250Y246900D01*
X783250Y272300D02*
X770550Y272300D01*
X770550Y297700D02*
X783250Y297700D01*
X783250Y246900D02*
X770550Y246900D01*
D16*
X855998Y268008D02*
X861992Y277000D01*
X855998Y277000D02*
X861992Y268008D01*
X852784Y275501D02*
X851286Y277000D01*
X848288Y277000D01*
X846790Y275501D01*
X846790Y274002D01*
X848288Y272504D01*
X849787Y272504D01*
X848288Y272504D02*
X846790Y271005D01*
X846790Y269507D01*
X848288Y268008D01*
X851286Y268008D01*
X852784Y269507D01*
D11*
X622119Y557381D02*
X622119Y566627D01*
X622119Y557381D02*
X615955Y557381D01*
X612911Y557381D02*
X612911Y566627D01*
X612911Y557381D02*
X608288Y557381D01*
X606747Y558922D01*
X606747Y565086D01*
X608288Y566627D01*
X612911Y566627D01*
X603703Y563545D02*
X600621Y566627D01*
X600621Y557381D01*
X603703Y557381D02*
X597539Y557381D01*
X622119Y551545D02*
X622119Y545381D01*
X622119Y551545D02*
X619037Y554627D01*
X615955Y551545D01*
X615955Y545381D01*
X615955Y550004D02*
X622119Y550004D01*
X612911Y545381D02*
X612911Y554627D01*
X608288Y554627D01*
X606747Y553086D01*
X606747Y550004D01*
X608288Y548463D01*
X612911Y548463D01*
X603703Y545381D02*
X603703Y551545D01*
X600621Y554627D01*
X597539Y551545D01*
X597539Y545381D01*
X597539Y550004D02*
X603703Y550004D01*
X594495Y551545D02*
X591414Y554627D01*
X591414Y545381D01*
X594495Y545381D02*
X588332Y545381D01*
X585288Y546922D02*
X585288Y553086D01*
X583747Y554627D01*
X580665Y554627D01*
X579124Y553086D01*
X579124Y546922D01*
X580665Y545381D01*
X583747Y545381D01*
X585288Y546922D01*
X579124Y553086D01*
X576080Y545381D02*
X569916Y545381D01*
X576080Y545381D02*
X569916Y551545D01*
X569916Y553086D01*
X571457Y554627D01*
X574539Y554627D01*
X576080Y553086D01*
X512119Y557381D02*
X512119Y566627D01*
X512119Y557381D02*
X505955Y557381D01*
X502911Y557381D02*
X502911Y566627D01*
X502911Y557381D02*
X498288Y557381D01*
X496747Y558922D01*
X496747Y565086D01*
X498288Y566627D01*
X502911Y566627D01*
X493703Y557381D02*
X487539Y557381D01*
X493703Y557381D02*
X487539Y563545D01*
X487539Y565086D01*
X489080Y566627D01*
X492162Y566627D01*
X493703Y565086D01*
X512119Y551545D02*
X512119Y545381D01*
X512119Y551545D02*
X509037Y554627D01*
X505955Y551545D01*
X505955Y545381D01*
X505955Y550004D02*
X512119Y550004D01*
X502911Y545381D02*
X502911Y554627D01*
X498288Y554627D01*
X496747Y553086D01*
X496747Y550004D01*
X498288Y548463D01*
X502911Y548463D01*
X493703Y545381D02*
X493703Y551545D01*
X490621Y554627D01*
X487539Y551545D01*
X487539Y545381D01*
X487539Y550004D02*
X493703Y550004D01*
X484495Y551545D02*
X481414Y554627D01*
X481414Y545381D01*
X484495Y545381D02*
X478332Y545381D01*
X475288Y546922D02*
X475288Y553086D01*
X473747Y554627D01*
X470665Y554627D01*
X469124Y553086D01*
X469124Y546922D01*
X470665Y545381D01*
X473747Y545381D01*
X475288Y546922D01*
X469124Y553086D01*
X466080Y545381D02*
X459916Y545381D01*
X466080Y545381D02*
X459916Y551545D01*
X459916Y553086D01*
X461457Y554627D01*
X464539Y554627D01*
X466080Y553086D01*
X402119Y557381D02*
X402119Y566627D01*
X402119Y557381D02*
X395955Y557381D01*
X392911Y557381D02*
X392911Y566627D01*
X392911Y557381D02*
X388288Y557381D01*
X386747Y558922D01*
X386747Y565086D01*
X388288Y566627D01*
X392911Y566627D01*
X383703Y565086D02*
X382162Y566627D01*
X379080Y566627D01*
X377539Y565086D01*
X377539Y563545D01*
X379080Y562004D01*
X380621Y562004D01*
X379080Y562004D02*
X377539Y560463D01*
X377539Y558922D01*
X379080Y557381D01*
X382162Y557381D01*
X383703Y558922D01*
X402119Y551545D02*
X402119Y545381D01*
X402119Y551545D02*
X399037Y554627D01*
X395955Y551545D01*
X395955Y545381D01*
X395955Y550004D02*
X402119Y550004D01*
X392911Y545381D02*
X392911Y554627D01*
X388288Y554627D01*
X386747Y553086D01*
X386747Y550004D01*
X388288Y548463D01*
X392911Y548463D01*
X383703Y545381D02*
X383703Y551545D01*
X380621Y554627D01*
X377539Y551545D01*
X377539Y545381D01*
X377539Y550004D02*
X383703Y550004D01*
X374495Y551545D02*
X371414Y554627D01*
X371414Y545381D01*
X374495Y545381D02*
X368332Y545381D01*
X365288Y546922D02*
X365288Y553086D01*
X363747Y554627D01*
X360665Y554627D01*
X359124Y553086D01*
X359124Y546922D01*
X360665Y545381D01*
X363747Y545381D01*
X365288Y546922D01*
X359124Y553086D01*
X356080Y545381D02*
X349916Y545381D01*
X356080Y545381D02*
X349916Y551545D01*
X349916Y553086D01*
X351457Y554627D01*
X354539Y554627D01*
X356080Y553086D01*
X292119Y557381D02*
X292119Y566627D01*
X292119Y557381D02*
X285955Y557381D01*
X282911Y557381D02*
X282911Y566627D01*
X282911Y557381D02*
X278288Y557381D01*
X276747Y558922D01*
X276747Y565086D01*
X278288Y566627D01*
X282911Y566627D01*
X269080Y566627D02*
X269080Y557381D01*
X273703Y562004D02*
X269080Y566627D01*
X267539Y562004D02*
X273703Y562004D01*
X292119Y551545D02*
X292119Y545381D01*
X292119Y551545D02*
X289037Y554627D01*
X285955Y551545D01*
X285955Y545381D01*
X285955Y550004D02*
X292119Y550004D01*
X282911Y545381D02*
X282911Y554627D01*
X278288Y554627D01*
X276747Y553086D01*
X276747Y550004D01*
X278288Y548463D01*
X282911Y548463D01*
X273703Y545381D02*
X273703Y551545D01*
X270621Y554627D01*
X267539Y551545D01*
X267539Y545381D01*
X267539Y550004D02*
X273703Y550004D01*
X264495Y551545D02*
X261414Y554627D01*
X261414Y545381D01*
X264495Y545381D02*
X258332Y545381D01*
X255288Y546922D02*
X255288Y553086D01*
X253747Y554627D01*
X250665Y554627D01*
X249124Y553086D01*
X249124Y546922D01*
X250665Y545381D01*
X253747Y545381D01*
X255288Y546922D01*
X249124Y553086D01*
X246080Y545381D02*
X239916Y545381D01*
X246080Y545381D02*
X239916Y551545D01*
X239916Y553086D01*
X241457Y554627D01*
X244539Y554627D01*
X246080Y553086D01*
X622119Y456627D02*
X622119Y447381D01*
X615955Y447381D01*
X612911Y447381D02*
X612911Y456627D01*
X612911Y447381D02*
X608288Y447381D01*
X606747Y448922D01*
X606747Y455086D01*
X608288Y456627D01*
X612911Y456627D01*
X603703Y456627D02*
X597539Y456627D01*
X603703Y456627D02*
X603703Y452004D01*
X600621Y453545D01*
X599080Y453545D01*
X597539Y452004D01*
X597539Y448922D01*
X599080Y447381D01*
X602162Y447381D01*
X603703Y448922D01*
X622119Y441545D02*
X622119Y435381D01*
X622119Y441545D02*
X619037Y444627D01*
X615955Y441545D01*
X615955Y435381D01*
X615955Y440004D02*
X622119Y440004D01*
X612911Y435381D02*
X612911Y444627D01*
X608288Y444627D01*
X606747Y443086D01*
X606747Y440004D01*
X608288Y438463D01*
X612911Y438463D01*
X603703Y435381D02*
X603703Y441545D01*
X600621Y444627D01*
X597539Y441545D01*
X597539Y435381D01*
X597539Y440004D02*
X603703Y440004D01*
X594495Y441545D02*
X591414Y444627D01*
X591414Y435381D01*
X594495Y435381D02*
X588332Y435381D01*
X585288Y436922D02*
X585288Y443086D01*
X583747Y444627D01*
X580665Y444627D01*
X579124Y443086D01*
X579124Y436922D01*
X580665Y435381D01*
X583747Y435381D01*
X585288Y436922D01*
X579124Y443086D01*
X576080Y435381D02*
X569916Y435381D01*
X576080Y435381D02*
X569916Y441545D01*
X569916Y443086D01*
X571457Y444627D01*
X574539Y444627D01*
X576080Y443086D01*
X512119Y447381D02*
X512119Y456627D01*
X512119Y447381D02*
X505955Y447381D01*
X502911Y447381D02*
X502911Y456627D01*
X502911Y447381D02*
X498288Y447381D01*
X496747Y448922D01*
X496747Y455086D01*
X498288Y456627D01*
X502911Y456627D01*
X490621Y455086D02*
X487539Y456627D01*
X490621Y455086D02*
X493703Y452004D01*
X493703Y448922D01*
X492162Y447381D01*
X489080Y447381D01*
X487539Y448922D01*
X487539Y450463D01*
X489080Y452004D01*
X493703Y452004D01*
X512119Y441545D02*
X512119Y435381D01*
X512119Y441545D02*
X509037Y444627D01*
X505955Y441545D01*
X505955Y435381D01*
X505955Y440004D02*
X512119Y440004D01*
X502911Y435381D02*
X502911Y444627D01*
X498288Y444627D01*
X496747Y443086D01*
X496747Y440004D01*
X498288Y438463D01*
X502911Y438463D01*
X493703Y435381D02*
X493703Y441545D01*
X490621Y444627D01*
X487539Y441545D01*
X487539Y435381D01*
X487539Y440004D02*
X493703Y440004D01*
X484495Y441545D02*
X481414Y444627D01*
X481414Y435381D01*
X484495Y435381D02*
X478332Y435381D01*
X475288Y436922D02*
X475288Y443086D01*
X473747Y444627D01*
X470665Y444627D01*
X469124Y443086D01*
X469124Y436922D01*
X470665Y435381D01*
X473747Y435381D01*
X475288Y436922D01*
X469124Y443086D01*
X466080Y435381D02*
X459916Y435381D01*
X466080Y435381D02*
X459916Y441545D01*
X459916Y443086D01*
X461457Y444627D01*
X464539Y444627D01*
X466080Y443086D01*
X402119Y447381D02*
X402119Y456627D01*
X402119Y447381D02*
X395955Y447381D01*
X392911Y447381D02*
X392911Y456627D01*
X392911Y447381D02*
X388288Y447381D01*
X386747Y448922D01*
X386747Y455086D01*
X388288Y456627D01*
X392911Y456627D01*
X383703Y456627D02*
X377539Y456627D01*
X377539Y455086D01*
X383703Y448922D01*
X383703Y447381D01*
X402119Y441545D02*
X402119Y435381D01*
X402119Y441545D02*
X399037Y444627D01*
X395955Y441545D01*
X395955Y435381D01*
X395955Y440004D02*
X402119Y440004D01*
X392911Y435381D02*
X392911Y444627D01*
X388288Y444627D01*
X386747Y443086D01*
X386747Y440004D01*
X388288Y438463D01*
X392911Y438463D01*
X383703Y435381D02*
X383703Y441545D01*
X380621Y444627D01*
X377539Y441545D01*
X377539Y435381D01*
X377539Y440004D02*
X383703Y440004D01*
X374495Y441545D02*
X371414Y444627D01*
X371414Y435381D01*
X374495Y435381D02*
X368332Y435381D01*
X365288Y436922D02*
X365288Y443086D01*
X363747Y444627D01*
X360665Y444627D01*
X359124Y443086D01*
X359124Y436922D01*
X360665Y435381D01*
X363747Y435381D01*
X365288Y436922D01*
X359124Y443086D01*
X356080Y435381D02*
X349916Y435381D01*
X356080Y435381D02*
X349916Y441545D01*
X349916Y443086D01*
X351457Y444627D01*
X354539Y444627D01*
X356080Y443086D01*
X292119Y447381D02*
X292119Y456627D01*
X292119Y447381D02*
X285955Y447381D01*
X282911Y447381D02*
X282911Y456627D01*
X282911Y447381D02*
X278288Y447381D01*
X276747Y448922D01*
X276747Y455086D01*
X278288Y456627D01*
X282911Y456627D01*
X273703Y455086D02*
X272162Y456627D01*
X269080Y456627D01*
X267539Y455086D01*
X267539Y453545D01*
X269080Y452004D01*
X267539Y450463D01*
X267539Y448922D01*
X269080Y447381D01*
X272162Y447381D01*
X273703Y448922D01*
X273703Y450463D01*
X272162Y452004D01*
X273703Y453545D01*
X273703Y455086D01*
X272162Y452004D02*
X269080Y452004D01*
X292119Y441545D02*
X292119Y435381D01*
X292119Y441545D02*
X289037Y444627D01*
X285955Y441545D01*
X285955Y435381D01*
X285955Y440004D02*
X292119Y440004D01*
X282911Y435381D02*
X282911Y444627D01*
X278288Y444627D01*
X276747Y443086D01*
X276747Y440004D01*
X278288Y438463D01*
X282911Y438463D01*
X273703Y435381D02*
X273703Y441545D01*
X270621Y444627D01*
X267539Y441545D01*
X267539Y435381D01*
X267539Y440004D02*
X273703Y440004D01*
X264495Y441545D02*
X261414Y444627D01*
X261414Y435381D01*
X264495Y435381D02*
X258332Y435381D01*
X255288Y436922D02*
X255288Y443086D01*
X253747Y444627D01*
X250665Y444627D01*
X249124Y443086D01*
X249124Y436922D01*
X250665Y435381D01*
X253747Y435381D01*
X255288Y436922D01*
X249124Y443086D01*
X246080Y435381D02*
X239916Y435381D01*
X246080Y435381D02*
X239916Y441545D01*
X239916Y443086D01*
X241457Y444627D01*
X244539Y444627D01*
X246080Y443086D01*
X622119Y346627D02*
X622119Y337381D01*
X615955Y337381D01*
X612911Y337381D02*
X612911Y346627D01*
X612911Y337381D02*
X608288Y337381D01*
X606747Y338922D01*
X606747Y345086D01*
X608288Y346627D01*
X612911Y346627D01*
X603703Y338922D02*
X602162Y337381D01*
X599080Y337381D01*
X597539Y338922D01*
X597539Y345086D01*
X599080Y346627D01*
X602162Y346627D01*
X603703Y345086D01*
X603703Y343545D01*
X602162Y342004D01*
X597539Y342004D01*
X622119Y331545D02*
X622119Y325381D01*
X622119Y331545D02*
X619037Y334627D01*
X615955Y331545D01*
X615955Y325381D01*
X615955Y330004D02*
X622119Y330004D01*
X612911Y325381D02*
X612911Y334627D01*
X608288Y334627D01*
X606747Y333086D01*
X606747Y330004D01*
X608288Y328463D01*
X612911Y328463D01*
X603703Y325381D02*
X603703Y331545D01*
X600621Y334627D01*
X597539Y331545D01*
X597539Y325381D01*
X597539Y330004D02*
X603703Y330004D01*
X594495Y331545D02*
X591414Y334627D01*
X591414Y325381D01*
X594495Y325381D02*
X588332Y325381D01*
X585288Y326922D02*
X585288Y333086D01*
X583747Y334627D01*
X580665Y334627D01*
X579124Y333086D01*
X579124Y326922D01*
X580665Y325381D01*
X583747Y325381D01*
X585288Y326922D01*
X579124Y333086D01*
X576080Y325381D02*
X569916Y325381D01*
X576080Y325381D02*
X569916Y331545D01*
X569916Y333086D01*
X571457Y334627D01*
X574539Y334627D01*
X576080Y333086D01*
X512119Y337381D02*
X512119Y346627D01*
X512119Y337381D02*
X505955Y337381D01*
X502911Y337381D02*
X502911Y346627D01*
X502911Y337381D02*
X498288Y337381D01*
X496747Y338922D01*
X496747Y345086D01*
X498288Y346627D01*
X502911Y346627D01*
X493703Y343545D02*
X490621Y346627D01*
X490621Y337381D01*
X493703Y337381D02*
X487539Y337381D01*
X484495Y338922D02*
X484495Y345086D01*
X482955Y346627D01*
X479873Y346627D01*
X478332Y345086D01*
X478332Y338922D01*
X479873Y337381D01*
X482955Y337381D01*
X484495Y338922D01*
X478332Y345086D01*
X512119Y331545D02*
X512119Y325381D01*
X512119Y331545D02*
X509037Y334627D01*
X505955Y331545D01*
X505955Y325381D01*
X505955Y330004D02*
X512119Y330004D01*
X502911Y325381D02*
X502911Y334627D01*
X498288Y334627D01*
X496747Y333086D01*
X496747Y330004D01*
X498288Y328463D01*
X502911Y328463D01*
X493703Y325381D02*
X493703Y331545D01*
X490621Y334627D01*
X487539Y331545D01*
X487539Y325381D01*
X487539Y330004D02*
X493703Y330004D01*
X484495Y331545D02*
X481414Y334627D01*
X481414Y325381D01*
X484495Y325381D02*
X478332Y325381D01*
X475288Y326922D02*
X475288Y333086D01*
X473747Y334627D01*
X470665Y334627D01*
X469124Y333086D01*
X469124Y326922D01*
X470665Y325381D01*
X473747Y325381D01*
X475288Y326922D01*
X469124Y333086D01*
X466080Y325381D02*
X459916Y325381D01*
X466080Y325381D02*
X459916Y331545D01*
X459916Y333086D01*
X461457Y334627D01*
X464539Y334627D01*
X466080Y333086D01*
X402119Y337381D02*
X402119Y346627D01*
X402119Y337381D02*
X395955Y337381D01*
X392911Y337381D02*
X392911Y346627D01*
X392911Y337381D02*
X388288Y337381D01*
X386747Y338922D01*
X386747Y345086D01*
X388288Y346627D01*
X392911Y346627D01*
X383703Y343545D02*
X380621Y346627D01*
X380621Y337381D01*
X383703Y337381D02*
X377539Y337381D01*
X374495Y343545D02*
X371414Y346627D01*
X371414Y337381D01*
X374495Y337381D02*
X368332Y337381D01*
X402119Y331545D02*
X402119Y325381D01*
X402119Y331545D02*
X399037Y334627D01*
X395955Y331545D01*
X395955Y325381D01*
X395955Y330004D02*
X402119Y330004D01*
X392911Y325381D02*
X392911Y334627D01*
X388288Y334627D01*
X386747Y333086D01*
X386747Y330004D01*
X388288Y328463D01*
X392911Y328463D01*
X383703Y325381D02*
X383703Y331545D01*
X380621Y334627D01*
X377539Y331545D01*
X377539Y325381D01*
X377539Y330004D02*
X383703Y330004D01*
X374495Y331545D02*
X371414Y334627D01*
X371414Y325381D01*
X374495Y325381D02*
X368332Y325381D01*
X365288Y326922D02*
X365288Y333086D01*
X363747Y334627D01*
X360665Y334627D01*
X359124Y333086D01*
X359124Y326922D01*
X360665Y325381D01*
X363747Y325381D01*
X365288Y326922D01*
X359124Y333086D01*
X356080Y325381D02*
X349916Y325381D01*
X356080Y325381D02*
X349916Y331545D01*
X349916Y333086D01*
X351457Y334627D01*
X354539Y334627D01*
X356080Y333086D01*
X292119Y337381D02*
X292119Y346627D01*
X292119Y337381D02*
X285955Y337381D01*
X282911Y337381D02*
X282911Y346627D01*
X282911Y337381D02*
X278288Y337381D01*
X276747Y338922D01*
X276747Y345086D01*
X278288Y346627D01*
X282911Y346627D01*
X273703Y343545D02*
X270621Y346627D01*
X270621Y337381D01*
X273703Y337381D02*
X267539Y337381D01*
X264495Y337381D02*
X258332Y337381D01*
X264495Y337381D02*
X258332Y343545D01*
X258332Y345086D01*
X259873Y346627D01*
X262955Y346627D01*
X264495Y345086D01*
X292119Y331545D02*
X292119Y325381D01*
X292119Y331545D02*
X289037Y334627D01*
X285955Y331545D01*
X285955Y325381D01*
X285955Y330004D02*
X292119Y330004D01*
X282911Y325381D02*
X282911Y334627D01*
X278288Y334627D01*
X276747Y333086D01*
X276747Y330004D01*
X278288Y328463D01*
X282911Y328463D01*
X273703Y325381D02*
X273703Y331545D01*
X270621Y334627D01*
X267539Y331545D01*
X267539Y325381D01*
X267539Y330004D02*
X273703Y330004D01*
X264495Y331545D02*
X261414Y334627D01*
X261414Y325381D01*
X264495Y325381D02*
X258332Y325381D01*
X255288Y326922D02*
X255288Y333086D01*
X253747Y334627D01*
X250665Y334627D01*
X249124Y333086D01*
X249124Y326922D01*
X250665Y325381D01*
X253747Y325381D01*
X255288Y326922D01*
X249124Y333086D01*
X246080Y325381D02*
X239916Y325381D01*
X246080Y325381D02*
X239916Y331545D01*
X239916Y333086D01*
X241457Y334627D01*
X244539Y334627D01*
X246080Y333086D01*
X622119Y236627D02*
X622119Y227381D01*
X615955Y227381D01*
X612911Y227381D02*
X612911Y236627D01*
X612911Y227381D02*
X608288Y227381D01*
X606747Y228922D01*
X606747Y235086D01*
X608288Y236627D01*
X612911Y236627D01*
X603703Y233545D02*
X600621Y236627D01*
X600621Y227381D01*
X603703Y227381D02*
X597539Y227381D01*
X594495Y235086D02*
X592955Y236627D01*
X589873Y236627D01*
X588332Y235086D01*
X588332Y233545D01*
X589873Y232004D01*
X591414Y232004D01*
X589873Y232004D02*
X588332Y230463D01*
X588332Y228922D01*
X589873Y227381D01*
X592955Y227381D01*
X594495Y228922D01*
X622119Y221545D02*
X622119Y215381D01*
X622119Y221545D02*
X619037Y224627D01*
X615955Y221545D01*
X615955Y215381D01*
X615955Y220004D02*
X622119Y220004D01*
X612911Y215381D02*
X612911Y224627D01*
X608288Y224627D01*
X606747Y223086D01*
X606747Y220004D01*
X608288Y218463D01*
X612911Y218463D01*
X603703Y215381D02*
X603703Y221545D01*
X600621Y224627D01*
X597539Y221545D01*
X597539Y215381D01*
X597539Y220004D02*
X603703Y220004D01*
X594495Y221545D02*
X591414Y224627D01*
X591414Y215381D01*
X594495Y215381D02*
X588332Y215381D01*
X585288Y216922D02*
X585288Y223086D01*
X583747Y224627D01*
X580665Y224627D01*
X579124Y223086D01*
X579124Y216922D01*
X580665Y215381D01*
X583747Y215381D01*
X585288Y216922D01*
X579124Y223086D01*
X576080Y215381D02*
X569916Y215381D01*
X576080Y215381D02*
X569916Y221545D01*
X569916Y223086D01*
X571457Y224627D01*
X574539Y224627D01*
X576080Y223086D01*
X512119Y227381D02*
X512119Y236627D01*
X512119Y227381D02*
X505955Y227381D01*
X502911Y227381D02*
X502911Y236627D01*
X502911Y227381D02*
X498288Y227381D01*
X496747Y228922D01*
X496747Y235086D01*
X498288Y236627D01*
X502911Y236627D01*
X493703Y233545D02*
X490621Y236627D01*
X490621Y227381D01*
X493703Y227381D02*
X487539Y227381D01*
X479873Y227381D02*
X479873Y236627D01*
X484495Y232004D01*
X478332Y232004D01*
X512119Y221545D02*
X512119Y215381D01*
X512119Y221545D02*
X509037Y224627D01*
X505955Y221545D01*
X505955Y215381D01*
X505955Y220004D02*
X512119Y220004D01*
X502911Y215381D02*
X502911Y224627D01*
X498288Y224627D01*
X496747Y223086D01*
X496747Y220004D01*
X498288Y218463D01*
X502911Y218463D01*
X493703Y215381D02*
X493703Y221545D01*
X490621Y224627D01*
X487539Y221545D01*
X487539Y215381D01*
X487539Y220004D02*
X493703Y220004D01*
X484495Y221545D02*
X481414Y224627D01*
X481414Y215381D01*
X484495Y215381D02*
X478332Y215381D01*
X475288Y216922D02*
X475288Y223086D01*
X473747Y224627D01*
X470665Y224627D01*
X469124Y223086D01*
X469124Y216922D01*
X470665Y215381D01*
X473747Y215381D01*
X475288Y216922D01*
X469124Y223086D01*
X466080Y215381D02*
X459916Y215381D01*
X466080Y215381D02*
X459916Y221545D01*
X459916Y223086D01*
X461457Y224627D01*
X464539Y224627D01*
X466080Y223086D01*
X402119Y227381D02*
X402119Y236627D01*
X402119Y227381D02*
X395955Y227381D01*
X392911Y227381D02*
X392911Y236627D01*
X392911Y227381D02*
X388288Y227381D01*
X386747Y228922D01*
X386747Y235086D01*
X388288Y236627D01*
X392911Y236627D01*
X383703Y233545D02*
X380621Y236627D01*
X380621Y227381D01*
X383703Y227381D02*
X377539Y227381D01*
X374495Y236627D02*
X368332Y236627D01*
X374495Y236627D02*
X374495Y232004D01*
X371414Y233545D01*
X369873Y233545D01*
X368332Y232004D01*
X368332Y228922D01*
X369873Y227381D01*
X372955Y227381D01*
X374495Y228922D01*
X402119Y221545D02*
X402119Y215381D01*
X402119Y221545D02*
X399037Y224627D01*
X395955Y221545D01*
X395955Y215381D01*
X395955Y220004D02*
X402119Y220004D01*
X392911Y215381D02*
X392911Y224627D01*
X388288Y224627D01*
X386747Y223086D01*
X386747Y220004D01*
X388288Y218463D01*
X392911Y218463D01*
X383703Y215381D02*
X383703Y221545D01*
X380621Y224627D01*
X377539Y221545D01*
X377539Y215381D01*
X377539Y220004D02*
X383703Y220004D01*
X374495Y221545D02*
X371414Y224627D01*
X371414Y215381D01*
X374495Y215381D02*
X368332Y215381D01*
X365288Y216922D02*
X365288Y223086D01*
X363747Y224627D01*
X360665Y224627D01*
X359124Y223086D01*
X359124Y216922D01*
X360665Y215381D01*
X363747Y215381D01*
X365288Y216922D01*
X359124Y223086D01*
X356080Y215381D02*
X349916Y215381D01*
X356080Y215381D02*
X349916Y221545D01*
X349916Y223086D01*
X351457Y224627D01*
X354539Y224627D01*
X356080Y223086D01*
X292119Y227381D02*
X292119Y236627D01*
X292119Y227381D02*
X285955Y227381D01*
X282911Y227381D02*
X282911Y236627D01*
X282911Y227381D02*
X278288Y227381D01*
X276747Y228922D01*
X276747Y235086D01*
X278288Y236627D01*
X282911Y236627D01*
X273703Y233545D02*
X270621Y236627D01*
X270621Y227381D01*
X273703Y227381D02*
X267539Y227381D01*
X261414Y235086D02*
X258332Y236627D01*
X261414Y235086D02*
X264495Y232004D01*
X264495Y228922D01*
X262955Y227381D01*
X259873Y227381D01*
X258332Y228922D01*
X258332Y230463D01*
X259873Y232004D01*
X264495Y232004D01*
X292119Y221545D02*
X292119Y215381D01*
X292119Y221545D02*
X289037Y224627D01*
X285955Y221545D01*
X285955Y215381D01*
X285955Y220004D02*
X292119Y220004D01*
X282911Y215381D02*
X282911Y224627D01*
X278288Y224627D01*
X276747Y223086D01*
X276747Y220004D01*
X278288Y218463D01*
X282911Y218463D01*
X273703Y215381D02*
X273703Y221545D01*
X270621Y224627D01*
X267539Y221545D01*
X267539Y215381D01*
X267539Y220004D02*
X273703Y220004D01*
X264495Y221545D02*
X261414Y224627D01*
X261414Y215381D01*
X264495Y215381D02*
X258332Y215381D01*
X255288Y216922D02*
X255288Y223086D01*
X253747Y224627D01*
X250665Y224627D01*
X249124Y223086D01*
X249124Y216922D01*
X250665Y215381D01*
X253747Y215381D01*
X255288Y216922D01*
X249124Y223086D01*
X246080Y215381D02*
X239916Y215381D01*
X246080Y215381D02*
X239916Y221545D01*
X239916Y223086D01*
X241457Y224627D01*
X244539Y224627D01*
X246080Y223086D01*
X705375Y656806D02*
X711913Y663344D01*
X708644Y666613D01*
X706464Y666613D01*
X704285Y664434D01*
X704285Y662254D01*
X707554Y658985D01*
X705375Y661165D02*
X701016Y661165D01*
X703222Y667676D02*
X703222Y672034D01*
X696685Y665496D01*
X698864Y663317D02*
X694505Y667676D01*
X712875Y704306D02*
X719413Y710844D01*
X716144Y714113D01*
X713964Y714113D01*
X711785Y711934D01*
X711785Y709754D01*
X715054Y706485D01*
X712875Y708665D02*
X708516Y708665D01*
X706364Y710817D02*
X702005Y715176D01*
X706364Y719534D02*
X706364Y710817D01*
X706364Y719534D02*
X707454Y720624D01*
X709633Y720624D01*
X711812Y718445D01*
X711812Y716265D01*
D17*
X410000Y748000D02*
X400000Y748000D01*
X399500Y748000D01*
X399500Y772000D01*
X405000Y772000D01*
X470000Y772000D02*
X480000Y772000D01*
X480500Y772000D01*
X480500Y748000D01*
X475000Y748000D01*
D11*
X448827Y724627D02*
X442663Y715381D01*
X448827Y715381D02*
X442663Y724627D01*
X439619Y721545D02*
X436537Y724627D01*
X436537Y715381D01*
X439619Y715381D02*
X433455Y715381D01*
X354627Y777881D02*
X345381Y777881D01*
X354627Y777881D02*
X354627Y782504D01*
X353086Y784045D01*
X350004Y784045D01*
X348463Y782504D01*
X348463Y777881D01*
X348463Y780963D02*
X345381Y784045D01*
X353086Y787089D02*
X354627Y788630D01*
X354627Y791712D01*
X353086Y793253D01*
X351545Y793253D01*
X350004Y791712D01*
X350004Y790171D01*
X350004Y791712D02*
X348463Y793253D01*
X346922Y793253D01*
X345381Y791712D01*
X345381Y788630D01*
X346922Y787089D01*
X365381Y777881D02*
X374627Y777881D01*
X374627Y782504D01*
X373086Y784045D01*
X370004Y784045D01*
X368463Y782504D01*
X368463Y777881D01*
X368463Y780963D02*
X365381Y784045D01*
X365381Y791712D02*
X374627Y791712D01*
X370004Y787089D01*
X370004Y793253D01*
X172127Y767881D02*
X162881Y767881D01*
X172127Y767881D02*
X172127Y772504D01*
X170586Y774045D01*
X167504Y774045D01*
X165963Y772504D01*
X165963Y767881D01*
X165963Y770963D02*
X162881Y774045D01*
X172127Y777089D02*
X172127Y783253D01*
X170586Y783253D01*
X164422Y777089D01*
X162881Y777089D01*
D13*
X694596Y527363D02*
X722536Y527363D01*
X722536Y540063D01*
X694596Y540063D01*
X694596Y527363D01*
D16*
X689492Y528008D02*
X689492Y537000D01*
X689492Y528008D02*
X683498Y528008D01*
X680284Y534002D02*
X677287Y537000D01*
X677287Y528008D01*
X680284Y528008D02*
X674290Y528008D01*
D15*
X650160Y646030D02*
X650160Y673970D01*
X629840Y646030D02*
X629842Y645930D01*
X629848Y645831D01*
X629858Y645731D01*
X629871Y645633D01*
X629889Y645534D01*
X629910Y645437D01*
X629935Y645341D01*
X629964Y645245D01*
X629997Y645151D01*
X630033Y645058D01*
X630073Y644967D01*
X630117Y644877D01*
X630164Y644789D01*
X630214Y644703D01*
X630268Y644619D01*
X630325Y644537D01*
X630385Y644458D01*
X630449Y644380D01*
X630515Y644306D01*
X630584Y644234D01*
X630656Y644165D01*
X630730Y644099D01*
X630808Y644035D01*
X630887Y643975D01*
X630969Y643918D01*
X631053Y643864D01*
X631139Y643814D01*
X631227Y643767D01*
X631317Y643723D01*
X631408Y643683D01*
X631501Y643647D01*
X631595Y643614D01*
X631691Y643585D01*
X631787Y643560D01*
X631884Y643539D01*
X631983Y643521D01*
X632081Y643508D01*
X632181Y643498D01*
X632280Y643492D01*
X632380Y643490D01*
X629840Y673970D02*
X629842Y674070D01*
X629848Y674169D01*
X629858Y674269D01*
X629871Y674367D01*
X629889Y674466D01*
X629910Y674563D01*
X629935Y674659D01*
X629964Y674755D01*
X629997Y674849D01*
X630033Y674942D01*
X630073Y675033D01*
X630117Y675123D01*
X630164Y675211D01*
X630214Y675297D01*
X630268Y675381D01*
X630325Y675463D01*
X630385Y675542D01*
X630449Y675620D01*
X630515Y675694D01*
X630584Y675766D01*
X630656Y675835D01*
X630730Y675901D01*
X630808Y675965D01*
X630887Y676025D01*
X630969Y676082D01*
X631053Y676136D01*
X631139Y676186D01*
X631227Y676233D01*
X631317Y676277D01*
X631408Y676317D01*
X631501Y676353D01*
X631595Y676386D01*
X631691Y676415D01*
X631787Y676440D01*
X631884Y676461D01*
X631983Y676479D01*
X632081Y676492D01*
X632181Y676502D01*
X632280Y676508D01*
X632380Y676510D01*
X647620Y676510D02*
X647720Y676508D01*
X647819Y676502D01*
X647919Y676492D01*
X648017Y676479D01*
X648116Y676461D01*
X648213Y676440D01*
X648309Y676415D01*
X648405Y676386D01*
X648499Y676353D01*
X648592Y676317D01*
X648683Y676277D01*
X648773Y676233D01*
X648861Y676186D01*
X648947Y676136D01*
X649031Y676082D01*
X649113Y676025D01*
X649192Y675965D01*
X649270Y675901D01*
X649344Y675835D01*
X649416Y675766D01*
X649485Y675694D01*
X649551Y675620D01*
X649615Y675542D01*
X649675Y675463D01*
X649732Y675381D01*
X649786Y675297D01*
X649836Y675211D01*
X649883Y675123D01*
X649927Y675033D01*
X649967Y674942D01*
X650003Y674849D01*
X650036Y674755D01*
X650065Y674659D01*
X650090Y674563D01*
X650111Y674466D01*
X650129Y674367D01*
X650142Y674269D01*
X650152Y674169D01*
X650158Y674070D01*
X650160Y673970D01*
X650160Y646030D02*
X650158Y645930D01*
X650152Y645831D01*
X650142Y645731D01*
X650129Y645633D01*
X650111Y645534D01*
X650090Y645437D01*
X650065Y645341D01*
X650036Y645245D01*
X650003Y645151D01*
X649967Y645058D01*
X649927Y644967D01*
X649883Y644877D01*
X649836Y644789D01*
X649786Y644703D01*
X649732Y644619D01*
X649675Y644537D01*
X649615Y644458D01*
X649551Y644380D01*
X649485Y644306D01*
X649416Y644234D01*
X649344Y644165D01*
X649270Y644099D01*
X649192Y644035D01*
X649113Y643975D01*
X649031Y643918D01*
X648947Y643864D01*
X648861Y643814D01*
X648773Y643767D01*
X648683Y643723D01*
X648592Y643683D01*
X648499Y643647D01*
X648405Y643614D01*
X648309Y643585D01*
X648213Y643560D01*
X648116Y643539D01*
X648017Y643521D01*
X647919Y643508D01*
X647819Y643498D01*
X647720Y643492D01*
X647620Y643490D01*
X632380Y643490D01*
X632380Y676510D02*
X647620Y676510D01*
X629840Y673970D02*
X629840Y646030D01*
D16*
X668909Y650508D02*
X670408Y652007D01*
X668909Y650508D02*
X667411Y650508D01*
X665912Y652007D01*
X665912Y659500D01*
X667411Y659500D02*
X664413Y659500D01*
X661200Y656502D02*
X658203Y659500D01*
X658203Y650508D01*
X661200Y650508D02*
X655205Y650508D01*
D15*
X620160Y646030D02*
X620160Y673970D01*
X599840Y646030D02*
X599842Y645930D01*
X599848Y645831D01*
X599858Y645731D01*
X599871Y645633D01*
X599889Y645534D01*
X599910Y645437D01*
X599935Y645341D01*
X599964Y645245D01*
X599997Y645151D01*
X600033Y645058D01*
X600073Y644967D01*
X600117Y644877D01*
X600164Y644789D01*
X600214Y644703D01*
X600268Y644619D01*
X600325Y644537D01*
X600385Y644458D01*
X600449Y644380D01*
X600515Y644306D01*
X600584Y644234D01*
X600656Y644165D01*
X600730Y644099D01*
X600808Y644035D01*
X600887Y643975D01*
X600969Y643918D01*
X601053Y643864D01*
X601139Y643814D01*
X601227Y643767D01*
X601317Y643723D01*
X601408Y643683D01*
X601501Y643647D01*
X601595Y643614D01*
X601691Y643585D01*
X601787Y643560D01*
X601884Y643539D01*
X601983Y643521D01*
X602081Y643508D01*
X602181Y643498D01*
X602280Y643492D01*
X602380Y643490D01*
X599840Y673970D02*
X599842Y674070D01*
X599848Y674169D01*
X599858Y674269D01*
X599871Y674367D01*
X599889Y674466D01*
X599910Y674563D01*
X599935Y674659D01*
X599964Y674755D01*
X599997Y674849D01*
X600033Y674942D01*
X600073Y675033D01*
X600117Y675123D01*
X600164Y675211D01*
X600214Y675297D01*
X600268Y675381D01*
X600325Y675463D01*
X600385Y675542D01*
X600449Y675620D01*
X600515Y675694D01*
X600584Y675766D01*
X600656Y675835D01*
X600730Y675901D01*
X600808Y675965D01*
X600887Y676025D01*
X600969Y676082D01*
X601053Y676136D01*
X601139Y676186D01*
X601227Y676233D01*
X601317Y676277D01*
X601408Y676317D01*
X601501Y676353D01*
X601595Y676386D01*
X601691Y676415D01*
X601787Y676440D01*
X601884Y676461D01*
X601983Y676479D01*
X602081Y676492D01*
X602181Y676502D01*
X602280Y676508D01*
X602380Y676510D01*
X617620Y676510D02*
X617720Y676508D01*
X617819Y676502D01*
X617919Y676492D01*
X618017Y676479D01*
X618116Y676461D01*
X618213Y676440D01*
X618309Y676415D01*
X618405Y676386D01*
X618499Y676353D01*
X618592Y676317D01*
X618683Y676277D01*
X618773Y676233D01*
X618861Y676186D01*
X618947Y676136D01*
X619031Y676082D01*
X619113Y676025D01*
X619192Y675965D01*
X619270Y675901D01*
X619344Y675835D01*
X619416Y675766D01*
X619485Y675694D01*
X619551Y675620D01*
X619615Y675542D01*
X619675Y675463D01*
X619732Y675381D01*
X619786Y675297D01*
X619836Y675211D01*
X619883Y675123D01*
X619927Y675033D01*
X619967Y674942D01*
X620003Y674849D01*
X620036Y674755D01*
X620065Y674659D01*
X620090Y674563D01*
X620111Y674466D01*
X620129Y674367D01*
X620142Y674269D01*
X620152Y674169D01*
X620158Y674070D01*
X620160Y673970D01*
X620160Y646030D02*
X620158Y645930D01*
X620152Y645831D01*
X620142Y645731D01*
X620129Y645633D01*
X620111Y645534D01*
X620090Y645437D01*
X620065Y645341D01*
X620036Y645245D01*
X620003Y645151D01*
X619967Y645058D01*
X619927Y644967D01*
X619883Y644877D01*
X619836Y644789D01*
X619786Y644703D01*
X619732Y644619D01*
X619675Y644537D01*
X619615Y644458D01*
X619551Y644380D01*
X619485Y644306D01*
X619416Y644234D01*
X619344Y644165D01*
X619270Y644099D01*
X619192Y644035D01*
X619113Y643975D01*
X619031Y643918D01*
X618947Y643864D01*
X618861Y643814D01*
X618773Y643767D01*
X618683Y643723D01*
X618592Y643683D01*
X618499Y643647D01*
X618405Y643614D01*
X618309Y643585D01*
X618213Y643560D01*
X618116Y643539D01*
X618017Y643521D01*
X617919Y643508D01*
X617819Y643498D01*
X617720Y643492D01*
X617620Y643490D01*
X602380Y643490D01*
X602380Y676510D02*
X617620Y676510D01*
X599840Y673970D02*
X599840Y646030D01*
D16*
X593909Y650508D02*
X595408Y652007D01*
X593909Y650508D02*
X592411Y650508D01*
X590912Y652007D01*
X590912Y659500D01*
X592411Y659500D02*
X589413Y659500D01*
X586200Y650508D02*
X580205Y650508D01*
X580205Y656502D02*
X586200Y650508D01*
X580205Y656502D02*
X580205Y658001D01*
X581704Y659500D01*
X584701Y659500D01*
X586200Y658001D01*
M02*
