G04 EAGLE Gerber RS-274X export*
G75*
%MOMM*%
%FSLAX34Y34*%
%LPD*%
%INSolderpaste Bottom*%
%IPPOS*%
%AMOC8*
5,1,8,0,0,1.08239X$1,22.5*%
G01*
%ADD10R,1.050000X1.080000*%
%ADD11R,1.000000X1.100000*%
%ADD12R,1.600000X3.000000*%
%ADD13R,1.150000X0.350000*%
%ADD14R,1.100000X1.000000*%
%ADD15R,1.016000X3.302000*%
%ADD16R,1.600000X1.000000*%
%ADD17R,0.400000X1.600000*%
%ADD18C,0.222250*%
%ADD19R,1.600200X1.168400*%


D10*
X717316Y466213D03*
X699816Y466213D03*
D11*
X595000Y176000D03*
X595000Y159000D03*
D12*
X595000Y73000D03*
X595000Y117000D03*
D10*
X717316Y481213D03*
X699816Y481213D03*
X776324Y679289D03*
X758824Y679289D03*
X717316Y551213D03*
X699816Y551213D03*
X717316Y496213D03*
X699816Y496213D03*
X717316Y566213D03*
X699816Y566213D03*
D13*
G36*
X761767Y559694D02*
X753636Y551563D01*
X751161Y554038D01*
X759292Y562169D01*
X761767Y559694D01*
G37*
G36*
X756111Y565351D02*
X747980Y557220D01*
X745505Y559695D01*
X753636Y567826D01*
X756111Y565351D01*
G37*
G36*
X750454Y571008D02*
X742323Y562877D01*
X739848Y565352D01*
X747979Y573483D01*
X750454Y571008D01*
G37*
G36*
X744797Y576665D02*
X736666Y568534D01*
X734191Y571009D01*
X742322Y579140D01*
X744797Y576665D01*
G37*
G36*
X739140Y582322D02*
X731009Y574191D01*
X728534Y576666D01*
X736665Y584797D01*
X739140Y582322D01*
G37*
G36*
X733483Y587979D02*
X725352Y579848D01*
X722877Y582323D01*
X731008Y590454D01*
X733483Y587979D01*
G37*
G36*
X727826Y593636D02*
X719695Y585505D01*
X717220Y587980D01*
X725351Y596111D01*
X727826Y593636D01*
G37*
G36*
X722170Y599292D02*
X714039Y591161D01*
X711564Y593636D01*
X719695Y601767D01*
X722170Y599292D01*
G37*
G36*
X719695Y612375D02*
X711564Y620506D01*
X714039Y622981D01*
X722170Y614850D01*
X719695Y612375D01*
G37*
G36*
X725351Y618032D02*
X717220Y626163D01*
X719695Y628638D01*
X727826Y620507D01*
X725351Y618032D01*
G37*
G36*
X731008Y623688D02*
X722877Y631819D01*
X725352Y634294D01*
X733483Y626163D01*
X731008Y623688D01*
G37*
G36*
X736665Y629345D02*
X728534Y637476D01*
X731009Y639951D01*
X739140Y631820D01*
X736665Y629345D01*
G37*
G36*
X742322Y635002D02*
X734191Y643133D01*
X736666Y645608D01*
X744797Y637477D01*
X742322Y635002D01*
G37*
G36*
X747979Y640659D02*
X739848Y648790D01*
X742323Y651265D01*
X750454Y643134D01*
X747979Y640659D01*
G37*
G36*
X753636Y646316D02*
X745505Y654447D01*
X747980Y656922D01*
X756111Y648791D01*
X753636Y646316D01*
G37*
G36*
X759292Y651973D02*
X751161Y660104D01*
X753636Y662579D01*
X761767Y654448D01*
X759292Y651973D01*
G37*
G36*
X772375Y654448D02*
X780506Y662579D01*
X782981Y660104D01*
X774850Y651973D01*
X772375Y654448D01*
G37*
G36*
X778032Y648791D02*
X786163Y656922D01*
X788638Y654447D01*
X780507Y646316D01*
X778032Y648791D01*
G37*
G36*
X783688Y643134D02*
X791819Y651265D01*
X794294Y648790D01*
X786163Y640659D01*
X783688Y643134D01*
G37*
G36*
X789345Y637477D02*
X797476Y645608D01*
X799951Y643133D01*
X791820Y635002D01*
X789345Y637477D01*
G37*
G36*
X795002Y631820D02*
X803133Y639951D01*
X805608Y637476D01*
X797477Y629345D01*
X795002Y631820D01*
G37*
G36*
X800659Y626163D02*
X808790Y634294D01*
X811265Y631819D01*
X803134Y623688D01*
X800659Y626163D01*
G37*
G36*
X806316Y620507D02*
X814447Y628638D01*
X816922Y626163D01*
X808791Y618032D01*
X806316Y620507D01*
G37*
G36*
X811973Y614850D02*
X820104Y622981D01*
X822579Y620506D01*
X814448Y612375D01*
X811973Y614850D01*
G37*
G36*
X814448Y601767D02*
X822579Y593636D01*
X820104Y591161D01*
X811973Y599292D01*
X814448Y601767D01*
G37*
G36*
X808791Y596111D02*
X816922Y587980D01*
X814447Y585505D01*
X806316Y593636D01*
X808791Y596111D01*
G37*
G36*
X803134Y590454D02*
X811265Y582323D01*
X808790Y579848D01*
X800659Y587979D01*
X803134Y590454D01*
G37*
G36*
X797477Y584797D02*
X805608Y576666D01*
X803133Y574191D01*
X795002Y582322D01*
X797477Y584797D01*
G37*
G36*
X791820Y579140D02*
X799951Y571009D01*
X797476Y568534D01*
X789345Y576665D01*
X791820Y579140D01*
G37*
G36*
X786163Y573483D02*
X794294Y565352D01*
X791819Y562877D01*
X783688Y571008D01*
X786163Y573483D01*
G37*
G36*
X780507Y567826D02*
X788638Y559695D01*
X786163Y557220D01*
X778032Y565351D01*
X780507Y567826D01*
G37*
G36*
X774850Y562169D02*
X782981Y554038D01*
X780506Y551563D01*
X772375Y559694D01*
X774850Y562169D01*
G37*
D11*
X700066Y443713D03*
X717066Y443713D03*
D14*
X810000Y341500D03*
X810000Y358500D03*
X790000Y341500D03*
X790000Y358500D03*
X770000Y341500D03*
X770000Y358500D03*
X740000Y788500D03*
X740000Y771500D03*
D11*
X170000Y748500D03*
X170000Y731500D03*
D14*
X150000Y748500D03*
X150000Y731500D03*
X110000Y731500D03*
X110000Y748500D03*
X130000Y731500D03*
X130000Y748500D03*
X130000Y771500D03*
X130000Y788500D03*
D15*
X827700Y246900D03*
X827700Y297700D03*
X802300Y246900D03*
X802300Y297700D03*
X776900Y246900D03*
X776900Y297700D03*
D16*
X624500Y581500D03*
X624500Y600000D03*
X624500Y618500D03*
X575500Y618500D03*
X575500Y600000D03*
X575500Y581500D03*
X514500Y581500D03*
X514500Y600000D03*
X514500Y618500D03*
X465500Y618500D03*
X465500Y600000D03*
X465500Y581500D03*
X404500Y581500D03*
X404500Y600000D03*
X404500Y618500D03*
X355500Y618500D03*
X355500Y600000D03*
X355500Y581500D03*
X294500Y581500D03*
X294500Y600000D03*
X294500Y618500D03*
X245500Y618500D03*
X245500Y600000D03*
X245500Y581500D03*
X624500Y471500D03*
X624500Y490000D03*
X624500Y508500D03*
X575500Y508500D03*
X575500Y490000D03*
X575500Y471500D03*
X514500Y471500D03*
X514500Y490000D03*
X514500Y508500D03*
X465500Y508500D03*
X465500Y490000D03*
X465500Y471500D03*
X404500Y471500D03*
X404500Y490000D03*
X404500Y508500D03*
X355500Y508500D03*
X355500Y490000D03*
X355500Y471500D03*
X294500Y471500D03*
X294500Y490000D03*
X294500Y508500D03*
X245500Y508500D03*
X245500Y490000D03*
X245500Y471500D03*
X624500Y361500D03*
X624500Y380000D03*
X624500Y398500D03*
X575500Y398500D03*
X575500Y380000D03*
X575500Y361500D03*
X514500Y361500D03*
X514500Y380000D03*
X514500Y398500D03*
X465500Y398500D03*
X465500Y380000D03*
X465500Y361500D03*
X404500Y361500D03*
X404500Y380000D03*
X404500Y398500D03*
X355500Y398500D03*
X355500Y380000D03*
X355500Y361500D03*
X294500Y361500D03*
X294500Y380000D03*
X294500Y398500D03*
X245500Y398500D03*
X245500Y380000D03*
X245500Y361500D03*
X624500Y251500D03*
X624500Y270000D03*
X624500Y288500D03*
X575500Y288500D03*
X575500Y270000D03*
X575500Y251500D03*
X514500Y251500D03*
X514500Y270000D03*
X514500Y288500D03*
X465500Y288500D03*
X465500Y270000D03*
X465500Y251500D03*
X404500Y251500D03*
X404500Y270000D03*
X404500Y288500D03*
X355500Y288500D03*
X355500Y270000D03*
X355500Y251500D03*
X294500Y251500D03*
X294500Y270000D03*
X294500Y288500D03*
X245500Y288500D03*
X245500Y270000D03*
X245500Y251500D03*
D11*
G36*
X676137Y686086D02*
X669066Y693157D01*
X676843Y700934D01*
X683914Y693863D01*
X676137Y686086D01*
G37*
G36*
X688157Y674066D02*
X681086Y681137D01*
X688863Y688914D01*
X695934Y681843D01*
X688157Y674066D01*
G37*
G36*
X691137Y701086D02*
X684066Y708157D01*
X691843Y715934D01*
X698914Y708863D01*
X691137Y701086D01*
G37*
G36*
X703157Y689066D02*
X696086Y696137D01*
X703863Y703914D01*
X710934Y696843D01*
X703157Y689066D01*
G37*
D17*
X412500Y772000D03*
X417500Y748000D03*
X422500Y772000D03*
X427500Y748000D03*
X432500Y772000D03*
X437500Y748000D03*
X442500Y772000D03*
X447500Y748000D03*
X452500Y772000D03*
X457500Y748000D03*
X462500Y772000D03*
X467500Y748000D03*
D14*
X350000Y768500D03*
X350000Y751500D03*
X370000Y768500D03*
X370000Y751500D03*
X150000Y771500D03*
X150000Y788500D03*
D18*
X697612Y530379D02*
X704280Y530379D01*
X697612Y530379D02*
X697612Y537047D01*
X704280Y537047D01*
X704280Y530379D01*
X704280Y532491D02*
X697612Y532491D01*
X697612Y534603D02*
X704280Y534603D01*
X704280Y536715D02*
X697612Y536715D01*
X712852Y530379D02*
X719520Y530379D01*
X712852Y530379D02*
X712852Y537047D01*
X719520Y537047D01*
X719520Y530379D01*
X719520Y532491D02*
X712852Y532491D01*
X712852Y534603D02*
X719520Y534603D01*
X719520Y536715D02*
X712852Y536715D01*
D19*
X640000Y667620D03*
X640000Y652380D03*
X610000Y667620D03*
X610000Y652380D03*
M02*
