G04 EAGLE Gerber RS-274X export*
G75*
%MOMM*%
%FSLAX34Y34*%
%LPD*%
%INSoldermask Top*%
%IPPOS*%
%AMOC8*
5,1,8,0,0,1.08239X$1,22.5*%
G01*
%ADD10C,3.301600*%
%ADD11C,1.778000*%
%ADD12C,3.403600*%
%ADD13C,2.101600*%
%ADD14C,2.882900*%
%ADD15C,1.601600*%
%ADD16C,4.250600*%
%ADD17R,1.751600X1.751600*%
%ADD18C,1.751600*%
%ADD19R,0.501600X1.801600*%
%ADD20R,1.901600X4.001600*%

G36*
X250756Y65168D02*
X250756Y65168D01*
X250757Y65168D01*
X252446Y65680D01*
X252446Y65681D01*
X252447Y65681D01*
X254002Y66512D01*
X254003Y66513D01*
X255367Y67632D01*
X255367Y67633D01*
X255368Y67633D01*
X256487Y68997D01*
X256488Y68998D01*
X257319Y70554D01*
X257320Y70554D01*
X257832Y72243D01*
X257832Y72244D01*
X258005Y74000D01*
X258005Y81750D01*
X258001Y81755D01*
X258000Y81755D01*
X252000Y81755D01*
X251995Y81751D01*
X251995Y81750D01*
X251995Y76500D01*
X251995Y76498D01*
X251994Y76493D01*
X251994Y76488D01*
X251993Y76483D01*
X251993Y76478D01*
X251992Y76473D01*
X251990Y76454D01*
X251989Y76449D01*
X251989Y76444D01*
X251988Y76439D01*
X251988Y76434D01*
X251987Y76429D01*
X251986Y76424D01*
X251986Y76419D01*
X251985Y76414D01*
X251983Y76394D01*
X251983Y76389D01*
X251982Y76389D01*
X251983Y76389D01*
X251982Y76384D01*
X251981Y76379D01*
X251981Y76374D01*
X251980Y76369D01*
X251980Y76364D01*
X251979Y76359D01*
X251979Y76354D01*
X251976Y76334D01*
X251976Y76329D01*
X251975Y76324D01*
X251975Y76319D01*
X251974Y76314D01*
X251974Y76310D01*
X251974Y76309D01*
X251973Y76305D01*
X251973Y76304D01*
X251972Y76300D01*
X251970Y76275D01*
X251969Y76270D01*
X251969Y76265D01*
X251968Y76265D01*
X251969Y76265D01*
X251968Y76260D01*
X251967Y76255D01*
X251967Y76250D01*
X251966Y76245D01*
X251966Y76240D01*
X251963Y76220D01*
X251963Y76215D01*
X251962Y76210D01*
X251962Y76205D01*
X251961Y76200D01*
X251961Y76195D01*
X251960Y76190D01*
X251960Y76185D01*
X251959Y76180D01*
X251957Y76160D01*
X251956Y76155D01*
X251956Y76151D01*
X251956Y76150D01*
X251955Y76146D01*
X251955Y76145D01*
X251955Y76141D01*
X251954Y76141D01*
X251955Y76141D01*
X251954Y76136D01*
X251953Y76131D01*
X251953Y76126D01*
X251952Y76121D01*
X251950Y76101D01*
X251949Y76096D01*
X251949Y76091D01*
X251948Y76086D01*
X251948Y76081D01*
X251947Y76076D01*
X251947Y76071D01*
X251946Y76066D01*
X251946Y76061D01*
X251943Y76041D01*
X251943Y76036D01*
X251942Y76031D01*
X251942Y76026D01*
X251941Y76021D01*
X251941Y76016D01*
X251940Y76016D01*
X251941Y76016D01*
X251940Y76011D01*
X251939Y76006D01*
X251939Y76001D01*
X251937Y75982D01*
X251936Y75977D01*
X251935Y75972D01*
X251935Y75967D01*
X251934Y75962D01*
X251934Y75957D01*
X251933Y75952D01*
X251933Y75947D01*
X251930Y75922D01*
X251929Y75917D01*
X251929Y75912D01*
X251928Y75907D01*
X251928Y75902D01*
X251927Y75897D01*
X251927Y75892D01*
X251926Y75892D01*
X251927Y75892D01*
X251926Y75887D01*
X251923Y75862D01*
X251923Y75857D01*
X251922Y75852D01*
X251921Y75847D01*
X251921Y75842D01*
X251920Y75837D01*
X251920Y75834D01*
X251698Y75200D01*
X251342Y74633D01*
X250867Y74158D01*
X250300Y73802D01*
X249666Y73580D01*
X249366Y73546D01*
X249322Y73541D01*
X249013Y73507D01*
X249000Y73505D01*
X248334Y73580D01*
X247700Y73802D01*
X247133Y74158D01*
X246658Y74633D01*
X246302Y75200D01*
X246080Y75834D01*
X246005Y76500D01*
X246005Y87500D01*
X246005Y87503D01*
X246006Y87508D01*
X246006Y87513D01*
X246007Y87518D01*
X246008Y87523D01*
X246010Y87543D01*
X246010Y87548D01*
X246011Y87552D01*
X246011Y87553D01*
X246011Y87557D01*
X246012Y87557D01*
X246011Y87558D01*
X246012Y87562D01*
X246013Y87567D01*
X246013Y87572D01*
X246014Y87577D01*
X246014Y87582D01*
X246017Y87602D01*
X246017Y87607D01*
X246018Y87612D01*
X246018Y87617D01*
X246019Y87622D01*
X246019Y87627D01*
X246020Y87632D01*
X246020Y87637D01*
X246021Y87642D01*
X246023Y87662D01*
X246024Y87667D01*
X246024Y87672D01*
X246025Y87677D01*
X246025Y87682D01*
X246026Y87682D01*
X246025Y87682D01*
X246026Y87687D01*
X246027Y87692D01*
X246027Y87697D01*
X246028Y87702D01*
X246030Y87721D01*
X246031Y87726D01*
X246031Y87731D01*
X246032Y87736D01*
X246032Y87741D01*
X246033Y87746D01*
X246033Y87751D01*
X246034Y87756D01*
X246034Y87761D01*
X246037Y87781D01*
X246037Y87786D01*
X246038Y87791D01*
X246038Y87796D01*
X246039Y87801D01*
X246039Y87806D01*
X246040Y87806D01*
X246039Y87806D01*
X246040Y87811D01*
X246041Y87816D01*
X246043Y87841D01*
X246044Y87846D01*
X246045Y87851D01*
X246045Y87856D01*
X246046Y87861D01*
X246046Y87866D01*
X246047Y87870D01*
X246047Y87871D01*
X246047Y87875D01*
X246047Y87876D01*
X246050Y87900D01*
X246051Y87905D01*
X246051Y87910D01*
X246052Y87915D01*
X246052Y87920D01*
X246053Y87925D01*
X246053Y87930D01*
X246054Y87930D01*
X246053Y87930D01*
X246054Y87935D01*
X246056Y87955D01*
X246057Y87960D01*
X246057Y87965D01*
X246058Y87970D01*
X246059Y87975D01*
X246059Y87980D01*
X246060Y87985D01*
X246060Y87990D01*
X246061Y87995D01*
X246063Y88015D01*
X246064Y88020D01*
X246064Y88025D01*
X246065Y88029D01*
X246065Y88030D01*
X246065Y88034D01*
X246065Y88035D01*
X246066Y88039D01*
X246066Y88044D01*
X246067Y88049D01*
X246067Y88054D01*
X246068Y88054D01*
X246067Y88054D01*
X246070Y88074D01*
X246070Y88079D01*
X246071Y88084D01*
X246071Y88089D01*
X246072Y88094D01*
X246073Y88099D01*
X246073Y88104D01*
X246074Y88109D01*
X246074Y88114D01*
X246076Y88134D01*
X246077Y88139D01*
X246078Y88144D01*
X246078Y88149D01*
X246079Y88154D01*
X246079Y88159D01*
X246080Y88164D01*
X246080Y88166D01*
X246302Y88800D01*
X246658Y89367D01*
X247133Y89842D01*
X247700Y90198D01*
X248334Y90420D01*
X249000Y90495D01*
X249666Y90420D01*
X250300Y90198D01*
X250867Y89842D01*
X251342Y89367D01*
X251698Y88800D01*
X251920Y88166D01*
X251995Y87500D01*
X251995Y82375D01*
X251999Y82370D01*
X252000Y82370D01*
X258000Y82370D01*
X258005Y82374D01*
X258005Y82375D01*
X258005Y90000D01*
X258005Y90001D01*
X257832Y91756D01*
X257832Y91757D01*
X257320Y93446D01*
X257319Y93446D01*
X257319Y93447D01*
X256488Y95002D01*
X256487Y95003D01*
X255368Y96367D01*
X255367Y96367D01*
X255367Y96368D01*
X254003Y97487D01*
X254002Y97488D01*
X252447Y98319D01*
X252446Y98319D01*
X252446Y98320D01*
X250757Y98832D01*
X250756Y98832D01*
X249001Y99005D01*
X249000Y99005D01*
X247244Y98832D01*
X247243Y98832D01*
X245554Y98320D01*
X245554Y98319D01*
X243998Y97488D01*
X243997Y97487D01*
X242633Y96368D01*
X242633Y96367D01*
X242632Y96367D01*
X241513Y95003D01*
X241512Y95002D01*
X240681Y93447D01*
X240681Y93446D01*
X240680Y93446D01*
X240168Y91757D01*
X240168Y91756D01*
X239995Y90001D01*
X239995Y90000D01*
X239995Y74000D01*
X240168Y72244D01*
X240168Y72243D01*
X240680Y70554D01*
X240681Y70554D01*
X241512Y68998D01*
X241513Y68997D01*
X242632Y67633D01*
X242633Y67633D01*
X242633Y67632D01*
X243997Y66513D01*
X243998Y66512D01*
X245554Y65681D01*
X245554Y65680D01*
X247243Y65168D01*
X247244Y65168D01*
X249000Y64995D01*
X249001Y64995D01*
X250756Y65168D01*
G37*
G36*
X250756Y29668D02*
X250756Y29668D01*
X250757Y29668D01*
X252446Y30180D01*
X252446Y30181D01*
X252447Y30181D01*
X254002Y31012D01*
X254003Y31013D01*
X255367Y32132D01*
X255367Y32133D01*
X255368Y32133D01*
X256487Y33497D01*
X256488Y33498D01*
X257319Y35054D01*
X257320Y35054D01*
X257832Y36743D01*
X257832Y36744D01*
X258005Y38500D01*
X258005Y46250D01*
X258001Y46255D01*
X258000Y46255D01*
X252000Y46255D01*
X251995Y46251D01*
X251995Y46250D01*
X251995Y41000D01*
X251995Y40998D01*
X251994Y40993D01*
X251994Y40988D01*
X251993Y40983D01*
X251993Y40978D01*
X251992Y40973D01*
X251990Y40954D01*
X251989Y40949D01*
X251989Y40944D01*
X251988Y40939D01*
X251988Y40934D01*
X251987Y40929D01*
X251986Y40924D01*
X251986Y40919D01*
X251985Y40914D01*
X251983Y40894D01*
X251983Y40889D01*
X251982Y40889D01*
X251983Y40889D01*
X251982Y40884D01*
X251981Y40879D01*
X251981Y40874D01*
X251980Y40869D01*
X251980Y40864D01*
X251979Y40859D01*
X251979Y40854D01*
X251976Y40834D01*
X251976Y40829D01*
X251975Y40824D01*
X251975Y40819D01*
X251974Y40814D01*
X251974Y40810D01*
X251974Y40809D01*
X251973Y40805D01*
X251973Y40804D01*
X251972Y40800D01*
X251970Y40775D01*
X251969Y40770D01*
X251969Y40765D01*
X251968Y40765D01*
X251969Y40765D01*
X251968Y40760D01*
X251967Y40755D01*
X251967Y40750D01*
X251966Y40745D01*
X251966Y40740D01*
X251963Y40720D01*
X251963Y40715D01*
X251962Y40710D01*
X251962Y40705D01*
X251961Y40700D01*
X251961Y40695D01*
X251960Y40690D01*
X251960Y40685D01*
X251959Y40680D01*
X251957Y40660D01*
X251956Y40655D01*
X251956Y40651D01*
X251956Y40650D01*
X251955Y40646D01*
X251955Y40645D01*
X251955Y40641D01*
X251954Y40641D01*
X251955Y40641D01*
X251954Y40636D01*
X251953Y40631D01*
X251953Y40626D01*
X251952Y40621D01*
X251950Y40601D01*
X251949Y40596D01*
X251949Y40591D01*
X251948Y40586D01*
X251948Y40581D01*
X251947Y40576D01*
X251947Y40571D01*
X251946Y40566D01*
X251946Y40561D01*
X251943Y40541D01*
X251943Y40536D01*
X251942Y40531D01*
X251942Y40526D01*
X251941Y40521D01*
X251941Y40516D01*
X251940Y40516D01*
X251941Y40516D01*
X251940Y40511D01*
X251939Y40506D01*
X251939Y40501D01*
X251937Y40482D01*
X251936Y40477D01*
X251935Y40472D01*
X251935Y40467D01*
X251934Y40462D01*
X251934Y40457D01*
X251933Y40452D01*
X251933Y40447D01*
X251930Y40422D01*
X251929Y40417D01*
X251929Y40412D01*
X251928Y40407D01*
X251928Y40402D01*
X251927Y40397D01*
X251927Y40392D01*
X251926Y40392D01*
X251927Y40392D01*
X251926Y40387D01*
X251923Y40362D01*
X251923Y40357D01*
X251922Y40352D01*
X251921Y40347D01*
X251921Y40342D01*
X251920Y40337D01*
X251920Y40334D01*
X251698Y39700D01*
X251342Y39133D01*
X250867Y38658D01*
X250300Y38302D01*
X249666Y38080D01*
X249366Y38046D01*
X249322Y38041D01*
X249013Y38007D01*
X249000Y38005D01*
X248334Y38080D01*
X247700Y38302D01*
X247133Y38658D01*
X246658Y39133D01*
X246302Y39700D01*
X246080Y40334D01*
X246005Y41000D01*
X246005Y52000D01*
X246005Y52003D01*
X246006Y52008D01*
X246006Y52013D01*
X246007Y52018D01*
X246008Y52023D01*
X246010Y52043D01*
X246010Y52048D01*
X246011Y52052D01*
X246011Y52053D01*
X246011Y52057D01*
X246012Y52057D01*
X246011Y52058D01*
X246012Y52062D01*
X246013Y52067D01*
X246013Y52072D01*
X246014Y52077D01*
X246014Y52082D01*
X246017Y52102D01*
X246017Y52107D01*
X246018Y52112D01*
X246018Y52117D01*
X246019Y52122D01*
X246019Y52127D01*
X246020Y52132D01*
X246020Y52137D01*
X246021Y52142D01*
X246023Y52162D01*
X246024Y52167D01*
X246024Y52172D01*
X246025Y52177D01*
X246025Y52182D01*
X246026Y52182D01*
X246025Y52182D01*
X246026Y52187D01*
X246027Y52192D01*
X246027Y52197D01*
X246028Y52202D01*
X246030Y52221D01*
X246031Y52226D01*
X246031Y52231D01*
X246032Y52236D01*
X246032Y52241D01*
X246033Y52246D01*
X246033Y52251D01*
X246034Y52256D01*
X246034Y52261D01*
X246037Y52281D01*
X246037Y52286D01*
X246038Y52291D01*
X246038Y52296D01*
X246039Y52301D01*
X246039Y52306D01*
X246040Y52306D01*
X246039Y52306D01*
X246040Y52311D01*
X246041Y52316D01*
X246043Y52341D01*
X246044Y52346D01*
X246045Y52351D01*
X246045Y52356D01*
X246046Y52361D01*
X246046Y52366D01*
X246047Y52370D01*
X246047Y52371D01*
X246047Y52375D01*
X246047Y52376D01*
X246050Y52400D01*
X246051Y52405D01*
X246051Y52410D01*
X246052Y52415D01*
X246052Y52420D01*
X246053Y52425D01*
X246053Y52430D01*
X246054Y52430D01*
X246053Y52430D01*
X246054Y52435D01*
X246056Y52455D01*
X246057Y52460D01*
X246057Y52465D01*
X246058Y52470D01*
X246059Y52475D01*
X246059Y52480D01*
X246060Y52485D01*
X246060Y52490D01*
X246061Y52495D01*
X246063Y52515D01*
X246064Y52520D01*
X246064Y52525D01*
X246065Y52529D01*
X246065Y52530D01*
X246065Y52534D01*
X246065Y52535D01*
X246066Y52539D01*
X246066Y52544D01*
X246067Y52549D01*
X246067Y52554D01*
X246068Y52554D01*
X246067Y52554D01*
X246070Y52574D01*
X246070Y52579D01*
X246071Y52584D01*
X246071Y52589D01*
X246072Y52594D01*
X246073Y52599D01*
X246073Y52604D01*
X246074Y52609D01*
X246074Y52614D01*
X246076Y52634D01*
X246077Y52639D01*
X246078Y52644D01*
X246078Y52649D01*
X246079Y52654D01*
X246079Y52659D01*
X246080Y52664D01*
X246080Y52666D01*
X246302Y53300D01*
X246658Y53867D01*
X247133Y54342D01*
X247700Y54698D01*
X248334Y54920D01*
X249000Y54995D01*
X249666Y54920D01*
X250300Y54698D01*
X250867Y54342D01*
X251342Y53867D01*
X251698Y53300D01*
X251920Y52666D01*
X251995Y52000D01*
X251995Y46875D01*
X251999Y46870D01*
X252000Y46870D01*
X258000Y46870D01*
X258005Y46874D01*
X258005Y46875D01*
X258005Y54500D01*
X258005Y54501D01*
X257832Y56256D01*
X257832Y56257D01*
X257320Y57946D01*
X257319Y57946D01*
X257319Y57947D01*
X256488Y59502D01*
X256487Y59503D01*
X255368Y60867D01*
X255367Y60867D01*
X255367Y60868D01*
X254003Y61987D01*
X254002Y61988D01*
X252447Y62819D01*
X252446Y62819D01*
X252446Y62820D01*
X250757Y63332D01*
X250756Y63332D01*
X249001Y63505D01*
X249000Y63505D01*
X247244Y63332D01*
X247243Y63332D01*
X245554Y62820D01*
X245554Y62819D01*
X243998Y61988D01*
X243997Y61987D01*
X242633Y60868D01*
X242633Y60867D01*
X242632Y60867D01*
X241513Y59503D01*
X241512Y59502D01*
X240681Y57947D01*
X240681Y57946D01*
X240680Y57946D01*
X240168Y56257D01*
X240168Y56256D01*
X239995Y54501D01*
X239995Y54500D01*
X239995Y38500D01*
X240168Y36744D01*
X240168Y36743D01*
X240680Y35054D01*
X240681Y35054D01*
X241512Y33498D01*
X241513Y33497D01*
X242632Y32133D01*
X242633Y32133D01*
X242633Y32132D01*
X243997Y31013D01*
X243998Y31012D01*
X245554Y30181D01*
X245554Y30180D01*
X247243Y29668D01*
X247244Y29668D01*
X249000Y29495D01*
X249001Y29495D01*
X250756Y29668D01*
G37*
G36*
X322756Y65168D02*
X322756Y65168D01*
X322757Y65168D01*
X324446Y65680D01*
X324446Y65681D01*
X324447Y65681D01*
X326002Y66512D01*
X326003Y66513D01*
X327367Y67632D01*
X327367Y67633D01*
X327368Y67633D01*
X328487Y68997D01*
X328488Y68998D01*
X329319Y70554D01*
X329320Y70554D01*
X329832Y72243D01*
X329832Y72244D01*
X330005Y74000D01*
X330005Y90000D01*
X330005Y90001D01*
X329832Y91756D01*
X329832Y91757D01*
X329320Y93446D01*
X329319Y93446D01*
X329319Y93447D01*
X328488Y95002D01*
X328487Y95003D01*
X327368Y96367D01*
X327367Y96367D01*
X327367Y96368D01*
X326003Y97487D01*
X326002Y97488D01*
X324447Y98319D01*
X324446Y98319D01*
X324446Y98320D01*
X322757Y98832D01*
X322756Y98832D01*
X321001Y99005D01*
X321000Y99005D01*
X319244Y98832D01*
X319243Y98832D01*
X317554Y98320D01*
X317554Y98319D01*
X315998Y97488D01*
X315997Y97487D01*
X314633Y96368D01*
X314633Y96367D01*
X314632Y96367D01*
X313513Y95003D01*
X313512Y95002D01*
X312681Y93447D01*
X312681Y93446D01*
X312680Y93446D01*
X312168Y91757D01*
X312168Y91756D01*
X311995Y90001D01*
X311995Y90000D01*
X311995Y82250D01*
X311999Y82245D01*
X312000Y82245D01*
X318000Y82245D01*
X318005Y82249D01*
X318005Y82250D01*
X318005Y87500D01*
X318005Y87503D01*
X318006Y87508D01*
X318006Y87513D01*
X318007Y87518D01*
X318008Y87523D01*
X318010Y87543D01*
X318010Y87548D01*
X318011Y87552D01*
X318011Y87553D01*
X318011Y87557D01*
X318012Y87557D01*
X318011Y87558D01*
X318012Y87562D01*
X318013Y87567D01*
X318013Y87572D01*
X318014Y87577D01*
X318014Y87582D01*
X318017Y87602D01*
X318017Y87607D01*
X318018Y87612D01*
X318018Y87617D01*
X318019Y87622D01*
X318019Y87627D01*
X318020Y87632D01*
X318020Y87637D01*
X318021Y87642D01*
X318023Y87662D01*
X318024Y87667D01*
X318024Y87672D01*
X318025Y87677D01*
X318025Y87682D01*
X318026Y87682D01*
X318025Y87682D01*
X318026Y87687D01*
X318027Y87692D01*
X318027Y87697D01*
X318028Y87702D01*
X318030Y87721D01*
X318031Y87726D01*
X318031Y87731D01*
X318032Y87736D01*
X318032Y87741D01*
X318033Y87746D01*
X318033Y87751D01*
X318034Y87756D01*
X318034Y87761D01*
X318037Y87781D01*
X318037Y87786D01*
X318038Y87791D01*
X318038Y87796D01*
X318039Y87801D01*
X318039Y87806D01*
X318040Y87806D01*
X318039Y87806D01*
X318040Y87811D01*
X318041Y87816D01*
X318043Y87841D01*
X318044Y87846D01*
X318045Y87851D01*
X318045Y87856D01*
X318046Y87861D01*
X318046Y87866D01*
X318047Y87870D01*
X318047Y87871D01*
X318047Y87875D01*
X318047Y87876D01*
X318050Y87900D01*
X318051Y87905D01*
X318051Y87910D01*
X318052Y87915D01*
X318052Y87920D01*
X318053Y87925D01*
X318053Y87930D01*
X318054Y87930D01*
X318053Y87930D01*
X318054Y87935D01*
X318056Y87955D01*
X318057Y87960D01*
X318057Y87965D01*
X318058Y87970D01*
X318059Y87975D01*
X318059Y87980D01*
X318060Y87985D01*
X318060Y87990D01*
X318061Y87995D01*
X318063Y88015D01*
X318064Y88020D01*
X318064Y88025D01*
X318065Y88029D01*
X318065Y88030D01*
X318065Y88034D01*
X318065Y88035D01*
X318066Y88039D01*
X318066Y88044D01*
X318067Y88049D01*
X318067Y88054D01*
X318068Y88054D01*
X318067Y88054D01*
X318070Y88074D01*
X318070Y88079D01*
X318071Y88084D01*
X318071Y88089D01*
X318072Y88094D01*
X318073Y88099D01*
X318073Y88104D01*
X318074Y88109D01*
X318074Y88114D01*
X318076Y88134D01*
X318077Y88139D01*
X318078Y88144D01*
X318078Y88149D01*
X318079Y88154D01*
X318079Y88159D01*
X318080Y88164D01*
X318080Y88166D01*
X318302Y88800D01*
X318658Y89367D01*
X319133Y89842D01*
X319700Y90198D01*
X320334Y90420D01*
X321000Y90495D01*
X321666Y90420D01*
X322300Y90198D01*
X322867Y89842D01*
X323342Y89367D01*
X323698Y88800D01*
X323920Y88166D01*
X323995Y87500D01*
X323995Y76500D01*
X323995Y76498D01*
X323994Y76493D01*
X323994Y76488D01*
X323993Y76483D01*
X323993Y76478D01*
X323992Y76473D01*
X323990Y76454D01*
X323989Y76449D01*
X323989Y76444D01*
X323988Y76439D01*
X323988Y76434D01*
X323987Y76429D01*
X323986Y76424D01*
X323986Y76419D01*
X323985Y76414D01*
X323983Y76394D01*
X323983Y76389D01*
X323982Y76389D01*
X323983Y76389D01*
X323982Y76384D01*
X323981Y76379D01*
X323981Y76374D01*
X323980Y76369D01*
X323980Y76364D01*
X323979Y76359D01*
X323979Y76354D01*
X323976Y76334D01*
X323976Y76329D01*
X323975Y76324D01*
X323975Y76319D01*
X323974Y76314D01*
X323974Y76310D01*
X323974Y76309D01*
X323973Y76305D01*
X323973Y76304D01*
X323972Y76300D01*
X323970Y76275D01*
X323969Y76270D01*
X323969Y76265D01*
X323968Y76265D01*
X323969Y76265D01*
X323968Y76260D01*
X323967Y76255D01*
X323967Y76250D01*
X323966Y76245D01*
X323966Y76240D01*
X323963Y76220D01*
X323963Y76215D01*
X323962Y76210D01*
X323962Y76205D01*
X323961Y76200D01*
X323961Y76195D01*
X323960Y76190D01*
X323960Y76185D01*
X323959Y76180D01*
X323957Y76160D01*
X323956Y76155D01*
X323956Y76151D01*
X323956Y76150D01*
X323955Y76146D01*
X323955Y76145D01*
X323955Y76141D01*
X323954Y76141D01*
X323955Y76141D01*
X323954Y76136D01*
X323953Y76131D01*
X323953Y76126D01*
X323952Y76121D01*
X323950Y76101D01*
X323949Y76096D01*
X323949Y76091D01*
X323948Y76086D01*
X323948Y76081D01*
X323947Y76076D01*
X323947Y76071D01*
X323946Y76066D01*
X323946Y76061D01*
X323943Y76041D01*
X323943Y76036D01*
X323942Y76031D01*
X323942Y76026D01*
X323941Y76021D01*
X323941Y76016D01*
X323940Y76016D01*
X323941Y76016D01*
X323940Y76011D01*
X323939Y76006D01*
X323939Y76001D01*
X323937Y75982D01*
X323936Y75977D01*
X323935Y75972D01*
X323935Y75967D01*
X323934Y75962D01*
X323934Y75957D01*
X323933Y75952D01*
X323933Y75947D01*
X323930Y75922D01*
X323929Y75917D01*
X323929Y75912D01*
X323928Y75907D01*
X323928Y75902D01*
X323927Y75897D01*
X323927Y75892D01*
X323926Y75892D01*
X323927Y75892D01*
X323926Y75887D01*
X323923Y75862D01*
X323923Y75857D01*
X323922Y75852D01*
X323921Y75847D01*
X323921Y75842D01*
X323920Y75837D01*
X323920Y75834D01*
X323698Y75200D01*
X323342Y74633D01*
X322867Y74158D01*
X322300Y73802D01*
X321666Y73580D01*
X321366Y73546D01*
X321322Y73541D01*
X321013Y73507D01*
X321000Y73505D01*
X320334Y73580D01*
X319700Y73802D01*
X319133Y74158D01*
X318658Y74633D01*
X318302Y75200D01*
X318080Y75834D01*
X318005Y76500D01*
X318005Y81625D01*
X318001Y81630D01*
X318000Y81630D01*
X312000Y81630D01*
X311995Y81626D01*
X311995Y81625D01*
X311995Y74000D01*
X312168Y72244D01*
X312168Y72243D01*
X312680Y70554D01*
X312681Y70554D01*
X313512Y68998D01*
X313513Y68997D01*
X314632Y67633D01*
X314633Y67633D01*
X314633Y67632D01*
X315997Y66513D01*
X315998Y66512D01*
X317554Y65681D01*
X317554Y65680D01*
X319243Y65168D01*
X319244Y65168D01*
X321000Y64995D01*
X321001Y64995D01*
X322756Y65168D01*
G37*
G36*
X322756Y29668D02*
X322756Y29668D01*
X322757Y29668D01*
X324446Y30180D01*
X324446Y30181D01*
X324447Y30181D01*
X326002Y31012D01*
X326003Y31013D01*
X327367Y32132D01*
X327367Y32133D01*
X327368Y32133D01*
X328487Y33497D01*
X328488Y33498D01*
X329319Y35054D01*
X329320Y35054D01*
X329832Y36743D01*
X329832Y36744D01*
X330005Y38500D01*
X330005Y54500D01*
X330005Y54501D01*
X329832Y56256D01*
X329832Y56257D01*
X329320Y57946D01*
X329319Y57946D01*
X329319Y57947D01*
X328488Y59502D01*
X328487Y59503D01*
X327368Y60867D01*
X327367Y60867D01*
X327367Y60868D01*
X326003Y61987D01*
X326002Y61988D01*
X324447Y62819D01*
X324446Y62819D01*
X324446Y62820D01*
X322757Y63332D01*
X322756Y63332D01*
X321001Y63505D01*
X321000Y63505D01*
X319244Y63332D01*
X319243Y63332D01*
X317554Y62820D01*
X317554Y62819D01*
X315998Y61988D01*
X315997Y61987D01*
X314633Y60868D01*
X314633Y60867D01*
X314632Y60867D01*
X313513Y59503D01*
X313512Y59502D01*
X312681Y57947D01*
X312681Y57946D01*
X312680Y57946D01*
X312168Y56257D01*
X312168Y56256D01*
X311995Y54501D01*
X311995Y54500D01*
X311995Y46750D01*
X311999Y46745D01*
X312000Y46745D01*
X318000Y46745D01*
X318005Y46749D01*
X318005Y46750D01*
X318005Y52000D01*
X318005Y52003D01*
X318006Y52008D01*
X318006Y52013D01*
X318007Y52018D01*
X318008Y52023D01*
X318010Y52043D01*
X318010Y52048D01*
X318011Y52052D01*
X318011Y52053D01*
X318011Y52057D01*
X318012Y52057D01*
X318011Y52058D01*
X318012Y52062D01*
X318013Y52067D01*
X318013Y52072D01*
X318014Y52077D01*
X318014Y52082D01*
X318017Y52102D01*
X318017Y52107D01*
X318018Y52112D01*
X318018Y52117D01*
X318019Y52122D01*
X318019Y52127D01*
X318020Y52132D01*
X318020Y52137D01*
X318021Y52142D01*
X318023Y52162D01*
X318024Y52167D01*
X318024Y52172D01*
X318025Y52177D01*
X318025Y52182D01*
X318026Y52182D01*
X318025Y52182D01*
X318026Y52187D01*
X318027Y52192D01*
X318027Y52197D01*
X318028Y52202D01*
X318030Y52221D01*
X318031Y52226D01*
X318031Y52231D01*
X318032Y52236D01*
X318032Y52241D01*
X318033Y52246D01*
X318033Y52251D01*
X318034Y52256D01*
X318034Y52261D01*
X318037Y52281D01*
X318037Y52286D01*
X318038Y52291D01*
X318038Y52296D01*
X318039Y52301D01*
X318039Y52306D01*
X318040Y52306D01*
X318039Y52306D01*
X318040Y52311D01*
X318041Y52316D01*
X318043Y52341D01*
X318044Y52346D01*
X318045Y52351D01*
X318045Y52356D01*
X318046Y52361D01*
X318046Y52366D01*
X318047Y52370D01*
X318047Y52371D01*
X318047Y52375D01*
X318047Y52376D01*
X318050Y52400D01*
X318051Y52405D01*
X318051Y52410D01*
X318052Y52415D01*
X318052Y52420D01*
X318053Y52425D01*
X318053Y52430D01*
X318054Y52430D01*
X318053Y52430D01*
X318054Y52435D01*
X318056Y52455D01*
X318057Y52460D01*
X318057Y52465D01*
X318058Y52470D01*
X318059Y52475D01*
X318059Y52480D01*
X318060Y52485D01*
X318060Y52490D01*
X318061Y52495D01*
X318063Y52515D01*
X318064Y52520D01*
X318064Y52525D01*
X318065Y52529D01*
X318065Y52530D01*
X318065Y52534D01*
X318065Y52535D01*
X318066Y52539D01*
X318066Y52544D01*
X318067Y52549D01*
X318067Y52554D01*
X318068Y52554D01*
X318067Y52554D01*
X318070Y52574D01*
X318070Y52579D01*
X318071Y52584D01*
X318071Y52589D01*
X318072Y52594D01*
X318073Y52599D01*
X318073Y52604D01*
X318074Y52609D01*
X318074Y52614D01*
X318076Y52634D01*
X318077Y52639D01*
X318078Y52644D01*
X318078Y52649D01*
X318079Y52654D01*
X318079Y52659D01*
X318080Y52664D01*
X318080Y52666D01*
X318302Y53300D01*
X318658Y53867D01*
X319133Y54342D01*
X319700Y54698D01*
X320334Y54920D01*
X321000Y54995D01*
X321666Y54920D01*
X322300Y54698D01*
X322867Y54342D01*
X323342Y53867D01*
X323698Y53300D01*
X323920Y52666D01*
X323995Y52000D01*
X323995Y41000D01*
X323995Y40998D01*
X323994Y40993D01*
X323994Y40988D01*
X323993Y40983D01*
X323993Y40978D01*
X323992Y40973D01*
X323990Y40954D01*
X323989Y40949D01*
X323989Y40944D01*
X323988Y40939D01*
X323988Y40934D01*
X323987Y40929D01*
X323986Y40924D01*
X323986Y40919D01*
X323985Y40914D01*
X323983Y40894D01*
X323983Y40889D01*
X323982Y40889D01*
X323983Y40889D01*
X323982Y40884D01*
X323981Y40879D01*
X323981Y40874D01*
X323980Y40869D01*
X323980Y40864D01*
X323979Y40859D01*
X323979Y40854D01*
X323976Y40834D01*
X323976Y40829D01*
X323975Y40824D01*
X323975Y40819D01*
X323974Y40814D01*
X323974Y40810D01*
X323974Y40809D01*
X323973Y40805D01*
X323973Y40804D01*
X323972Y40800D01*
X323970Y40775D01*
X323969Y40770D01*
X323969Y40765D01*
X323968Y40765D01*
X323969Y40765D01*
X323968Y40760D01*
X323967Y40755D01*
X323967Y40750D01*
X323966Y40745D01*
X323966Y40740D01*
X323963Y40720D01*
X323963Y40715D01*
X323962Y40710D01*
X323962Y40705D01*
X323961Y40700D01*
X323961Y40695D01*
X323960Y40690D01*
X323960Y40685D01*
X323959Y40680D01*
X323957Y40660D01*
X323956Y40655D01*
X323956Y40651D01*
X323956Y40650D01*
X323955Y40646D01*
X323955Y40645D01*
X323955Y40641D01*
X323954Y40641D01*
X323955Y40641D01*
X323954Y40636D01*
X323953Y40631D01*
X323953Y40626D01*
X323952Y40621D01*
X323950Y40601D01*
X323949Y40596D01*
X323949Y40591D01*
X323948Y40586D01*
X323948Y40581D01*
X323947Y40576D01*
X323947Y40571D01*
X323946Y40566D01*
X323946Y40561D01*
X323943Y40541D01*
X323943Y40536D01*
X323942Y40531D01*
X323942Y40526D01*
X323941Y40521D01*
X323941Y40516D01*
X323940Y40516D01*
X323941Y40516D01*
X323940Y40511D01*
X323939Y40506D01*
X323939Y40501D01*
X323937Y40482D01*
X323936Y40477D01*
X323935Y40472D01*
X323935Y40467D01*
X323934Y40462D01*
X323934Y40457D01*
X323933Y40452D01*
X323933Y40447D01*
X323930Y40422D01*
X323929Y40417D01*
X323929Y40412D01*
X323928Y40407D01*
X323928Y40402D01*
X323927Y40397D01*
X323927Y40392D01*
X323926Y40392D01*
X323927Y40392D01*
X323926Y40387D01*
X323923Y40362D01*
X323923Y40357D01*
X323922Y40352D01*
X323921Y40347D01*
X323921Y40342D01*
X323920Y40337D01*
X323920Y40334D01*
X323698Y39700D01*
X323342Y39133D01*
X322867Y38658D01*
X322300Y38302D01*
X321666Y38080D01*
X321366Y38046D01*
X321322Y38041D01*
X321013Y38007D01*
X321000Y38005D01*
X320334Y38080D01*
X319700Y38302D01*
X319133Y38658D01*
X318658Y39133D01*
X318302Y39700D01*
X318080Y40334D01*
X318005Y41000D01*
X318005Y46125D01*
X318001Y46130D01*
X318000Y46130D01*
X312000Y46130D01*
X311995Y46126D01*
X311995Y46125D01*
X311995Y38500D01*
X312168Y36744D01*
X312168Y36743D01*
X312680Y35054D01*
X312681Y35054D01*
X313512Y33498D01*
X313513Y33497D01*
X314632Y32133D01*
X314633Y32133D01*
X314633Y32132D01*
X315997Y31013D01*
X315998Y31012D01*
X317554Y30181D01*
X317554Y30180D01*
X319243Y29668D01*
X319244Y29668D01*
X321000Y29495D01*
X321001Y29495D01*
X322756Y29668D01*
G37*
D10*
X830000Y50000D03*
X50000Y50000D03*
X50000Y440000D03*
X440000Y50000D03*
X830000Y440000D03*
X440000Y830000D03*
D11*
X530018Y155400D02*
X546782Y155400D01*
X546782Y130000D02*
X530018Y130000D01*
X530018Y104600D02*
X546782Y104600D01*
D12*
X688260Y130000D03*
D13*
X740000Y825000D03*
X765000Y825000D03*
X715000Y825000D03*
D14*
X163907Y175000D02*
X136094Y175000D01*
X136094Y213100D02*
X163907Y213100D01*
X163907Y251200D02*
X136094Y251200D01*
X175400Y61907D02*
X175400Y34094D01*
X124600Y34094D02*
X124600Y61907D01*
D15*
X165000Y836370D03*
X115000Y836370D03*
X140000Y836370D03*
X165000Y815370D03*
X115000Y815370D03*
D16*
X81500Y826370D03*
X198500Y826370D03*
D17*
X571900Y700000D03*
D18*
X597300Y700000D03*
X622700Y700000D03*
X648100Y700000D03*
D19*
X272000Y78500D03*
X278500Y78500D03*
X285000Y78500D03*
X291500Y78500D03*
X298000Y78500D03*
D20*
X296500Y36500D03*
X273500Y36500D03*
M02*
